# https://github.com/mikedh/trimesh
v -0.38761008 0.03255349 -0.01506235
v -0.46068394 0.00000268 0.00000284
v -0.38761008 0.03332173 -0.00726249
v -0.38761008 0.02161198 0.02100656
v -0.38761008 0.01555401 0.02597807
v -0.38761008 -0.04586757 -0.01506235
v -0.38761008 -0.04359252 -0.02256229
v -0.38761008 0.03027844 -0.02256205
v -0.38761008 0.02658402 0.01494811
v -0.38761008 -0.04663575 -0.00726297
v -0.38761008 0.02658408 -0.02947380
v -0.38761008 0.03027844 0.00803612
v -0.38761008 -0.04586757 0.00053642
v -0.38761008 0.02161210 -0.03553226
v -0.38761008 0.03255361 0.00053594
v -0.38761008 -0.04359252 0.00803635
v -0.38761008 0.01555377 -0.04050424
v -0.38761008 -0.03989810 0.01494811
v -0.38761008 0.00864219 -0.04419853
v -0.38761008 -0.03492618 0.02100632
v -0.38761008 0.00114250 -0.04647352
v -0.38761008 -0.02886797 0.02597831
v -0.38761008 -0.00665713 -0.04724171
v -0.38761008 -0.02195621 0.02967260
v -0.38761008 -0.01445652 -0.04647352
v -0.38761008 -0.01445652 0.03194759
v -0.38761008 -0.02195621 -0.04419853
v -0.38761008 -0.00665707 0.03271578
v -0.38761008 -0.02886808 -0.04050400
v -0.38761008 0.00114244 0.03194759
v -0.38761008 -0.03492624 -0.03553226
v -0.38761008 0.00864237 0.02967260
v -0.38761008 -0.03989810 -0.02947380
v 0.02545607 0.70780569 0.00000284
v -0.21009290 0.70780569 0.00000284
v -0.21009290 0.69420534 -0.13808276
v 0.02545607 0.69420534 -0.13808276
v -0.21009290 0.65392738 -0.27086165
v 0.02545607 0.65392738 -0.27086165
v -0.21009290 0.58851939 -0.39323141
v 0.02545607 0.58851939 -0.39323141
v -0.21009290 0.50049501 -0.50048949
v 0.02545607 0.50049501 -0.50048949
v -0.21009290 0.39323693 -0.58851387
v 0.02545607 0.39323693 -0.58851387
v -0.21009290 0.27086716 -0.65392186
v 0.02545607 0.27086716 -0.65392186
v -0.21009290 0.13808816 -0.69420006
v 0.02545607 0.13808816 -0.69420006
v -0.21009290 0.00000268 -0.70780017
v 0.02545607 0.00000268 -0.70780017
v -0.21009290 -0.13808281 -0.69420006
v 0.02545607 -0.13808281 -0.69420006
v -0.21009290 -0.27086181 -0.65392186
v 0.02545607 -0.27086181 -0.65392186
v -0.21009290 -0.39323164 -0.58851387
v 0.02545607 -0.39323164 -0.58851387
v -0.21009290 -0.50048972 -0.50048949
v 0.02545607 -0.50048972 -0.50048949
v -0.21009290 -0.58851415 -0.39323141
v 0.02545607 -0.58851415 -0.39323141
v -0.21009290 -0.65392221 -0.27086165
v 0.02545607 -0.65392221 -0.27086165
v -0.21009290 -0.69420022 -0.13808253
v 0.02545607 -0.69420022 -0.13808253
v -0.21009290 -0.70780045 0.00000308
v 0.02545607 -0.70780045 0.00000308
v -0.21009290 -0.69420010 0.13808868
v 0.02545607 -0.69420010 0.13808868
v -0.21009290 -0.65392203 0.27086757
v 0.02545607 -0.65392203 0.27086757
v -0.21009290 -0.58851386 0.39323733
v 0.02545607 -0.58851386 0.39323733
v -0.21009290 -0.50048942 0.50049565
v 0.02545607 -0.50048942 0.50049565
v -0.21009290 -0.39323125 0.58851979
v 0.02545607 -0.39323125 0.58851979
v -0.21009290 -0.27086133 0.65392802
v 0.02545607 -0.27086133 0.65392802
v -0.21009290 -0.13808233 0.69420598
v 0.02545607 -0.13808233 0.69420598
v -0.21009290 0.00000327 0.70780585
v 0.02545607 0.00000327 0.70780585
v -0.21009290 0.13808888 0.69420550
v 0.02545607 0.13808888 0.69420550
v -0.21009290 0.27086788 0.65392754
v 0.02545607 0.27086788 0.65392754
v -0.21009290 0.39323764 0.58851931
v 0.02545607 0.39323764 0.58851931
v -0.21009290 0.50049549 0.50049470
v 0.02545607 0.50049549 0.50049470
v -0.21009290 0.58851987 0.39323638
v 0.02545607 0.58851987 0.39323638
v -0.21009290 0.65392774 0.27086661
v 0.02545607 0.65392774 0.27086661
v -0.21009290 0.69420558 0.13808725
v 0.02545607 0.69420558 0.13808725
v -0.38322794 -0.58851386 0.39323733
v -0.38322794 -0.65392203 0.27086757
v -0.38322794 0.40176314 0.07991717
v -0.22095191 0.40176314 0.07991717
v -0.22095191 0.37845283 0.15676139
v -0.38322794 0.37845283 0.15676139
v -0.38322794 0.50049549 0.50049470
v -0.38322794 0.39323764 0.58851931
v -0.38322794 0.27086716 -0.65392186
v -0.38322794 0.39323693 -0.58851387
v -0.38322794 -0.69420022 -0.13808253
v -0.38322794 -0.65392221 -0.27086165
v -0.38322794 0.00000327 0.70780585
v -0.38322794 -0.13808233 0.69420598
v -0.38322794 0.65392738 -0.27086165
v -0.38322794 0.69420534 -0.13808276
v -0.38322794 -0.39323164 -0.58851387
v -0.38322794 -0.27086181 -0.65392186
v -0.38322794 -0.50048942 0.50049565
v -0.38322794 0.58851987 0.39323638
v -0.38322794 0.13808816 -0.69420006
v -0.38322794 -0.70780045 0.00000308
v -0.38322794 0.13808888 0.69420550
v -0.38322794 0.58851939 -0.39323141
v -0.38322794 -0.50048972 -0.50048949
v -0.38322794 -0.39323125 0.58851979
v -0.38322794 0.65392774 0.27086661
v -0.38322794 0.00000268 -0.70780017
v -0.38322794 -0.69420010 0.13808868
v -0.38322794 0.27086788 0.65392754
v -0.38322794 0.50049501 -0.50048949
v -0.38322794 -0.58851415 -0.39323141
v -0.38322794 -0.27086133 0.65392802
v -0.38322794 0.69420558 0.13808725
v -0.38322794 -0.13808287 -0.69420006
v -0.38322794 0.70780569 0.00000284
v -0.43661177 0.63326269 0.00000284
v -0.43661177 0.62109476 -0.12354018
v -0.43661177 0.58505862 -0.24233534
v -0.43661177 0.52653914 -0.35181763
v -0.43661177 0.44778519 -0.44777968
v -0.43661177 0.35182303 -0.52653386
v -0.43661177 0.24234074 -0.58505323
v -0.43661177 0.12354552 -0.62108924
v -0.43661177 0.00000262 -0.63325717
v -0.43661177 -0.12354023 -0.62108948
v -0.43661177 -0.24233538 -0.58505323
v -0.43661177 -0.35181779 -0.52653386
v -0.43661177 -0.44777990 -0.44777968
v -0.43661177 -0.52653397 -0.35181763
v -0.43661177 -0.58505345 -0.24233510
v -0.43661177 -0.62108958 -0.12353995
v -0.43661177 -0.63325751 0.00000308
v -0.43661177 -0.62108946 0.12354610
v -0.43661177 -0.58505333 0.24234126
v -0.43661177 -0.52653367 0.35182355
v -0.43661177 -0.44777963 0.44778559
v -0.43661177 -0.35181746 0.52653954
v -0.43661177 -0.24233503 0.58505891
v -0.43661177 -0.12353975 0.62109540
v -0.43661177 0.00000321 0.63326285
v -0.43661177 0.12354618 0.62109492
v -0.43661177 0.24234145 0.58505891
v -0.43661177 0.35182374 0.52653907
v -0.43661177 0.44778567 0.44778464
v -0.43661177 0.52653962 0.35182259
v -0.43661177 0.58505898 0.24234031
v -0.43661177 0.62109500 0.12354467
v -0.22095191 0.00000274 0.14990018
v -0.35178864 0.00000274 0.14990018
v -0.35178864 -0.02924073 0.14701984
v -0.22095191 -0.02924079 0.14701984
v -0.38322794 -0.37844727 0.15676210
v -0.22095191 -0.37844727 0.15676210
v -0.22095191 -0.40175763 0.07991813
v -0.38322794 -0.40175763 0.07991813
v -0.38322794 0.22758156 -0.34059312
v -0.22095191 0.22758156 -0.34059312
v -0.22095191 0.28965562 -0.28965022
v -0.38322794 0.28965562 -0.28965022
v -0.38322794 0.40963393 0.00000308
v -0.22095191 0.40963393 0.00000308
v -0.38322794 -0.34059319 0.22758220
v -0.22095191 -0.34059319 0.22758220
v -0.38322794 0.15676170 -0.37844708
v -0.22095191 0.15676170 -0.37844708
v -0.38322794 -0.28965027 0.28965590
v -0.22095191 -0.28965027 0.28965590
v -0.38322794 0.07991772 -0.40175750
v -0.22095191 0.07991772 -0.40175750
v -0.38322794 -0.22757608 0.34059880
v -0.22095191 -0.22757608 0.34059880
v -0.38322794 0.00000256 -0.40962841
v -0.22095191 0.00000256 -0.40962841
v -0.38322794 -0.15675611 0.37845300
v -0.22095191 -0.15675611 0.37845300
v -0.38322794 -0.07991249 -0.40175750
v -0.22095191 -0.07991249 -0.40175750
v -0.38322794 -0.07991213 0.40176318
v -0.22095191 -0.07991213 0.40176318
v -0.38322794 -0.15675635 -0.37844732
v -0.22095191 -0.15675635 -0.37844732
v -0.38322794 0.00000303 0.40963433
v -0.22095191 0.00000303 0.40963433
v -0.38322794 -0.22757626 -0.34059312
v -0.22095191 -0.22757626 -0.34059312
v -0.38322794 0.07991814 0.40176318
v -0.22095191 0.07991814 0.40176318
v -0.38322794 -0.28965045 -0.28965022
v -0.22095191 -0.28965045 -0.28965022
v -0.38322794 0.15676218 0.37845252
v -0.22095191 0.15676218 0.37845252
v -0.38322794 -0.34059340 -0.22757604
v -0.22095191 -0.34059340 -0.22757604
v -0.38322794 0.22758203 0.34059880
v -0.22095191 0.22758203 0.34059880
v -0.38322794 -0.37844736 -0.15675618
v -0.22095191 -0.37844736 -0.15675618
v -0.38322794 0.40176290 -0.07991221
v -0.22095191 0.40176290 -0.07991221
v -0.38322794 0.28965598 0.28965543
v -0.22095191 0.28965598 0.28965543
v -0.38322794 -0.40175772 -0.07991221
v -0.22095191 -0.40175772 -0.07991221
v -0.38322794 0.37845259 -0.15675618
v -0.22095191 0.37845259 -0.15675618
v -0.38322794 0.34059888 0.22758124
v -0.22095191 0.34059888 0.22758124
v -0.38322794 -0.40962867 0.00000284
v -0.22095191 -0.40962867 0.00000284
v -0.38322794 0.34059852 -0.22757604
v -0.22095191 0.34059852 -0.22757604
v -0.33209097 0.22758156 -0.34059312
v -0.33209097 0.28965562 -0.28965022
v -0.22095191 0.14701956 -0.02924063
v -0.22095191 0.13848960 -0.05736043
v -0.33209097 0.40176314 0.07991717
v -0.33209097 0.37845283 0.15676139
v -0.22095191 0.12463760 -0.08327558
v -0.22095191 0.10599589 -0.10599043
v -0.22095191 -0.13848430 0.05736611
v -0.33209097 -0.13848430 0.05736611
v -0.33209097 -0.12463230 0.08328126
v -0.22095191 -0.12463230 0.08328126
v -0.22095191 0.08328092 -0.12463238
v -0.22095191 0.05736583 -0.13848426
v -0.33209097 -0.28965045 -0.28965022
v -0.33209097 -0.10599071 -0.10599043
v -0.22095191 -0.10599071 -0.10599043
v -0.22095191 0.02924621 -0.14701416
v -0.22095191 0.00000262 -0.14989450
v -0.22095191 -0.08327580 -0.12463214
v -0.33209097 -0.08327580 -0.12463214
v -0.33209097 -0.22757626 -0.34059312
v -0.22095191 -0.02924091 -0.14701416
v -0.22095191 -0.05736048 -0.13848426
v -0.33209097 0.34059852 -0.22757604
v -0.33209097 0.37845259 -0.15675618
v -0.33209097 0.34059888 0.22758124
v -0.33209097 0.28965598 0.28965543
v -0.22095191 -0.12463242 -0.08327558
v -0.22095191 -0.13848430 -0.05736043
v -0.22095191 -0.14989466 0.00000284
v -0.33209097 -0.14989466 0.00000284
v -0.33209097 -0.14701433 0.02924631
v -0.22095191 -0.14701433 0.02924631
v -0.22095191 -0.14701433 -0.02924063
v -0.33209097 -0.15675635 -0.37844732
v -0.33209097 -0.05736048 -0.13848426
v -0.33209097 -0.02924091 -0.14701416
v -0.33209097 -0.07991249 -0.40175750
v -0.22095191 -0.10599059 0.10599635
v -0.33209097 0.40176290 -0.07991221
v -0.33209097 0.40963393 0.00000308
v -0.22095191 -0.08327574 0.12463782
v -0.22095191 -0.05736048 0.13848994
v -0.33209097 0.22758203 0.34059880
v -0.33209097 0.15676218 0.37845252
v -0.33209097 -0.13848430 -0.05736043
v -0.33209097 -0.14701433 -0.02924063
v -0.22095191 0.02924627 0.14701984
v -0.22095191 0.05736607 0.13848970
v -0.33209097 0.00000256 -0.40962841
v -0.33209097 0.00000262 -0.14989450
v -0.22095191 0.08328121 0.12463782
v -0.22095191 0.10599595 0.10599611
v -0.33209097 0.02924621 -0.14701416
v -0.33209097 0.07991772 -0.40175750
v -0.22095191 0.12463766 0.08328102
v -0.22095191 0.13848966 0.05736587
v -0.33209097 0.07991814 0.40176318
v -0.33209097 0.00000303 0.40963433
v -0.22095191 0.14701968 0.02924583
v -0.22095191 0.14989989 0.00000308
v -0.35178864 -0.08327580 -0.12463214
v -0.35178864 -0.05736048 -0.13848426
v -0.35178864 0.02924627 0.14701984
v -0.35178864 -0.10599071 -0.10599043
v -0.35178864 0.05736607 0.13848970
v -0.35178864 -0.12463242 -0.08327558
v -0.35178864 0.08328121 0.12463782
v -0.35178864 -0.13848430 -0.05736043
v -0.35178864 0.14701962 -0.02924063
v -0.35178864 0.14989989 0.00000308
v -0.35178864 0.10599595 0.10599611
v -0.35178864 -0.14701433 -0.02924063
v -0.35178864 0.13848960 -0.05736043
v -0.35178864 0.12463772 0.08328102
v -0.35178864 -0.14989460 0.00000284
v -0.35178864 0.12463760 -0.08327558
v -0.35178864 0.13848966 0.05736587
v -0.35178864 -0.14701433 0.02924631
v -0.35178864 0.10599595 -0.10599043
v -0.35178864 0.14701974 0.02924583
v -0.35178864 -0.13848430 0.05736611
v -0.35178864 0.08328098 -0.12463238
v -0.35178864 -0.12463230 0.08328126
v -0.35178864 0.05736583 -0.13848426
v -0.35178864 -0.10599059 0.10599635
v -0.35178864 0.02924621 -0.14701416
v -0.35178864 -0.08327574 0.12463782
v -0.35178864 0.00000262 -0.14989450
v -0.35178864 -0.05736042 0.13848994
v -0.35178864 -0.02924091 -0.14701416
v -0.43661177 0.47487372 0.09445975
v -0.43661177 0.48417693 0.00000284
v -0.45521963 0.54798442 0.10900233
v -0.45521963 0.55871981 0.00000284
v -0.43661177 0.44732147 0.18528769
v -0.45521963 0.51619034 0.21381400
v -0.43661177 0.40257912 0.26899503
v -0.45521963 0.46455937 0.31040881
v -0.43661177 0.34236580 0.34236548
v -0.45521963 0.39507573 0.39507506
v -0.43661177 0.26899594 0.40257857
v -0.45521963 0.31040984 0.46455882
v -0.43661177 0.18528860 0.44732116
v -0.45521963 0.21381503 0.51618979
v -0.43661177 0.09446078 0.47487376
v -0.45521963 0.10900348 0.54798434
v -0.43661177 0.00000309 0.48417733
v -0.45521963 0.00000315 0.55871985
v -0.43661177 -0.09445471 0.47487376
v -0.45521963 -0.10899723 0.54798434
v -0.43661177 -0.18528241 0.44732163
v -0.45521963 -0.21380872 0.51619027
v -0.43661177 -0.26898987 0.40257905
v -0.45521963 -0.31040368 0.46455930
v -0.43661177 -0.34236006 0.34236596
v -0.45521963 -0.39506984 0.39507602
v -0.43661177 -0.40257335 0.26899598
v -0.45521963 -0.46455351 0.31040976
v -0.43661177 -0.44731597 0.18528865
v -0.45521963 -0.51618463 0.21381495
v -0.43661177 -0.47486824 0.09446070
v -0.45521963 -0.54797888 0.10900328
v -0.43661177 -0.48417160 0.00000308
v -0.45521963 -0.55871457 0.00000308
v -0.43661177 -0.47486836 -0.09445479
v -0.45521963 -0.54797900 -0.10899737
v -0.43661177 -0.44731606 -0.18528249
v -0.45521963 -0.51618475 -0.21380880
v -0.43661177 -0.40257359 -0.26898982
v -0.45521963 -0.46455378 -0.31040384
v -0.43661177 -0.34236026 -0.34236004
v -0.45521963 -0.39507008 -0.39506986
v -0.43661177 -0.26899010 -0.40257337
v -0.45521963 -0.31040395 -0.46455362
v -0.43661177 -0.18528271 -0.44731595
v -0.45521963 -0.21380908 -0.51618459
v -0.43661177 -0.09445507 -0.47486808
v -0.45521963 -0.10899765 -0.54797866
v -0.43661177 0.00000262 -0.48417141
v -0.45521963 0.00000262 -0.55871441
v -0.43661177 0.09446030 -0.47486808
v -0.45521963 0.10900288 -0.54797866
v -0.43661177 0.18528807 -0.44731595
v -0.45521963 0.21381443 -0.51618459
v -0.43661177 0.26899534 -0.40257337
v -0.45521963 0.31040912 -0.46455362
v -0.43661177 0.34236544 -0.34236004
v -0.45521963 0.39507526 -0.39506986
v -0.43661177 0.40257865 -0.26899006
v -0.45521963 0.46455889 -0.31040384
v -0.43661177 0.44732123 -0.18528273
v -0.45521963 0.51618987 -0.21380903
v -0.43661177 0.47487360 -0.09445479
v -0.45521963 0.54798418 -0.10899737
v 0.26100516 0.69420534 -0.13808276
v 0.26100516 0.70780569 0.00000284
v 0.26100516 0.65392738 -0.27086165
v 0.26100516 0.58851939 -0.39323141
v 0.26100516 0.50049501 -0.50048949
v 0.26100516 0.39323693 -0.58851387
v 0.26100516 0.27086716 -0.65392186
v 0.26100516 0.13808816 -0.69420006
v 0.26100516 0.00000268 -0.70780017
v 0.26100516 -0.13808281 -0.69420006
v 0.26100516 -0.27086181 -0.65392186
v 0.26100516 -0.39323164 -0.58851387
v 0.26100516 -0.50048972 -0.50048949
v 0.26100516 -0.58851415 -0.39323141
v 0.26100516 -0.65392221 -0.27086165
v 0.26100516 -0.69420022 -0.13808253
v 0.26100516 -0.70780045 0.00000308
v 0.26100516 -0.69420010 0.13808868
v 0.26100516 -0.65392203 0.27086757
v 0.26100516 -0.58851386 0.39323733
v 0.26100516 -0.50048942 0.50049565
v 0.26100516 -0.39323125 0.58851979
v 0.26100516 -0.27086133 0.65392802
v 0.26100516 -0.13808233 0.69420598
v 0.26100516 0.00000327 0.70780585
v 0.26100516 0.13808888 0.69420550
v 0.26100516 0.27086788 0.65392754
v 0.26100516 0.39323764 0.58851931
v 0.26100516 0.50049549 0.50049470
v 0.26100516 0.58851987 0.39323638
v 0.26100516 0.65392774 0.27086661
v 0.26100516 0.69420558 0.13808725
v 0.43414021 -0.65392203 0.27086757
v 0.43414021 -0.58851386 0.39323733
v 0.43414021 0.40176314 0.07991717
v 0.43414021 0.37845283 0.15676139
v 0.27186418 0.37845283 0.15676139
v 0.27186418 0.40176314 0.07991717
v 0.43414021 0.39323764 0.58851931
v 0.43414021 0.50049549 0.50049470
v 0.43414021 0.39323693 -0.58851387
v 0.43414021 0.27086716 -0.65392186
v 0.43414021 -0.65392221 -0.27086165
v 0.43414021 -0.69420022 -0.13808253
v 0.43414021 -0.13808233 0.69420598
v 0.43414021 0.00000327 0.70780585
v 0.43414021 0.69420534 -0.13808276
v 0.43414021 0.65392738 -0.27086165
v 0.43414021 -0.27086181 -0.65392186
v 0.43414021 -0.39323164 -0.58851387
v 0.43414021 -0.50048942 0.50049565
v 0.43414021 0.58851987 0.39323638
v 0.43414021 0.13808816 -0.69420006
v 0.43414021 -0.70780045 0.00000308
v 0.43414021 0.13808888 0.69420550
v 0.43414021 0.58851939 -0.39323141
v 0.43414021 -0.50048972 -0.50048949
v 0.43414021 -0.39323125 0.58851979
v 0.43414021 0.65392774 0.27086661
v 0.43414021 0.00000268 -0.70780017
v 0.43414021 -0.69420010 0.13808868
v 0.43414021 0.27086788 0.65392754
v 0.43414021 0.50049501 -0.50048949
v 0.43414021 -0.58851415 -0.39323141
v 0.43414021 -0.27086133 0.65392802
v 0.43414021 0.69420558 0.13808725
v 0.43414021 -0.13808287 -0.69420006
v 0.43414021 0.70780569 0.00000284
v 0.48752403 0.63326269 0.00000284
v 0.48752403 0.62109476 -0.12354018
v 0.48752403 0.58505862 -0.24233534
v 0.48752403 0.52653914 -0.35181763
v 0.48752403 0.44778519 -0.44777968
v 0.48752403 0.35182303 -0.52653386
v 0.48752403 0.24234074 -0.58505323
v 0.48752403 0.12354552 -0.62108924
v 0.48752403 0.00000262 -0.63325717
v 0.48752403 -0.12354023 -0.62108948
v 0.48752403 -0.24233538 -0.58505323
v 0.48752403 -0.35181779 -0.52653386
v 0.48752403 -0.44777990 -0.44777968
v 0.48752403 -0.52653397 -0.35181763
v 0.48752403 -0.58505345 -0.24233510
v 0.48752403 -0.62108958 -0.12353995
v 0.48752403 -0.63325751 0.00000308
v 0.48752403 -0.62108946 0.12354610
v 0.48752403 -0.58505333 0.24234126
v 0.48752403 -0.52653367 0.35182355
v 0.48752403 -0.44777963 0.44778559
v 0.48752403 -0.35181746 0.52653954
v 0.48752403 -0.24233503 0.58505891
v 0.48752403 -0.12353975 0.62109540
v 0.48752403 0.00000321 0.63326285
v 0.48752403 0.12354618 0.62109492
v 0.48752403 0.24234145 0.58505891
v 0.48752403 0.35182374 0.52653907
v 0.48752403 0.44778567 0.44778464
v 0.48752403 0.52653962 0.35182259
v 0.48752403 0.58505898 0.24234031
v 0.48752403 0.62109500 0.12354467
v 0.27186418 0.00000274 0.14990018
v 0.27186418 -0.02924079 0.14701984
v 0.40270090 -0.02924073 0.14701984
v 0.40270090 0.00000274 0.14990018
v 0.43414021 -0.37844727 0.15676210
v 0.43414021 -0.40175763 0.07991813
v 0.27186418 -0.40175763 0.07991813
v 0.27186418 -0.37844727 0.15676210
v 0.43414021 0.22758156 -0.34059312
v 0.43414021 0.28965562 -0.28965022
v 0.27186418 0.28965562 -0.28965022
v 0.27186418 0.22758156 -0.34059312
v 0.43414021 0.40963393 0.00000308
v 0.27186418 0.40963393 0.00000308
v 0.43414021 -0.34059319 0.22758220
v 0.27186418 -0.34059319 0.22758220
v 0.43414021 0.15676170 -0.37844708
v 0.27186418 0.15676170 -0.37844708
v 0.43414021 -0.28965027 0.28965590
v 0.27186418 -0.28965027 0.28965590
v 0.43414021 0.07991772 -0.40175750
v 0.27186418 0.07991772 -0.40175750
v 0.43414021 -0.22757608 0.34059880
v 0.27186418 -0.22757608 0.34059880
v 0.43414021 0.00000256 -0.40962841
v 0.27186418 0.00000256 -0.40962841
v 0.43414021 -0.15675611 0.37845300
v 0.27186418 -0.15675611 0.37845300
v 0.43414021 -0.07991249 -0.40175750
v 0.27186418 -0.07991249 -0.40175750
v 0.43414021 -0.07991213 0.40176318
v 0.27186418 -0.07991213 0.40176318
v 0.43414021 -0.15675635 -0.37844732
v 0.27186418 -0.15675635 -0.37844732
v 0.43414021 0.00000303 0.40963433
v 0.27186418 0.00000303 0.40963433
v 0.43414021 -0.22757626 -0.34059312
v 0.27186418 -0.22757626 -0.34059312
v 0.43414021 0.07991814 0.40176318
v 0.27186418 0.07991814 0.40176318
v 0.43414021 -0.28965045 -0.28965022
v 0.27186418 -0.28965045 -0.28965022
v 0.43414021 0.15676218 0.37845252
v 0.27186418 0.15676218 0.37845252
v 0.43414021 -0.34059340 -0.22757604
v 0.27186418 -0.34059340 -0.22757604
v 0.43414021 0.22758203 0.34059880
v 0.27186418 0.22758203 0.34059880
v 0.43414021 -0.37844736 -0.15675618
v 0.27186418 -0.37844736 -0.15675618
v 0.43414021 0.40176290 -0.07991221
v 0.27186418 0.40176290 -0.07991221
v 0.43414021 0.28965598 0.28965543
v 0.27186418 0.28965598 0.28965543
v 0.43414021 -0.40175772 -0.07991221
v 0.27186418 -0.40175772 -0.07991221
v 0.43414021 0.37845259 -0.15675618
v 0.27186418 0.37845259 -0.15675618
v 0.43414021 0.34059888 0.22758124
v 0.27186418 0.34059888 0.22758124
v 0.43414021 -0.40962867 0.00000284
v 0.27186418 -0.40962867 0.00000284
v 0.43414021 0.34059852 -0.22757604
v 0.27186418 0.34059852 -0.22757604
v 0.27186418 0.14989989 0.00000308
v 0.27186418 0.14701956 -0.02924063
v 0.27186418 0.13848960 -0.05736043
v 0.27186418 0.12463760 -0.08327558
v 0.27186418 0.10599589 -0.10599043
v 0.27186418 0.08328092 -0.12463238
v 0.27186418 0.05736583 -0.13848426
v 0.27186418 0.02924621 -0.14701416
v 0.27186418 0.00000262 -0.14989450
v 0.27186418 -0.02924091 -0.14701416
v 0.27186418 -0.05736048 -0.13848426
v 0.27186418 -0.08327580 -0.12463214
v 0.27186418 -0.10599071 -0.10599043
v 0.27186418 -0.12463242 -0.08327558
v 0.27186418 -0.13848430 -0.05736043
v 0.27186418 -0.14701433 -0.02924063
v 0.27186418 -0.14989466 0.00000284
v 0.27186418 -0.14701433 0.02924631
v 0.27186418 -0.13848430 0.05736611
v 0.27186418 -0.12463230 0.08328126
v 0.27186418 -0.10599059 0.10599635
v 0.27186418 -0.08327574 0.12463782
v 0.27186418 -0.05736048 0.13848994
v 0.27186418 0.02924627 0.14701984
v 0.27186418 0.05736607 0.13848970
v 0.27186418 0.08328121 0.12463782
v 0.27186418 0.10599595 0.10599611
v 0.27186418 0.12463766 0.08328102
v 0.27186418 0.13848966 0.05736587
v 0.27186418 0.14701968 0.02924583
v 0.40270090 -0.05736048 -0.13848426
v 0.40270090 -0.08327580 -0.12463214
v 0.40270090 0.02924627 0.14701984
v 0.40270090 -0.10599071 -0.10599043
v 0.40270090 0.05736607 0.13848970
v 0.40270090 -0.12463242 -0.08327558
v 0.40270090 0.08328121 0.12463782
v 0.40270090 -0.13848430 -0.05736043
v 0.40270090 0.14989989 0.00000308
v 0.40270090 0.14701962 -0.02924063
v 0.40270090 0.10599595 0.10599611
v 0.40270090 -0.14701433 -0.02924063
v 0.40270090 0.13848960 -0.05736043
v 0.40270090 0.12463772 0.08328102
v 0.40270090 -0.14989460 0.00000284
v 0.40270090 0.12463760 -0.08327558
v 0.40270090 0.13848966 0.05736587
v 0.40270090 -0.14701433 0.02924631
v 0.40270090 0.10599595 -0.10599043
v 0.40270090 0.14701974 0.02924583
v 0.40270090 -0.13848430 0.05736611
v 0.40270090 0.08328098 -0.12463238
v 0.40270090 -0.12463230 0.08328126
v 0.40270090 0.05736583 -0.13848426
v 0.40270090 -0.10599059 0.10599635
v 0.40270090 0.02924621 -0.14701416
v 0.40270090 -0.08327574 0.12463782
v 0.40270090 0.00000262 -0.14989450
v 0.40270090 -0.05736042 0.13848994
v 0.40270090 -0.02924091 -0.14701416
v 0.48752403 0.48417693 0.00000284
v 0.48752403 0.47487372 0.09445975
v 0.50613189 0.55871981 0.00000284
v 0.50613189 0.54798442 0.10900233
v 0.48752403 0.44732147 0.18528769
v 0.50613189 0.51619034 0.21381400
v 0.48752403 0.40257912 0.26899503
v 0.50613189 0.46455937 0.31040881
v 0.48752403 0.34236580 0.34236548
v 0.50613189 0.39507573 0.39507506
v 0.48752403 0.26899594 0.40257857
v 0.50613189 0.31040984 0.46455882
v 0.48752403 0.18528860 0.44732116
v 0.50613189 0.21381503 0.51618979
v 0.48752403 0.09446078 0.47487376
v 0.50613189 0.10900348 0.54798434
v 0.48752403 0.00000309 0.48417733
v 0.50613189 0.00000315 0.55871985
v 0.48752403 -0.09445471 0.47487376
v 0.50613189 -0.10899723 0.54798434
v 0.48752403 -0.18528241 0.44732163
v 0.50613189 -0.21380872 0.51619027
v 0.48752403 -0.26898987 0.40257905
v 0.50613189 -0.31040368 0.46455930
v 0.48752403 -0.34236006 0.34236596
v 0.50613189 -0.39506984 0.39507602
v 0.48752403 -0.40257335 0.26899598
v 0.50613189 -0.46455351 0.31040976
v 0.48752403 -0.44731597 0.18528865
v 0.50613189 -0.51618463 0.21381495
v 0.48752403 -0.47486824 0.09446070
v 0.50613189 -0.54797888 0.10900328
v 0.48752403 -0.48417160 0.00000308
v 0.50613189 -0.55871457 0.00000308
v 0.48752403 -0.47486836 -0.09445479
v 0.50613189 -0.54797900 -0.10899737
v 0.48752403 -0.44731606 -0.18528249
v 0.50613189 -0.51618475 -0.21380880
v 0.48752403 -0.40257359 -0.26898982
v 0.50613189 -0.46455378 -0.31040384
v 0.48752403 -0.34236026 -0.34236004
v 0.50613189 -0.39507008 -0.39506986
v 0.48752403 -0.26899010 -0.40257337
v 0.50613189 -0.31040395 -0.46455362
v 0.48752403 -0.18528271 -0.44731595
v 0.50613189 -0.21380908 -0.51618459
v 0.48752403 -0.09445507 -0.47486808
v 0.50613189 -0.10899765 -0.54797866
v 0.48752403 0.00000262 -0.48417141
v 0.50613189 0.00000262 -0.55871441
v 0.48752403 0.09446030 -0.47486808
v 0.50613189 0.10900288 -0.54797866
v 0.48752403 0.18528807 -0.44731595
v 0.50613189 0.21381443 -0.51618459
v 0.48752403 0.26899534 -0.40257337
v 0.50613189 0.31040912 -0.46455362
v 0.48752403 0.34236544 -0.34236004
v 0.50613189 0.39507526 -0.39506986
v 0.48752403 0.40257865 -0.26899006
v 0.50613189 0.46455889 -0.31040384
v 0.48752403 0.44732123 -0.18528273
v 0.50613189 0.51618987 -0.21380903
v 0.48752403 0.47487360 -0.09445479
v 0.50613189 0.54798418 -0.10899737
v -0.33209097 -0.28965027 0.28965590
v -0.33209097 -0.10599059 0.10599635
v -0.33209097 -0.34059319 0.22758220
v -0.33209097 0.00000274 0.14990018
v -0.33209097 0.02924627 0.14701984
v -0.33209097 -0.37844727 0.15676210
v -0.33209097 -0.40175763 0.07991813
v -0.33209097 -0.05736048 0.13848994
v -0.33209097 -0.02924079 0.14701984
v -0.33209097 -0.40962867 0.00000284
v -0.33209097 -0.40175772 -0.07991221
v -0.33209097 0.15676170 -0.37844708
v -0.33209097 -0.08327574 0.12463782
v -0.33209097 -0.37844736 -0.15675618
v -0.33209097 -0.12463242 -0.08327558
v -0.33209097 -0.34059340 -0.22757604
v -0.33209097 0.13848966 0.05736587
v -0.33209097 0.14701968 0.02924583
v -0.33209097 0.10599595 0.10599611
v -0.33209097 0.12463766 0.08328102
v -0.33209097 0.05736607 0.13848970
v -0.33209097 0.08328121 0.12463782
v -0.33209097 -0.15675611 0.37845300
v -0.33209097 -0.07991213 0.40176318
v -0.33209097 -0.22757608 0.34059880
v -0.33209097 0.05736583 -0.13848426
v -0.33209097 0.10599589 -0.10599043
v -0.33209097 0.08328092 -0.12463238
v -0.33209097 0.13848960 -0.05736043
v -0.33209097 0.12463760 -0.08327558
v -0.33209097 0.14989989 0.00000308
v -0.33209097 0.14701956 -0.02924063
f 1 2 3
f 4 2 5
f 6 2 7
f 8 2 1
f 9 2 4
f 10 2 6
f 11 2 8
f 12 2 9
f 13 2 10
f 14 2 11
f 15 2 12
f 16 2 13
f 17 2 14
f 3 2 15
f 18 2 16
f 19 2 17
f 20 2 18
f 21 2 19
f 22 2 20
f 23 2 21
f 24 2 22
f 25 2 23
f 26 2 24
f 27 2 25
f 28 2 26
f 29 2 27
f 30 2 28
f 31 2 29
f 32 2 30
f 33 2 31
f 5 2 32
f 7 2 33
f 34 35 36
f 34 36 37
f 37 36 38
f 37 38 39
f 39 38 40
f 39 40 41
f 41 40 42
f 41 42 43
f 43 42 44
f 43 44 45
f 45 44 46
f 45 46 47
f 47 46 48
f 47 48 49
f 49 48 50
f 49 50 51
f 51 50 52
f 51 52 53
f 53 52 54
f 53 54 55
f 55 54 56
f 55 56 57
f 57 56 58
f 57 58 59
f 59 58 60
f 59 60 61
f 61 60 62
f 61 62 63
f 63 62 64
f 63 64 65
f 65 64 66
f 65 66 67
f 67 66 68
f 67 68 69
f 69 68 70
f 69 70 71
f 71 70 72
f 71 72 73
f 73 72 74
f 73 74 75
f 75 74 76
f 75 76 77
f 77 76 78
f 77 78 79
f 79 78 80
f 79 80 81
f 81 80 82
f 81 82 83
f 83 82 84
f 83 84 85
f 85 84 86
f 85 86 87
f 87 86 88
f 87 88 89
f 89 88 90
f 89 90 91
f 91 90 92
f 91 92 93
f 93 92 94
f 93 94 95
f 95 94 96
f 95 96 97
f 97 96 35
f 97 35 34
f 34 37 36
f 34 36 35
f 37 39 38
f 37 38 36
f 39 41 40
f 39 40 38
f 41 43 42
f 41 42 40
f 43 45 44
f 43 44 42
f 45 47 46
f 45 46 44
f 47 49 48
f 47 48 46
f 49 51 50
f 49 50 48
f 51 53 52
f 51 52 50
f 53 55 54
f 53 54 52
f 55 57 56
f 55 56 54
f 57 59 58
f 57 58 56
f 59 61 60
f 59 60 58
f 61 63 62
f 61 62 60
f 63 65 64
f 63 64 62
f 65 67 66
f 65 66 64
f 67 69 68
f 67 68 66
f 69 71 70
f 69 70 68
f 71 73 72
f 71 72 70
f 73 75 74
f 73 74 72
f 75 77 76
f 75 76 74
f 77 79 78
f 77 78 76
f 79 81 80
f 79 80 78
f 81 83 82
f 81 82 80
f 83 85 84
f 83 84 82
f 85 87 86
f 85 86 84
f 87 89 88
f 87 88 86
f 89 91 90
f 89 90 88
f 91 93 92
f 91 92 90
f 93 95 94
f 93 94 92
f 72 98 99
f 72 99 70
f 95 97 96
f 95 96 94
f 97 34 35
f 97 35 96
f 100 101 102
f 100 102 103
f 90 104 105
f 90 105 88
f 46 106 107
f 46 107 44
f 64 108 109
f 64 109 62
f 82 110 111
f 82 111 80
f 38 112 113
f 38 113 36
f 56 114 115
f 56 115 54
f 74 116 98
f 74 98 72
f 92 117 104
f 92 104 90
f 48 118 106
f 48 106 46
f 66 119 108
f 66 108 64
f 84 120 110
f 84 110 82
f 40 121 112
f 40 112 38
f 58 122 114
f 58 114 56
f 76 123 116
f 76 116 74
f 94 124 117
f 94 117 92
f 50 125 118
f 50 118 48
f 68 126 119
f 68 119 66
f 86 127 120
f 86 120 84
f 42 128 121
f 42 121 40
f 60 129 122
f 60 122 58
f 78 130 123
f 78 123 76
f 96 131 124
f 96 124 94
f 52 132 125
f 52 125 50
f 70 99 126
f 70 126 68
f 88 105 127
f 88 127 86
f 44 107 128
f 44 128 42
f 62 109 129
f 62 129 60
f 80 111 130
f 80 130 78
f 36 113 133
f 36 133 35
f 35 133 131
f 35 131 96
f 54 115 132
f 54 132 52
f 134 133 113
f 134 113 135
f 135 113 112
f 135 112 136
f 136 112 121
f 136 121 137
f 137 121 128
f 137 128 138
f 138 128 107
f 138 107 139
f 139 107 106
f 139 106 140
f 140 106 118
f 140 118 141
f 141 118 125
f 141 125 142
f 142 125 132
f 142 132 143
f 143 132 115
f 143 115 144
f 144 115 114
f 144 114 145
f 145 114 122
f 145 122 146
f 146 122 129
f 146 129 147
f 147 129 109
f 147 109 148
f 148 109 108
f 148 108 149
f 149 108 119
f 149 119 150
f 150 119 126
f 150 126 151
f 151 126 99
f 151 99 152
f 152 99 98
f 152 98 153
f 153 98 116
f 153 116 154
f 154 116 123
f 154 123 155
f 155 123 130
f 155 130 156
f 156 130 111
f 156 111 157
f 157 111 110
f 157 110 158
f 158 110 120
f 158 120 159
f 159 120 127
f 159 127 160
f 160 127 105
f 160 105 161
f 161 105 104
f 161 104 162
f 162 104 117
f 162 117 163
f 163 117 124
f 163 124 164
f 164 124 131
f 164 131 165
f 165 131 133
f 165 133 134
f 166 167 168
f 166 168 169
f 170 171 172
f 170 172 173
f 174 175 176
f 174 176 177
f 178 179 101
f 178 101 100
f 180 181 171
f 180 171 170
f 182 183 175
f 182 175 174
f 184 185 181
f 184 181 180
f 186 187 183
f 186 183 182
f 188 189 185
f 188 185 184
f 190 191 187
f 190 187 186
f 192 193 189
f 192 189 188
f 194 195 191
f 194 191 190
f 196 197 193
f 196 193 192
f 198 199 195
f 198 195 194
f 200 201 197
f 200 197 196
f 202 203 199
f 202 199 198
f 204 205 201
f 204 201 200
f 206 207 203
f 206 203 202
f 208 209 205
f 208 205 204
f 210 211 207
f 210 207 206
f 212 213 209
f 212 209 208
f 214 215 211
f 214 211 210
f 216 217 179
f 216 179 178
f 218 219 213
f 218 213 212
f 220 221 215
f 220 215 214
f 222 223 217
f 222 217 216
f 224 225 219
f 224 219 218
f 226 227 221
f 226 221 220
f 228 229 223
f 228 223 222
f 103 102 225
f 103 225 224
f 173 172 227
f 173 227 226
f 177 176 229
f 177 229 228
f 175 230 231
f 175 231 176
f 232 217 223
f 232 223 233
f 101 234 235
f 101 235 102
f 236 229 176
f 236 176 237
f 238 239 240
f 238 240 241
f 242 175 183
f 242 183 243
f 207 244 245
f 207 245 246
f 247 187 191
f 247 191 248
f 249 250 251
f 249 251 203
f 252 195 199
f 252 199 253
f 229 254 255
f 229 255 223
f 249 203 207
f 249 207 246
f 225 256 257
f 225 257 219
f 258 211 215
f 258 215 259
f 260 261 262
f 260 262 263
f 264 221 227
f 264 227 260
f 199 265 266
f 199 266 253
f 263 172 171
f 263 171 238
f 252 267 268
f 252 268 195
f 241 181 185
f 241 185 269
f 217 270 271
f 217 271 179
f 272 189 193
f 272 193 273
f 213 274 275
f 213 275 209
f 169 197 201
f 169 201 166
f 259 276 277
f 259 277 264
f 278 205 209
f 278 209 279
f 191 280 281
f 191 281 248
f 282 213 219
f 282 219 283
f 247 284 285
f 247 285 187
f 286 225 102
f 286 102 287
f 205 288 289
f 205 289 201
f 290 101 179
f 290 179 291
f 249 292 293
f 249 293 253
f 278 294 167
f 278 167 166
f 246 295 292
f 246 292 249
f 279 296 294
f 279 294 278
f 258 297 295
f 258 295 246
f 282 298 296
f 282 296 279
f 259 299 297
f 259 297 258
f 232 300 301
f 232 301 291
f 283 302 298
f 283 298 282
f 264 303 299
f 264 299 259
f 233 304 300
f 233 300 232
f 286 305 302
f 286 302 283
f 260 306 303
f 260 303 264
f 236 307 304
f 236 304 233
f 287 308 305
f 287 305 286
f 263 309 306
f 263 306 260
f 237 310 307
f 237 307 236
f 290 311 308
f 290 308 287
f 238 312 309
f 238 309 263
f 242 313 310
f 242 310 237
f 291 301 311
f 291 311 290
f 241 314 312
f 241 312 238
f 243 315 313
f 243 313 242
f 269 316 314
f 269 314 241
f 247 317 315
f 247 315 243
f 272 318 316
f 272 316 269
f 248 319 317
f 248 317 247
f 273 320 318
f 273 318 272
f 252 321 319
f 252 319 248
f 169 168 320
f 169 320 273
f 253 293 321
f 253 321 252
f 100 322 323
f 100 323 178
f 322 324 325
f 322 325 323
f 324 165 134
f 324 134 325
f 103 326 322
f 103 322 100
f 326 327 324
f 326 324 322
f 327 164 165
f 327 165 324
f 224 328 326
f 224 326 103
f 328 329 327
f 328 327 326
f 329 163 164
f 329 164 327
f 218 330 328
f 218 328 224
f 330 331 329
f 330 329 328
f 331 162 163
f 331 163 329
f 212 332 330
f 212 330 218
f 332 333 331
f 332 331 330
f 333 161 162
f 333 162 331
f 208 334 332
f 208 332 212
f 334 335 333
f 334 333 332
f 335 160 161
f 335 161 333
f 204 336 334
f 204 334 208
f 336 337 335
f 336 335 334
f 337 159 160
f 337 160 335
f 200 338 336
f 200 336 204
f 338 339 337
f 338 337 336
f 339 158 159
f 339 159 337
f 196 340 338
f 196 338 200
f 340 341 339
f 340 339 338
f 341 157 158
f 341 158 339
f 192 342 340
f 192 340 196
f 342 343 341
f 342 341 340
f 343 156 157
f 343 157 341
f 188 344 342
f 188 342 192
f 344 345 343
f 344 343 342
f 345 155 156
f 345 156 343
f 184 346 344
f 184 344 188
f 346 347 345
f 346 345 344
f 347 154 155
f 347 155 345
f 180 348 346
f 180 346 184
f 348 349 347
f 348 347 346
f 349 153 154
f 349 154 347
f 170 350 348
f 170 348 180
f 350 351 349
f 350 349 348
f 351 152 153
f 351 153 349
f 173 352 350
f 173 350 170
f 352 353 351
f 352 351 350
f 353 151 152
f 353 152 351
f 226 354 352
f 226 352 173
f 354 355 353
f 354 353 352
f 355 150 151
f 355 151 353
f 220 356 354
f 220 354 226
f 356 357 355
f 356 355 354
f 357 149 150
f 357 150 355
f 214 358 356
f 214 356 220
f 358 359 357
f 358 357 356
f 359 148 149
f 359 149 357
f 210 360 358
f 210 358 214
f 360 361 359
f 360 359 358
f 361 147 148
f 361 148 359
f 206 362 360
f 206 360 210
f 362 363 361
f 362 361 360
f 363 146 147
f 363 147 361
f 202 364 362
f 202 362 206
f 364 365 363
f 364 363 362
f 365 145 146
f 365 146 363
f 198 366 364
f 198 364 202
f 366 367 365
f 366 365 364
f 367 144 145
f 367 145 365
f 194 368 366
f 194 366 198
f 368 369 367
f 368 367 366
f 369 143 144
f 369 144 367
f 190 370 368
f 190 368 194
f 370 371 369
f 370 369 368
f 371 142 143
f 371 143 369
f 186 372 370
f 186 370 190
f 372 373 371
f 372 371 370
f 373 141 142
f 373 142 371
f 182 374 372
f 182 372 186
f 374 375 373
f 374 373 372
f 375 140 141
f 375 141 373
f 174 376 374
f 174 374 182
f 376 377 375
f 376 375 374
f 377 139 140
f 377 140 375
f 177 378 376
f 177 376 174
f 378 379 377
f 378 377 376
f 379 138 139
f 379 139 377
f 228 380 378
f 228 378 177
f 380 381 379
f 380 379 378
f 381 137 138
f 381 138 379
f 222 382 380
f 222 380 228
f 382 383 381
f 382 381 380
f 383 136 137
f 383 137 381
f 216 384 382
f 216 382 222
f 384 385 383
f 384 383 382
f 385 135 136
f 385 136 383
f 178 323 384
f 178 384 216
f 323 325 385
f 323 385 384
f 325 134 135
f 325 135 385
f 34 37 386
f 34 386 387
f 37 39 388
f 37 388 386
f 39 41 389
f 39 389 388
f 41 43 390
f 41 390 389
f 43 45 391
f 43 391 390
f 45 47 392
f 45 392 391
f 47 49 393
f 47 393 392
f 49 51 394
f 49 394 393
f 51 53 395
f 51 395 394
f 53 55 396
f 53 396 395
f 55 57 397
f 55 397 396
f 57 59 398
f 57 398 397
f 59 61 399
f 59 399 398
f 61 63 400
f 61 400 399
f 63 65 401
f 63 401 400
f 65 67 402
f 65 402 401
f 67 69 403
f 67 403 402
f 69 71 404
f 69 404 403
f 71 73 405
f 71 405 404
f 73 75 406
f 73 406 405
f 75 77 407
f 75 407 406
f 77 79 408
f 77 408 407
f 79 81 409
f 79 409 408
f 81 83 410
f 81 410 409
f 83 85 411
f 83 411 410
f 85 87 412
f 85 412 411
f 87 89 413
f 87 413 412
f 89 91 414
f 89 414 413
f 91 93 415
f 91 415 414
f 93 95 416
f 93 416 415
f 95 97 417
f 95 417 416
f 97 34 387
f 97 387 417
f 34 387 386
f 34 386 37
f 37 386 388
f 37 388 39
f 39 388 389
f 39 389 41
f 41 389 390
f 41 390 43
f 43 390 391
f 43 391 45
f 45 391 392
f 45 392 47
f 47 392 393
f 47 393 49
f 49 393 394
f 49 394 51
f 51 394 395
f 51 395 53
f 53 395 396
f 53 396 55
f 55 396 397
f 55 397 57
f 57 397 398
f 57 398 59
f 59 398 399
f 59 399 61
f 61 399 400
f 61 400 63
f 63 400 401
f 63 401 65
f 65 401 402
f 65 402 67
f 67 402 403
f 67 403 69
f 69 403 404
f 69 404 71
f 71 404 405
f 71 405 73
f 73 405 406
f 73 406 75
f 75 406 407
f 75 407 77
f 77 407 408
f 77 408 79
f 79 408 409
f 79 409 81
f 81 409 410
f 81 410 83
f 83 410 411
f 83 411 85
f 85 411 412
f 85 412 87
f 87 412 413
f 87 413 89
f 89 413 414
f 89 414 91
f 91 414 415
f 91 415 93
f 93 415 416
f 93 416 95
f 405 404 418
f 405 418 419
f 95 416 417
f 95 417 97
f 97 417 387
f 97 387 34
f 420 421 422
f 420 422 423
f 414 413 424
f 414 424 425
f 392 391 426
f 392 426 427
f 401 400 428
f 401 428 429
f 410 409 430
f 410 430 431
f 388 386 432
f 388 432 433
f 397 396 434
f 397 434 435
f 406 405 419
f 406 419 436
f 415 414 425
f 415 425 437
f 393 392 427
f 393 427 438
f 402 401 429
f 402 429 439
f 411 410 431
f 411 431 440
f 389 388 433
f 389 433 441
f 398 397 435
f 398 435 442
f 407 406 436
f 407 436 443
f 416 415 437
f 416 437 444
f 394 393 438
f 394 438 445
f 403 402 439
f 403 439 446
f 412 411 440
f 412 440 447
f 390 389 441
f 390 441 448
f 399 398 442
f 399 442 449
f 408 407 443
f 408 443 450
f 417 416 444
f 417 444 451
f 395 394 445
f 395 445 452
f 404 403 446
f 404 446 418
f 413 412 447
f 413 447 424
f 391 390 448
f 391 448 426
f 400 399 449
f 400 449 428
f 409 408 450
f 409 450 430
f 386 387 453
f 386 453 432
f 387 417 451
f 387 451 453
f 396 395 452
f 396 452 434
f 454 455 432
f 454 432 453
f 455 456 433
f 455 433 432
f 456 457 441
f 456 441 433
f 457 458 448
f 457 448 441
f 458 459 426
f 458 426 448
f 459 460 427
f 459 427 426
f 460 461 438
f 460 438 427
f 461 462 445
f 461 445 438
f 462 463 452
f 462 452 445
f 463 464 434
f 463 434 452
f 464 465 435
f 464 435 434
f 465 466 442
f 465 442 435
f 466 467 449
f 466 449 442
f 467 468 428
f 467 428 449
f 468 469 429
f 468 429 428
f 469 470 439
f 469 439 429
f 470 471 446
f 470 446 439
f 471 472 418
f 471 418 446
f 472 473 419
f 472 419 418
f 473 474 436
f 473 436 419
f 474 475 443
f 474 443 436
f 475 476 450
f 475 450 443
f 476 477 430
f 476 430 450
f 477 478 431
f 477 431 430
f 478 479 440
f 478 440 431
f 479 480 447
f 479 447 440
f 480 481 424
f 480 424 447
f 481 482 425
f 481 425 424
f 482 483 437
f 482 437 425
f 483 484 444
f 483 444 437
f 484 485 451
f 484 451 444
f 485 454 453
f 485 453 451
f 486 487 488
f 486 488 489
f 490 491 492
f 490 492 493
f 494 495 496
f 494 496 497
f 498 420 423
f 498 423 499
f 500 490 493
f 500 493 501
f 502 494 497
f 502 497 503
f 504 500 501
f 504 501 505
f 506 502 503
f 506 503 507
f 508 504 505
f 508 505 509
f 510 506 507
f 510 507 511
f 512 508 509
f 512 509 513
f 514 510 511
f 514 511 515
f 516 512 513
f 516 513 517
f 518 514 515
f 518 515 519
f 520 516 517
f 520 517 521
f 522 518 519
f 522 519 523
f 524 520 521
f 524 521 525
f 526 522 523
f 526 523 527
f 528 524 525
f 528 525 529
f 530 526 527
f 530 527 531
f 532 528 529
f 532 529 533
f 534 530 531
f 534 531 535
f 536 498 499
f 536 499 537
f 538 532 533
f 538 533 539
f 540 534 535
f 540 535 541
f 542 536 537
f 542 537 543
f 544 538 539
f 544 539 545
f 546 540 541
f 546 541 547
f 548 542 543
f 548 543 549
f 421 544 545
f 421 545 422
f 491 546 547
f 491 547 492
f 495 548 549
f 495 549 496
f 550 551 537
f 550 537 499
f 551 552 543
f 551 543 537
f 552 553 549
f 552 549 543
f 553 554 496
f 553 496 549
f 554 555 497
f 554 497 496
f 555 556 503
f 555 503 497
f 556 557 507
f 556 507 503
f 557 558 511
f 557 511 507
f 558 559 515
f 558 515 511
f 559 560 519
f 559 519 515
f 560 561 523
f 560 523 519
f 561 562 527
f 561 527 523
f 562 563 531
f 562 531 527
f 563 564 535
f 563 535 531
f 564 565 541
f 564 541 535
f 565 566 547
f 565 547 541
f 566 567 492
f 566 492 547
f 567 568 493
f 567 493 492
f 568 569 501
f 568 501 493
f 569 570 505
f 569 505 501
f 570 571 509
f 570 509 505
f 571 572 513
f 571 513 509
f 572 487 517
f 572 517 513
f 487 486 521
f 487 521 517
f 486 573 525
f 486 525 521
f 573 574 529
f 573 529 525
f 574 575 533
f 574 533 529
f 575 576 539
f 575 539 533
f 576 577 545
f 576 545 539
f 577 578 422
f 577 422 545
f 578 579 423
f 578 423 422
f 579 550 499
f 579 499 423
f 561 560 580
f 561 580 581
f 573 486 489
f 573 489 582
f 562 561 581
f 562 581 583
f 574 573 582
f 574 582 584
f 563 562 583
f 563 583 585
f 575 574 584
f 575 584 586
f 564 563 585
f 564 585 587
f 551 550 588
f 551 588 589
f 576 575 586
f 576 586 590
f 565 564 587
f 565 587 591
f 552 551 589
f 552 589 592
f 577 576 590
f 577 590 593
f 566 565 591
f 566 591 594
f 553 552 592
f 553 592 595
f 578 577 593
f 578 593 596
f 567 566 594
f 567 594 597
f 554 553 595
f 554 595 598
f 579 578 596
f 579 596 599
f 568 567 597
f 568 597 600
f 555 554 598
f 555 598 601
f 550 579 599
f 550 599 588
f 569 568 600
f 569 600 602
f 556 555 601
f 556 601 603
f 570 569 602
f 570 602 604
f 557 556 603
f 557 603 605
f 571 570 604
f 571 604 606
f 558 557 605
f 558 605 607
f 572 571 606
f 572 606 608
f 559 558 607
f 559 607 609
f 487 572 608
f 487 608 488
f 560 559 609
f 560 609 580
f 420 498 610
f 420 610 611
f 611 610 612
f 611 612 613
f 613 612 454
f 613 454 485
f 421 420 611
f 421 611 614
f 614 611 613
f 614 613 615
f 615 613 485
f 615 485 484
f 544 421 614
f 544 614 616
f 616 614 615
f 616 615 617
f 617 615 484
f 617 484 483
f 538 544 616
f 538 616 618
f 618 616 617
f 618 617 619
f 619 617 483
f 619 483 482
f 532 538 618
f 532 618 620
f 620 618 619
f 620 619 621
f 621 619 482
f 621 482 481
f 528 532 620
f 528 620 622
f 622 620 621
f 622 621 623
f 623 621 481
f 623 481 480
f 524 528 622
f 524 622 624
f 624 622 623
f 624 623 625
f 625 623 480
f 625 480 479
f 520 524 624
f 520 624 626
f 626 624 625
f 626 625 627
f 627 625 479
f 627 479 478
f 516 520 626
f 516 626 628
f 628 626 627
f 628 627 629
f 629 627 478
f 629 478 477
f 512 516 628
f 512 628 630
f 630 628 629
f 630 629 631
f 631 629 477
f 631 477 476
f 508 512 630
f 508 630 632
f 632 630 631
f 632 631 633
f 633 631 476
f 633 476 475
f 504 508 632
f 504 632 634
f 634 632 633
f 634 633 635
f 635 633 475
f 635 475 474
f 500 504 634
f 500 634 636
f 636 634 635
f 636 635 637
f 637 635 474
f 637 474 473
f 490 500 636
f 490 636 638
f 638 636 637
f 638 637 639
f 639 637 473
f 639 473 472
f 491 490 638
f 491 638 640
f 640 638 639
f 640 639 641
f 641 639 472
f 641 472 471
f 546 491 640
f 546 640 642
f 642 640 641
f 642 641 643
f 643 641 471
f 643 471 470
f 540 546 642
f 540 642 644
f 644 642 643
f 644 643 645
f 645 643 470
f 645 470 469
f 534 540 644
f 534 644 646
f 646 644 645
f 646 645 647
f 647 645 469
f 647 469 468
f 530 534 646
f 530 646 648
f 648 646 647
f 648 647 649
f 649 647 468
f 649 468 467
f 526 530 648
f 526 648 650
f 650 648 649
f 650 649 651
f 651 649 467
f 651 467 466
f 522 526 650
f 522 650 652
f 652 650 651
f 652 651 653
f 653 651 466
f 653 466 465
f 518 522 652
f 518 652 654
f 654 652 653
f 654 653 655
f 655 653 465
f 655 465 464
f 514 518 654
f 514 654 656
f 656 654 655
f 656 655 657
f 657 655 464
f 657 464 463
f 510 514 656
f 510 656 658
f 658 656 657
f 658 657 659
f 659 657 463
f 659 463 462
f 506 510 658
f 506 658 660
f 660 658 659
f 660 659 661
f 661 659 462
f 661 462 461
f 502 506 660
f 502 660 662
f 662 660 661
f 662 661 663
f 663 661 461
f 663 461 460
f 494 502 662
f 494 662 664
f 664 662 663
f 664 663 665
f 665 663 460
f 665 460 459
f 495 494 664
f 495 664 666
f 666 664 665
f 666 665 667
f 667 665 459
f 667 459 458
f 548 495 666
f 548 666 668
f 668 666 667
f 668 667 669
f 669 667 458
f 669 458 457
f 542 548 668
f 542 668 670
f 670 668 669
f 670 669 671
f 671 669 457
f 671 457 456
f 536 542 670
f 536 670 672
f 672 670 671
f 672 671 673
f 673 671 456
f 673 456 455
f 498 536 672
f 498 672 610
f 610 672 673
f 610 673 612
f 612 673 455
f 612 455 454
f 3 301 300
f 3 300 1
f 1 300 304
f 1 304 8
f 8 304 307
f 8 307 11
f 11 307 310
f 11 310 14
f 14 310 313
f 14 313 17
f 17 313 315
f 17 315 19
f 19 315 317
f 19 317 21
f 21 317 319
f 21 319 23
f 23 319 321
f 23 321 25
f 25 321 293
f 25 293 27
f 27 293 292
f 27 292 29
f 29 292 295
f 29 295 31
f 31 295 297
f 31 297 33
f 33 297 299
f 33 299 7
f 7 299 303
f 7 303 6
f 6 303 306
f 6 306 10
f 10 306 309
f 10 309 13
f 13 309 312
f 13 312 16
f 16 312 314
f 16 314 18
f 18 314 316
f 18 316 20
f 20 316 318
f 20 318 22
f 22 318 320
f 22 320 24
f 24 320 168
f 24 168 26
f 26 168 167
f 26 167 28
f 28 167 294
f 28 294 30
f 30 294 296
f 30 296 32
f 32 296 298
f 32 298 5
f 5 298 302
f 5 302 4
f 4 302 305
f 4 305 9
f 9 305 308
f 9 308 12
f 12 308 311
f 12 311 15
f 15 311 301
f 15 301 3
f 185 674 675
f 185 675 269
f 241 240 676
f 241 676 181
f 203 251 265
f 203 265 199
f 166 677 678
f 166 678 278
f 171 679 239
f 171 239 238
f 263 262 680
f 263 680 172
f 195 268 280
f 195 280 191
f 273 681 682
f 273 682 169
f 227 683 261
f 227 261 260
f 264 277 684
f 264 684 221
f 187 285 685
f 187 685 183
f 269 675 686
f 269 686 272
f 215 687 276
f 215 276 259
f 258 688 689
f 258 689 211
f 690 235 234
f 690 234 691
f 692 257 256
f 692 256 693
f 694 275 274
f 694 274 695
f 677 289 288
f 677 288 678
f 681 696 697
f 681 697 682
f 675 674 698
f 675 698 686
f 239 679 676
f 239 676 240
f 261 683 680
f 261 680 262
f 276 687 684
f 276 684 277
f 245 244 689
f 245 689 688
f 266 265 251
f 266 251 250
f 281 280 268
f 281 268 267
f 699 685 285
f 699 285 284
f 700 231 230
f 700 230 701
f 702 255 254
f 702 254 703
f 704 271 270
f 704 270 705
f 279 694 695
f 279 695 282
f 291 704 705
f 291 705 232
f 211 689 244
f 211 244 207
f 272 686 698
f 272 698 189
f 193 696 681
f 193 681 273
f 283 692 693
f 283 693 286
f 233 702 703
f 233 703 236
f 221 684 687
f 221 687 215
f 169 682 697
f 169 697 197
f 201 289 677
f 201 677 166
f 287 690 691
f 287 691 290
f 237 700 701
f 237 701 242
f 172 680 683
f 172 683 227
f 278 678 288
f 278 288 205
f 209 275 694
f 209 694 279
f 179 271 704
f 179 704 291
f 243 699 284
f 243 284 247
f 181 676 679
f 181 679 171
f 282 695 274
f 282 274 213
f 232 705 270
f 232 270 217
f 219 257 692
f 219 692 283
f 223 255 702
f 223 702 233
f 248 281 267
f 248 267 252
f 189 698 674
f 189 674 185
f 286 693 256
f 286 256 225
f 236 703 254
f 236 254 229
f 102 235 690
f 102 690 287
f 176 231 700
f 176 700 237
f 253 266 250
f 253 250 249
f 197 697 696
f 197 696 193
f 290 691 234
f 290 234 101
f 242 701 230
f 242 230 175
f 183 685 699
f 183 699 243
f 246 245 688
f 246 688 258
f 80 84 82
f 84 80 78
f 84 78 86
f 86 78 76
f 86 76 88
f 88 76 74
f 88 74 90
f 90 74 72
f 90 72 92
f 92 72 70
f 92 70 94
f 94 70 68
f 94 68 96
f 96 68 66
f 96 66 35
f 35 66 64
f 35 64 36
f 36 64 62
f 36 62 38
f 38 62 60
f 38 60 40
f 40 60 58
f 40 58 42
f 42 58 56
f 42 56 44
f 44 56 54
f 44 54 46
f 46 54 48
f 48 54 52
f 48 52 50
f 411 409 410
f 409 411 408
f 408 411 412
f 408 412 407
f 407 412 413
f 407 413 406
f 406 413 414
f 406 414 405
f 405 414 415
f 405 415 404
f 404 415 416
f 404 416 403
f 403 416 417
f 403 417 402
f 402 417 387
f 402 387 401
f 401 387 386
f 401 386 400
f 400 386 388
f 400 388 399
f 399 388 389
f 399 389 398
f 398 389 390
f 398 390 391
f 398 391 397
f 397 391 392
f 397 392 396
f 396 392 393
f 396 393 395
f 395 393 394
f 488 582 489
f 582 488 608
f 582 608 584
f 584 608 606
f 584 606 586
f 586 606 604
f 586 604 590
f 590 604 602
f 590 602 593
f 593 602 600
f 593 600 596
f 596 600 597
f 596 597 599
f 599 597 594
f 599 594 588
f 588 594 589
f 589 594 591
f 589 591 592
f 592 591 587
f 592 587 595
f 595 587 585
f 595 585 598
f 598 585 583
f 598 583 601
f 601 583 581
f 601 581 580
f 601 580 603
f 603 580 609
f 603 609 605
f 605 609 607

