# https://github.com/mikedh/trimesh
v 0.38761020 0.03255349 -0.01506235
v 0.38761020 0.03332173 -0.00726249
v 0.46068382 0.00000268 0.00000284
v 0.38761020 0.02161198 0.02100656
v 0.38761020 0.01555401 0.02597807
v 0.38761020 -0.04586757 -0.01506235
v 0.38761020 -0.04359252 -0.02256229
v 0.38761020 0.03027844 -0.02256205
v 0.38761020 0.02658402 0.01494811
v 0.38761020 -0.04663575 -0.00726297
v 0.38761020 0.02658408 -0.02947380
v 0.38761020 0.03027844 0.00803612
v 0.38761020 -0.04586757 0.00053642
v 0.38761020 0.02161210 -0.03553226
v 0.38761020 0.03255361 0.00053594
v 0.38761020 -0.04359252 0.00803635
v 0.38761020 0.01555377 -0.04050424
v 0.38761020 -0.03989810 0.01494811
v 0.38761020 0.00864219 -0.04419853
v 0.38761020 -0.03492618 0.02100632
v 0.38761020 0.00114250 -0.04647352
v 0.38761020 -0.02886797 0.02597831
v 0.38761020 -0.00665713 -0.04724171
v 0.38761020 -0.02195621 0.02967260
v 0.38761020 -0.01445652 -0.04647352
v 0.38761020 -0.01445652 0.03194759
v 0.38761020 -0.02195621 -0.04419853
v 0.38761020 -0.00665707 0.03271578
v 0.38761020 -0.02886808 -0.04050400
v 0.38761020 0.00114244 0.03194759
v 0.38761020 -0.03492624 -0.03553226
v 0.38761020 0.00864237 0.02967260
v 0.38761020 -0.03989810 -0.02947380
v -0.02545619 0.70780569 0.00000284
v -0.02545619 0.69420534 -0.13808276
v 0.21009302 0.69420534 -0.13808276
v 0.21009302 0.70780569 0.00000284
v -0.02545619 0.65392738 -0.27086165
v 0.21009302 0.65392738 -0.27086165
v -0.02545619 0.58851939 -0.39323141
v 0.21009302 0.58851939 -0.39323141
v -0.02545619 0.50049501 -0.50048949
v 0.21009302 0.50049501 -0.50048949
v -0.02545619 0.39323693 -0.58851387
v 0.21009302 0.39323693 -0.58851387
v -0.02545619 0.27086716 -0.65392186
v 0.21009302 0.27086716 -0.65392186
v -0.02545619 0.13808816 -0.69420006
v 0.21009302 0.13808816 -0.69420006
v -0.02545619 0.00000268 -0.70780017
v 0.21009302 0.00000268 -0.70780017
v -0.02545619 -0.13808281 -0.69420006
v 0.21009302 -0.13808281 -0.69420006
v -0.02545619 -0.27086181 -0.65392186
v 0.21009302 -0.27086181 -0.65392186
v -0.02545619 -0.39323164 -0.58851387
v 0.21009302 -0.39323164 -0.58851387
v -0.02545619 -0.50048972 -0.50048949
v 0.21009302 -0.50048972 -0.50048949
v -0.02545619 -0.58851415 -0.39323141
v 0.21009302 -0.58851415 -0.39323141
v -0.02545619 -0.65392221 -0.27086165
v 0.21009302 -0.65392221 -0.27086165
v -0.02545619 -0.69420022 -0.13808253
v 0.21009302 -0.69420022 -0.13808253
v -0.02545619 -0.70780045 0.00000308
v 0.21009302 -0.70780045 0.00000308
v -0.02545619 -0.69420010 0.13808868
v 0.21009302 -0.69420010 0.13808868
v -0.02545619 -0.65392203 0.27086757
v 0.21009302 -0.65392203 0.27086757
v -0.02545619 -0.58851386 0.39323733
v 0.21009302 -0.58851386 0.39323733
v -0.02545619 -0.50048942 0.50049565
v 0.21009302 -0.50048942 0.50049565
v -0.02545619 -0.39323125 0.58851979
v 0.21009302 -0.39323125 0.58851979
v -0.02545619 -0.27086133 0.65392802
v 0.21009302 -0.27086133 0.65392802
v -0.02545619 -0.13808233 0.69420598
v 0.21009302 -0.13808233 0.69420598
v -0.02545619 0.00000327 0.70780585
v 0.21009302 0.00000327 0.70780585
v -0.02545619 0.13808888 0.69420550
v 0.21009302 0.13808888 0.69420550
v -0.02545619 0.27086788 0.65392754
v 0.21009302 0.27086788 0.65392754
v -0.02545619 0.39323764 0.58851931
v 0.21009302 0.39323764 0.58851931
v -0.02545619 0.50049549 0.50049470
v 0.21009302 0.50049549 0.50049470
v -0.02545619 0.58851987 0.39323638
v 0.21009302 0.58851987 0.39323638
v -0.02545619 0.65392774 0.27086661
v 0.21009302 0.65392774 0.27086661
v -0.02545619 0.69420558 0.13808725
v 0.21009302 0.69420558 0.13808725
v 0.38322783 -0.65392203 0.27086757
v 0.38322783 -0.58851386 0.39323733
v 0.38322783 0.40176314 0.07991717
v 0.38322783 0.37845283 0.15676139
v 0.22095180 0.37845283 0.15676139
v 0.22095180 0.40176314 0.07991717
v 0.38322783 0.39323764 0.58851931
v 0.38322783 0.50049549 0.50049470
v 0.38322783 0.39323693 -0.58851387
v 0.38322783 0.27086716 -0.65392186
v 0.38322783 -0.65392221 -0.27086165
v 0.38322783 -0.69420022 -0.13808253
v 0.38322783 -0.13808233 0.69420598
v 0.38322783 0.00000327 0.70780585
v 0.38322783 0.69420534 -0.13808276
v 0.38322783 0.65392738 -0.27086165
v 0.38322783 -0.27086181 -0.65392186
v 0.38322783 -0.39323164 -0.58851387
v 0.38322783 -0.50048942 0.50049565
v 0.38322783 0.58851987 0.39323638
v 0.38322783 0.13808816 -0.69420006
v 0.38322783 -0.70780045 0.00000308
v 0.38322783 0.13808888 0.69420550
v 0.38322783 0.58851939 -0.39323141
v 0.38322783 -0.50048972 -0.50048949
v 0.38322783 -0.39323125 0.58851979
v 0.38322783 0.65392774 0.27086661
v 0.38322783 0.00000268 -0.70780017
v 0.38322783 -0.69420010 0.13808868
v 0.38322783 0.27086788 0.65392754
v 0.38322783 0.50049501 -0.50048949
v 0.38322783 -0.58851415 -0.39323141
v 0.38322783 -0.27086133 0.65392802
v 0.38322783 0.69420558 0.13808725
v 0.38322783 -0.13808287 -0.69420006
v 0.38322783 0.70780569 0.00000284
v 0.43661165 0.63326269 0.00000284
v 0.43661165 0.62109476 -0.12354018
v 0.43661165 0.58505862 -0.24233534
v 0.43661165 0.52653914 -0.35181763
v 0.43661165 0.44778519 -0.44777968
v 0.43661165 0.35182303 -0.52653386
v 0.43661165 0.24234074 -0.58505323
v 0.43661165 0.12354552 -0.62108924
v 0.43661165 0.00000262 -0.63325717
v 0.43661165 -0.12354023 -0.62108948
v 0.43661165 -0.24233538 -0.58505323
v 0.43661165 -0.35181779 -0.52653386
v 0.43661165 -0.44777990 -0.44777968
v 0.43661165 -0.52653397 -0.35181763
v 0.43661165 -0.58505345 -0.24233510
v 0.43661165 -0.62108958 -0.12353995
v 0.43661165 -0.63325751 0.00000308
v 0.43661165 -0.62108946 0.12354610
v 0.43661165 -0.58505333 0.24234126
v 0.43661165 -0.52653367 0.35182355
v 0.43661165 -0.44777963 0.44778559
v 0.43661165 -0.35181746 0.52653954
v 0.43661165 -0.24233503 0.58505891
v 0.43661165 -0.12353975 0.62109540
v 0.43661165 0.00000321 0.63326285
v 0.43661165 0.12354618 0.62109492
v 0.43661165 0.24234145 0.58505891
v 0.43661165 0.35182374 0.52653907
v 0.43661165 0.44778567 0.44778464
v 0.43661165 0.52653962 0.35182259
v 0.43661165 0.58505898 0.24234031
v 0.43661165 0.62109500 0.12354467
v 0.22095180 0.00000274 0.14990018
v 0.22095180 -0.02924079 0.14701984
v 0.35178852 -0.02924073 0.14701984
v 0.35178852 0.00000274 0.14990018
v 0.38322783 -0.37844727 0.15676210
v 0.38322783 -0.40175763 0.07991813
v 0.22095180 -0.40175763 0.07991813
v 0.22095180 -0.37844727 0.15676210
v 0.38322783 0.22758156 -0.34059312
v 0.38322783 0.28965562 -0.28965022
v 0.22095180 0.28965562 -0.28965022
v 0.22095180 0.22758156 -0.34059312
v 0.38322783 0.40963393 0.00000308
v 0.22095180 0.40963393 0.00000308
v 0.38322783 -0.34059319 0.22758220
v 0.22095180 -0.34059319 0.22758220
v 0.38322783 0.15676170 -0.37844708
v 0.22095180 0.15676170 -0.37844708
v 0.38322783 -0.28965027 0.28965590
v 0.22095180 -0.28965027 0.28965590
v 0.38322783 0.07991772 -0.40175750
v 0.22095180 0.07991772 -0.40175750
v 0.38322783 -0.22757608 0.34059880
v 0.22095180 -0.22757608 0.34059880
v 0.38322783 0.00000256 -0.40962841
v 0.22095180 0.00000256 -0.40962841
v 0.38322783 -0.15675611 0.37845300
v 0.22095180 -0.15675611 0.37845300
v 0.38322783 -0.07991249 -0.40175750
v 0.22095180 -0.07991249 -0.40175750
v 0.38322783 -0.07991213 0.40176318
v 0.22095180 -0.07991213 0.40176318
v 0.38322783 -0.15675635 -0.37844732
v 0.22095180 -0.15675635 -0.37844732
v 0.38322783 0.00000303 0.40963433
v 0.22095180 0.00000303 0.40963433
v 0.38322783 -0.22757626 -0.34059312
v 0.22095180 -0.22757626 -0.34059312
v 0.38322783 0.07991814 0.40176318
v 0.22095180 0.07991814 0.40176318
v 0.38322783 -0.28965045 -0.28965022
v 0.22095180 -0.28965045 -0.28965022
v 0.38322783 0.15676218 0.37845252
v 0.22095180 0.15676218 0.37845252
v 0.38322783 -0.34059340 -0.22757604
v 0.22095180 -0.34059340 -0.22757604
v 0.38322783 0.22758203 0.34059880
v 0.22095180 0.22758203 0.34059880
v 0.38322783 -0.37844736 -0.15675618
v 0.22095180 -0.37844736 -0.15675618
v 0.38322783 0.40176290 -0.07991221
v 0.22095180 0.40176290 -0.07991221
v 0.38322783 0.28965598 0.28965543
v 0.22095180 0.28965598 0.28965543
v 0.38322783 -0.40175772 -0.07991221
v 0.22095180 -0.40175772 -0.07991221
v 0.38322783 0.37845259 -0.15675618
v 0.22095180 0.37845259 -0.15675618
v 0.38322783 0.34059888 0.22758124
v 0.22095180 0.34059888 0.22758124
v 0.38322783 -0.40962867 0.00000284
v 0.22095180 -0.40962867 0.00000284
v 0.38322783 0.34059852 -0.22757604
v 0.22095180 0.34059852 -0.22757604
v 0.33209109 0.28965562 -0.28965022
v 0.33209109 0.22758156 -0.34059312
v 0.22095180 0.14701956 -0.02924063
v 0.22095180 0.13848960 -0.05736043
v 0.33209109 0.37845283 0.15676139
v 0.33209109 0.40176314 0.07991717
v 0.22095180 0.12463760 -0.08327558
v 0.22095180 0.10599589 -0.10599043
v 0.22095180 -0.13848430 0.05736611
v 0.22095180 -0.12463230 0.08328126
v 0.33209109 -0.12463230 0.08328126
v 0.33209109 -0.13848430 0.05736611
v 0.22095180 0.08328092 -0.12463238
v 0.22095180 0.05736583 -0.13848426
v 0.22095180 -0.10599071 -0.10599043
v 0.33209109 -0.10599071 -0.10599043
v 0.33209109 -0.28965045 -0.28965022
v 0.22095180 0.02924621 -0.14701416
v 0.22095180 0.00000262 -0.14989450
v 0.22095180 -0.08327580 -0.12463214
v 0.33209109 -0.22757626 -0.34059312
v 0.33209109 -0.08327580 -0.12463214
v 0.22095180 -0.02924091 -0.14701416
v 0.22095180 -0.05736048 -0.13848426
v 0.33209109 0.37845259 -0.15675618
v 0.33209109 0.34059852 -0.22757604
v 0.33209109 0.28965598 0.28965543
v 0.33209109 0.34059888 0.22758124
v 0.22095180 -0.12463242 -0.08327558
v 0.22095180 -0.13848430 -0.05736043
v 0.22095180 -0.14989466 0.00000284
v 0.22095180 -0.14701433 0.02924631
v 0.33209109 -0.14701433 0.02924631
v 0.33209109 -0.14989466 0.00000284
v 0.22095180 -0.14701433 -0.02924063
v 0.33209109 -0.05736048 -0.13848426
v 0.33209109 -0.15675635 -0.37844732
v 0.33209109 -0.07991249 -0.40175750
v 0.33209109 -0.02924091 -0.14701416
v 0.22095180 -0.10599059 0.10599635
v 0.33209109 0.40963393 0.00000308
v 0.33209109 0.40176290 -0.07991221
v 0.22095180 -0.08327574 0.12463782
v 0.22095180 -0.05736048 0.13848994
v 0.33209109 0.15676218 0.37845252
v 0.33209109 0.22758203 0.34059880
v 0.33209109 -0.14701433 -0.02924063
v 0.33209109 -0.13848430 -0.05736043
v 0.22095180 0.02924627 0.14701984
v 0.22095180 0.05736607 0.13848970
v 0.33209109 0.00000262 -0.14989450
v 0.33209109 0.00000256 -0.40962841
v 0.22095180 0.08328121 0.12463782
v 0.22095180 0.10599595 0.10599611
v 0.33209109 0.07991772 -0.40175750
v 0.33209109 0.02924621 -0.14701416
v 0.22095180 0.12463766 0.08328102
v 0.22095180 0.13848966 0.05736587
v 0.33209109 0.00000303 0.40963433
v 0.33209109 0.07991814 0.40176318
v 0.22095180 0.14701968 0.02924583
v 0.22095180 0.14989989 0.00000308
v 0.35178852 -0.05736048 -0.13848426
v 0.35178852 -0.08327580 -0.12463214
v 0.35178852 0.02924627 0.14701984
v 0.35178852 -0.10599071 -0.10599043
v 0.35178852 0.05736607 0.13848970
v 0.35178852 -0.12463242 -0.08327558
v 0.35178852 0.08328121 0.12463782
v 0.35178852 -0.13848430 -0.05736043
v 0.35178852 0.14989989 0.00000308
v 0.35178852 0.14701962 -0.02924063
v 0.35178852 0.10599595 0.10599611
v 0.35178852 -0.14701433 -0.02924063
v 0.35178852 0.13848960 -0.05736043
v 0.35178852 0.12463772 0.08328102
v 0.35178852 -0.14989460 0.00000284
v 0.35178852 0.12463760 -0.08327558
v 0.35178852 0.13848966 0.05736587
v 0.35178852 -0.14701433 0.02924631
v 0.35178852 0.10599595 -0.10599043
v 0.35178852 0.14701974 0.02924583
v 0.35178852 -0.13848430 0.05736611
v 0.35178852 0.08328098 -0.12463238
v 0.35178852 -0.12463230 0.08328126
v 0.35178852 0.05736583 -0.13848426
v 0.35178852 -0.10599059 0.10599635
v 0.35178852 0.02924621 -0.14701416
v 0.35178852 -0.08327574 0.12463782
v 0.35178852 0.00000262 -0.14989450
v 0.35178852 -0.05736042 0.13848994
v 0.35178852 -0.02924091 -0.14701416
v 0.43661165 0.48417693 0.00000284
v 0.43661165 0.47487372 0.09445975
v 0.45521951 0.55871981 0.00000284
v 0.45521951 0.54798442 0.10900233
v 0.43661165 0.44732147 0.18528769
v 0.45521951 0.51619034 0.21381400
v 0.43661165 0.40257912 0.26899503
v 0.45521951 0.46455937 0.31040881
v 0.43661165 0.34236580 0.34236548
v 0.45521951 0.39507573 0.39507506
v 0.43661165 0.26899594 0.40257857
v 0.45521951 0.31040984 0.46455882
v 0.43661165 0.18528860 0.44732116
v 0.45521951 0.21381503 0.51618979
v 0.43661165 0.09446078 0.47487376
v 0.45521951 0.10900348 0.54798434
v 0.43661165 0.00000309 0.48417733
v 0.45521951 0.00000315 0.55871985
v 0.43661165 -0.09445471 0.47487376
v 0.45521951 -0.10899723 0.54798434
v 0.43661165 -0.18528241 0.44732163
v 0.45521951 -0.21380872 0.51619027
v 0.43661165 -0.26898987 0.40257905
v 0.45521951 -0.31040368 0.46455930
v 0.43661165 -0.34236006 0.34236596
v 0.45521951 -0.39506984 0.39507602
v 0.43661165 -0.40257335 0.26899598
v 0.45521951 -0.46455351 0.31040976
v 0.43661165 -0.44731597 0.18528865
v 0.45521951 -0.51618463 0.21381495
v 0.43661165 -0.47486824 0.09446070
v 0.45521951 -0.54797888 0.10900328
v 0.43661165 -0.48417160 0.00000308
v 0.45521951 -0.55871457 0.00000308
v 0.43661165 -0.47486836 -0.09445479
v 0.45521951 -0.54797900 -0.10899737
v 0.43661165 -0.44731606 -0.18528249
v 0.45521951 -0.51618475 -0.21380880
v 0.43661165 -0.40257359 -0.26898982
v 0.45521951 -0.46455378 -0.31040384
v 0.43661165 -0.34236026 -0.34236004
v 0.45521951 -0.39507008 -0.39506986
v 0.43661165 -0.26899010 -0.40257337
v 0.45521951 -0.31040395 -0.46455362
v 0.43661165 -0.18528271 -0.44731595
v 0.45521951 -0.21380908 -0.51618459
v 0.43661165 -0.09445507 -0.47486808
v 0.45521951 -0.10899765 -0.54797866
v 0.43661165 0.00000262 -0.48417141
v 0.45521951 0.00000262 -0.55871441
v 0.43661165 0.09446030 -0.47486808
v 0.45521951 0.10900288 -0.54797866
v 0.43661165 0.18528807 -0.44731595
v 0.45521951 0.21381443 -0.51618459
v 0.43661165 0.26899534 -0.40257337
v 0.45521951 0.31040912 -0.46455362
v 0.43661165 0.34236544 -0.34236004
v 0.45521951 0.39507526 -0.39506986
v 0.43661165 0.40257865 -0.26899006
v 0.45521951 0.46455889 -0.31040384
v 0.43661165 0.44732123 -0.18528273
v 0.45521951 0.51618987 -0.21380903
v 0.43661165 0.47487360 -0.09445479
v 0.45521951 0.54798418 -0.10899737
v -0.26100540 0.70780569 0.00000284
v -0.26100540 0.69420534 -0.13808276
v -0.26100540 0.65392738 -0.27086165
v -0.26100540 0.58851939 -0.39323141
v -0.26100540 0.50049501 -0.50048949
v -0.26100540 0.39323693 -0.58851387
v -0.26100540 0.27086716 -0.65392186
v -0.26100540 0.13808816 -0.69420006
v -0.26100540 0.00000268 -0.70780017
v -0.26100540 -0.13808281 -0.69420006
v -0.26100540 -0.27086181 -0.65392186
v -0.26100540 -0.39323164 -0.58851387
v -0.26100540 -0.50048972 -0.50048949
v -0.26100540 -0.58851415 -0.39323141
v -0.26100540 -0.65392221 -0.27086165
v -0.26100540 -0.69420022 -0.13808253
v -0.26100540 -0.70780045 0.00000308
v -0.26100540 -0.69420010 0.13808868
v -0.26100540 -0.65392203 0.27086757
v -0.26100540 -0.58851386 0.39323733
v -0.26100540 -0.50048942 0.50049565
v -0.26100540 -0.39323125 0.58851979
v -0.26100540 -0.27086133 0.65392802
v -0.26100540 -0.13808233 0.69420598
v -0.26100540 0.00000327 0.70780585
v -0.26100540 0.13808888 0.69420550
v -0.26100540 0.27086788 0.65392754
v -0.26100540 0.39323764 0.58851931
v -0.26100540 0.50049549 0.50049470
v -0.26100540 0.58851987 0.39323638
v -0.26100540 0.65392774 0.27086661
v -0.26100540 0.69420558 0.13808725
v -0.43414008 -0.58851386 0.39323733
v -0.43414008 -0.65392203 0.27086757
v -0.43414008 0.40176314 0.07991717
v -0.27186417 0.40176314 0.07991717
v -0.27186417 0.37845283 0.15676139
v -0.43414008 0.37845283 0.15676139
v -0.43414008 0.50049549 0.50049470
v -0.43414008 0.39323764 0.58851931
v -0.43414008 0.27086716 -0.65392186
v -0.43414008 0.39323693 -0.58851387
v -0.43414008 -0.69420022 -0.13808253
v -0.43414008 -0.65392221 -0.27086165
v -0.43414008 0.00000327 0.70780585
v -0.43414008 -0.13808233 0.69420598
v -0.43414008 0.65392738 -0.27086165
v -0.43414008 0.69420534 -0.13808276
v -0.43414008 -0.39323164 -0.58851387
v -0.43414008 -0.27086181 -0.65392186
v -0.43414008 -0.50048942 0.50049565
v -0.43414008 0.58851987 0.39323638
v -0.43414008 0.13808816 -0.69420006
v -0.43414008 -0.70780045 0.00000308
v -0.43414008 0.13808888 0.69420550
v -0.43414008 0.58851939 -0.39323141
v -0.43414008 -0.50048972 -0.50048949
v -0.43414008 -0.39323125 0.58851979
v -0.43414008 0.65392774 0.27086661
v -0.43414008 0.00000268 -0.70780017
v -0.43414008 -0.69420010 0.13808868
v -0.43414008 0.27086788 0.65392754
v -0.43414008 0.50049501 -0.50048949
v -0.43414008 -0.58851415 -0.39323141
v -0.43414008 -0.27086133 0.65392802
v -0.43414008 0.69420558 0.13808725
v -0.43414008 -0.13808287 -0.69420006
v -0.43414008 0.70780569 0.00000284
v -0.48752415 0.63326269 0.00000284
v -0.48752415 0.62109476 -0.12354018
v -0.48752415 0.58505862 -0.24233534
v -0.48752415 0.52653914 -0.35181763
v -0.48752415 0.44778519 -0.44777968
v -0.48752415 0.35182303 -0.52653386
v -0.48752415 0.24234074 -0.58505323
v -0.48752415 0.12354552 -0.62108924
v -0.48752415 0.00000262 -0.63325717
v -0.48752415 -0.12354023 -0.62108948
v -0.48752415 -0.24233538 -0.58505323
v -0.48752415 -0.35181779 -0.52653386
v -0.48752415 -0.44777990 -0.44777968
v -0.48752415 -0.52653397 -0.35181763
v -0.48752415 -0.58505345 -0.24233510
v -0.48752415 -0.62108958 -0.12353995
v -0.48752415 -0.63325751 0.00000308
v -0.48752415 -0.62108946 0.12354610
v -0.48752415 -0.58505333 0.24234126
v -0.48752415 -0.52653367 0.35182355
v -0.48752415 -0.44777963 0.44778559
v -0.48752415 -0.35181746 0.52653954
v -0.48752415 -0.24233503 0.58505891
v -0.48752415 -0.12353975 0.62109540
v -0.48752415 0.00000321 0.63326285
v -0.48752415 0.12354618 0.62109492
v -0.48752415 0.24234145 0.58505891
v -0.48752415 0.35182374 0.52653907
v -0.48752415 0.44778567 0.44778464
v -0.48752415 0.52653962 0.35182259
v -0.48752415 0.58505898 0.24234031
v -0.48752415 0.62109500 0.12354467
v -0.27186417 0.00000274 0.14990018
v -0.40270102 0.00000274 0.14990018
v -0.40270102 -0.02924073 0.14701984
v -0.27186417 -0.02924079 0.14701984
v -0.43414008 -0.37844727 0.15676210
v -0.27186417 -0.37844727 0.15676210
v -0.27186417 -0.40175763 0.07991813
v -0.43414008 -0.40175763 0.07991813
v -0.43414008 0.22758156 -0.34059312
v -0.27186417 0.22758156 -0.34059312
v -0.27186417 0.28965562 -0.28965022
v -0.43414008 0.28965562 -0.28965022
v -0.43414008 0.40963393 0.00000308
v -0.27186417 0.40963393 0.00000308
v -0.43414008 -0.34059319 0.22758220
v -0.27186417 -0.34059319 0.22758220
v -0.43414008 0.15676170 -0.37844708
v -0.27186417 0.15676170 -0.37844708
v -0.43414008 -0.28965027 0.28965590
v -0.27186417 -0.28965027 0.28965590
v -0.43414008 0.07991772 -0.40175750
v -0.27186417 0.07991772 -0.40175750
v -0.43414008 -0.22757608 0.34059880
v -0.27186417 -0.22757608 0.34059880
v -0.43414008 0.00000256 -0.40962841
v -0.27186417 0.00000256 -0.40962841
v -0.43414008 -0.15675611 0.37845300
v -0.27186417 -0.15675611 0.37845300
v -0.43414008 -0.07991249 -0.40175750
v -0.27186417 -0.07991249 -0.40175750
v -0.43414008 -0.07991213 0.40176318
v -0.27186417 -0.07991213 0.40176318
v -0.43414008 -0.15675635 -0.37844732
v -0.27186417 -0.15675635 -0.37844732
v -0.43414008 0.00000303 0.40963433
v -0.27186417 0.00000303 0.40963433
v -0.43414008 -0.22757626 -0.34059312
v -0.27186417 -0.22757626 -0.34059312
v -0.43414008 0.07991814 0.40176318
v -0.27186417 0.07991814 0.40176318
v -0.43414008 -0.28965045 -0.28965022
v -0.27186417 -0.28965045 -0.28965022
v -0.43414008 0.15676218 0.37845252
v -0.27186417 0.15676218 0.37845252
v -0.43414008 -0.34059340 -0.22757604
v -0.27186417 -0.34059340 -0.22757604
v -0.43414008 0.22758203 0.34059880
v -0.27186417 0.22758203 0.34059880
v -0.43414008 -0.37844736 -0.15675618
v -0.27186417 -0.37844736 -0.15675618
v -0.43414008 0.40176290 -0.07991221
v -0.27186417 0.40176290 -0.07991221
v -0.43414008 0.28965598 0.28965543
v -0.27186417 0.28965598 0.28965543
v -0.43414008 -0.40175772 -0.07991221
v -0.27186417 -0.40175772 -0.07991221
v -0.43414008 0.37845259 -0.15675618
v -0.27186417 0.37845259 -0.15675618
v -0.43414008 0.34059888 0.22758124
v -0.27186417 0.34059888 0.22758124
v -0.43414008 -0.40962867 0.00000284
v -0.27186417 -0.40962867 0.00000284
v -0.43414008 0.34059852 -0.22757604
v -0.27186417 0.34059852 -0.22757604
v -0.27186417 0.14989989 0.00000308
v -0.27186417 0.14701956 -0.02924063
v -0.27186417 0.13848960 -0.05736043
v -0.27186417 0.12463760 -0.08327558
v -0.27186417 0.10599589 -0.10599043
v -0.27186417 0.08328092 -0.12463238
v -0.27186417 0.05736583 -0.13848426
v -0.27186417 0.02924621 -0.14701416
v -0.27186417 0.00000262 -0.14989450
v -0.27186417 -0.02924091 -0.14701416
v -0.27186417 -0.05736048 -0.13848426
v -0.27186417 -0.08327580 -0.12463214
v -0.27186417 -0.10599071 -0.10599043
v -0.27186417 -0.12463242 -0.08327558
v -0.27186417 -0.13848430 -0.05736043
v -0.27186417 -0.14701433 -0.02924063
v -0.27186417 -0.14989466 0.00000284
v -0.27186417 -0.14701433 0.02924631
v -0.27186417 -0.13848430 0.05736611
v -0.27186417 -0.12463230 0.08328126
v -0.27186417 -0.10599059 0.10599635
v -0.27186417 -0.08327574 0.12463782
v -0.27186417 -0.05736048 0.13848994
v -0.27186417 0.02924627 0.14701984
v -0.27186417 0.05736607 0.13848970
v -0.27186417 0.08328121 0.12463782
v -0.27186417 0.10599595 0.10599611
v -0.27186417 0.12463766 0.08328102
v -0.27186417 0.13848966 0.05736587
v -0.27186417 0.14701968 0.02924583
v -0.40270102 -0.08327580 -0.12463214
v -0.40270102 -0.05736048 -0.13848426
v -0.40270102 0.02924627 0.14701984
v -0.40270102 -0.10599071 -0.10599043
v -0.40270102 0.05736607 0.13848970
v -0.40270102 -0.12463242 -0.08327558
v -0.40270102 0.08328121 0.12463782
v -0.40270102 -0.13848430 -0.05736043
v -0.40270102 0.14701962 -0.02924063
v -0.40270102 0.14989989 0.00000308
v -0.40270102 0.10599595 0.10599611
v -0.40270102 -0.14701433 -0.02924063
v -0.40270102 0.13848960 -0.05736043
v -0.40270102 0.12463772 0.08328102
v -0.40270102 -0.14989460 0.00000284
v -0.40270102 0.12463760 -0.08327558
v -0.40270102 0.13848966 0.05736587
v -0.40270102 -0.14701433 0.02924631
v -0.40270102 0.10599595 -0.10599043
v -0.40270102 0.14701974 0.02924583
v -0.40270102 -0.13848430 0.05736611
v -0.40270102 0.08328098 -0.12463238
v -0.40270102 -0.12463230 0.08328126
v -0.40270102 0.05736583 -0.13848426
v -0.40270102 -0.10599059 0.10599635
v -0.40270102 0.02924621 -0.14701416
v -0.40270102 -0.08327574 0.12463782
v -0.40270102 0.00000262 -0.14989450
v -0.40270102 -0.05736042 0.13848994
v -0.40270102 -0.02924091 -0.14701416
v -0.48752415 0.47487372 0.09445975
v -0.48752415 0.48417693 0.00000284
v -0.50613177 0.54798442 0.10900233
v -0.50613177 0.55871981 0.00000284
v -0.48752415 0.44732147 0.18528769
v -0.50613177 0.51619034 0.21381400
v -0.48752415 0.40257912 0.26899503
v -0.50613177 0.46455937 0.31040881
v -0.48752415 0.34236580 0.34236548
v -0.50613177 0.39507573 0.39507506
v -0.48752415 0.26899594 0.40257857
v -0.50613177 0.31040984 0.46455882
v -0.48752415 0.18528860 0.44732116
v -0.50613177 0.21381503 0.51618979
v -0.48752415 0.09446078 0.47487376
v -0.50613177 0.10900348 0.54798434
v -0.48752415 0.00000309 0.48417733
v -0.50613177 0.00000315 0.55871985
v -0.48752415 -0.09445471 0.47487376
v -0.50613177 -0.10899723 0.54798434
v -0.48752415 -0.18528241 0.44732163
v -0.50613177 -0.21380872 0.51619027
v -0.48752415 -0.26898987 0.40257905
v -0.50613177 -0.31040368 0.46455930
v -0.48752415 -0.34236006 0.34236596
v -0.50613177 -0.39506984 0.39507602
v -0.48752415 -0.40257335 0.26899598
v -0.50613177 -0.46455351 0.31040976
v -0.48752415 -0.44731597 0.18528865
v -0.50613177 -0.51618463 0.21381495
v -0.48752415 -0.47486824 0.09446070
v -0.50613177 -0.54797888 0.10900328
v -0.48752415 -0.48417160 0.00000308
v -0.50613177 -0.55871457 0.00000308
v -0.48752415 -0.47486836 -0.09445479
v -0.50613177 -0.54797900 -0.10899737
v -0.48752415 -0.44731606 -0.18528249
v -0.50613177 -0.51618475 -0.21380880
v -0.48752415 -0.40257359 -0.26898982
v -0.50613177 -0.46455378 -0.31040384
v -0.48752415 -0.34236026 -0.34236004
v -0.50613177 -0.39507008 -0.39506986
v -0.48752415 -0.26899010 -0.40257337
v -0.50613177 -0.31040395 -0.46455362
v -0.48752415 -0.18528271 -0.44731595
v -0.50613177 -0.21380908 -0.51618459
v -0.48752415 -0.09445507 -0.47486808
v -0.50613177 -0.10899765 -0.54797866
v -0.48752415 0.00000262 -0.48417141
v -0.50613177 0.00000262 -0.55871441
v -0.48752415 0.09446030 -0.47486808
v -0.50613177 0.10900288 -0.54797866
v -0.48752415 0.18528807 -0.44731595
v -0.50613177 0.21381443 -0.51618459
v -0.48752415 0.26899534 -0.40257337
v -0.50613177 0.31040912 -0.46455362
v -0.48752415 0.34236544 -0.34236004
v -0.50613177 0.39507526 -0.39506986
v -0.48752415 0.40257865 -0.26899006
v -0.50613177 0.46455889 -0.31040384
v -0.48752415 0.44732123 -0.18528273
v -0.50613177 0.51618987 -0.21380903
v -0.48752415 0.47487360 -0.09445479
v -0.50613177 0.54798418 -0.10899737
v 0.33209109 -0.10599059 0.10599635
v 0.33209109 -0.28965027 0.28965590
v 0.33209109 -0.34059319 0.22758220
v 0.33209109 0.02924627 0.14701984
v 0.33209109 0.00000274 0.14990018
v 0.33209109 -0.37844727 0.15676210
v 0.33209109 -0.40175763 0.07991813
v 0.33209109 -0.02924079 0.14701984
v 0.33209109 -0.05736048 0.13848994
v 0.33209109 -0.40962867 0.00000284
v 0.33209109 -0.40175772 -0.07991221
v 0.33209109 0.15676170 -0.37844708
v 0.33209109 -0.08327574 0.12463782
v 0.33209109 -0.37844736 -0.15675618
v 0.33209109 -0.34059340 -0.22757604
v 0.33209109 -0.12463242 -0.08327558
v 0.33209109 0.13848966 0.05736587
v 0.33209109 0.14701968 0.02924583
v 0.33209109 0.10599595 0.10599611
v 0.33209109 0.12463766 0.08328102
v 0.33209109 0.05736607 0.13848970
v 0.33209109 0.08328121 0.12463782
v 0.33209109 -0.07991213 0.40176318
v 0.33209109 -0.15675611 0.37845300
v 0.33209109 -0.22757608 0.34059880
v 0.33209109 0.05736583 -0.13848426
v 0.33209109 0.10599589 -0.10599043
v 0.33209109 0.08328092 -0.12463238
v 0.33209109 0.13848960 -0.05736043
v 0.33209109 0.12463760 -0.08327558
v 0.33209109 0.14989989 0.00000308
v 0.33209109 0.14701956 -0.02924063
f 1 2 3
f 4 5 3
f 6 7 3
f 8 1 3
f 9 4 3
f 10 6 3
f 11 8 3
f 12 9 3
f 13 10 3
f 14 11 3
f 15 12 3
f 16 13 3
f 17 14 3
f 2 15 3
f 18 16 3
f 19 17 3
f 20 18 3
f 21 19 3
f 22 20 3
f 23 21 3
f 24 22 3
f 25 23 3
f 26 24 3
f 27 25 3
f 28 26 3
f 29 27 3
f 30 28 3
f 31 29 3
f 32 30 3
f 33 31 3
f 5 32 3
f 7 33 3
f 34 35 36
f 34 36 37
f 35 38 39
f 35 39 36
f 38 40 41
f 38 41 39
f 40 42 43
f 40 43 41
f 42 44 45
f 42 45 43
f 44 46 47
f 44 47 45
f 46 48 49
f 46 49 47
f 48 50 51
f 48 51 49
f 50 52 53
f 50 53 51
f 52 54 55
f 52 55 53
f 54 56 57
f 54 57 55
f 56 58 59
f 56 59 57
f 58 60 61
f 58 61 59
f 60 62 63
f 60 63 61
f 62 64 65
f 62 65 63
f 64 66 67
f 64 67 65
f 66 68 69
f 66 69 67
f 68 70 71
f 68 71 69
f 70 72 73
f 70 73 71
f 72 74 75
f 72 75 73
f 74 76 77
f 74 77 75
f 76 78 79
f 76 79 77
f 78 80 81
f 78 81 79
f 80 82 83
f 80 83 81
f 82 84 85
f 82 85 83
f 84 86 87
f 84 87 85
f 86 88 89
f 86 89 87
f 88 90 91
f 88 91 89
f 90 92 93
f 90 93 91
f 92 94 95
f 92 95 93
f 94 96 97
f 94 97 95
f 96 34 37
f 96 37 97
f 34 37 36
f 34 36 35
f 35 36 39
f 35 39 38
f 38 39 41
f 38 41 40
f 40 41 43
f 40 43 42
f 42 43 45
f 42 45 44
f 44 45 47
f 44 47 46
f 46 47 49
f 46 49 48
f 48 49 51
f 48 51 50
f 50 51 53
f 50 53 52
f 52 53 55
f 52 55 54
f 54 55 57
f 54 57 56
f 56 57 59
f 56 59 58
f 58 59 61
f 58 61 60
f 60 61 63
f 60 63 62
f 62 63 65
f 62 65 64
f 64 65 67
f 64 67 66
f 66 67 69
f 66 69 68
f 68 69 71
f 68 71 70
f 70 71 73
f 70 73 72
f 72 73 75
f 72 75 74
f 74 75 77
f 74 77 76
f 76 77 79
f 76 79 78
f 78 79 81
f 78 81 80
f 80 81 83
f 80 83 82
f 82 83 85
f 82 85 84
f 84 85 87
f 84 87 86
f 86 87 89
f 86 89 88
f 88 89 91
f 88 91 90
f 90 91 93
f 90 93 92
f 92 93 95
f 92 95 94
f 73 71 98
f 73 98 99
f 94 95 97
f 94 97 96
f 96 97 37
f 96 37 34
f 100 101 102
f 100 102 103
f 91 89 104
f 91 104 105
f 47 45 106
f 47 106 107
f 65 63 108
f 65 108 109
f 83 81 110
f 83 110 111
f 39 36 112
f 39 112 113
f 57 55 114
f 57 114 115
f 75 73 99
f 75 99 116
f 93 91 105
f 93 105 117
f 49 47 107
f 49 107 118
f 67 65 109
f 67 109 119
f 85 83 111
f 85 111 120
f 41 39 113
f 41 113 121
f 59 57 115
f 59 115 122
f 77 75 116
f 77 116 123
f 95 93 117
f 95 117 124
f 51 49 118
f 51 118 125
f 69 67 119
f 69 119 126
f 87 85 120
f 87 120 127
f 43 41 121
f 43 121 128
f 61 59 122
f 61 122 129
f 79 77 123
f 79 123 130
f 97 95 124
f 97 124 131
f 53 51 125
f 53 125 132
f 71 69 126
f 71 126 98
f 89 87 127
f 89 127 104
f 45 43 128
f 45 128 106
f 63 61 129
f 63 129 108
f 81 79 130
f 81 130 110
f 36 37 133
f 36 133 112
f 37 97 131
f 37 131 133
f 55 53 132
f 55 132 114
f 134 135 112
f 134 112 133
f 135 136 113
f 135 113 112
f 136 137 121
f 136 121 113
f 137 138 128
f 137 128 121
f 138 139 106
f 138 106 128
f 139 140 107
f 139 107 106
f 140 141 118
f 140 118 107
f 141 142 125
f 141 125 118
f 142 143 132
f 142 132 125
f 143 144 114
f 143 114 132
f 144 145 115
f 144 115 114
f 145 146 122
f 145 122 115
f 146 147 129
f 146 129 122
f 147 148 108
f 147 108 129
f 148 149 109
f 148 109 108
f 149 150 119
f 149 119 109
f 150 151 126
f 150 126 119
f 151 152 98
f 151 98 126
f 152 153 99
f 152 99 98
f 153 154 116
f 153 116 99
f 154 155 123
f 154 123 116
f 155 156 130
f 155 130 123
f 156 157 110
f 156 110 130
f 157 158 111
f 157 111 110
f 158 159 120
f 158 120 111
f 159 160 127
f 159 127 120
f 160 161 104
f 160 104 127
f 161 162 105
f 161 105 104
f 162 163 117
f 162 117 105
f 163 164 124
f 163 124 117
f 164 165 131
f 164 131 124
f 165 134 133
f 165 133 131
f 166 167 168
f 166 168 169
f 170 171 172
f 170 172 173
f 174 175 176
f 174 176 177
f 178 100 103
f 178 103 179
f 180 170 173
f 180 173 181
f 182 174 177
f 182 177 183
f 184 180 181
f 184 181 185
f 186 182 183
f 186 183 187
f 188 184 185
f 188 185 189
f 190 186 187
f 190 187 191
f 192 188 189
f 192 189 193
f 194 190 191
f 194 191 195
f 196 192 193
f 196 193 197
f 198 194 195
f 198 195 199
f 200 196 197
f 200 197 201
f 202 198 199
f 202 199 203
f 204 200 201
f 204 201 205
f 206 202 203
f 206 203 207
f 208 204 205
f 208 205 209
f 210 206 207
f 210 207 211
f 212 208 209
f 212 209 213
f 214 210 211
f 214 211 215
f 216 178 179
f 216 179 217
f 218 212 213
f 218 213 219
f 220 214 215
f 220 215 221
f 222 216 217
f 222 217 223
f 224 218 219
f 224 219 225
f 226 220 221
f 226 221 227
f 228 222 223
f 228 223 229
f 101 224 225
f 101 225 102
f 171 226 227
f 171 227 172
f 175 228 229
f 175 229 176
f 177 176 230
f 177 230 231
f 232 233 223
f 232 223 217
f 103 102 234
f 103 234 235
f 236 237 176
f 236 176 229
f 238 239 240
f 238 240 241
f 242 243 183
f 242 183 177
f 207 244 245
f 207 245 246
f 247 248 191
f 247 191 187
f 249 203 250
f 249 250 251
f 252 253 199
f 252 199 195
f 229 223 254
f 229 254 255
f 249 244 207
f 249 207 203
f 225 219 256
f 225 256 257
f 258 259 215
f 258 215 211
f 260 261 262
f 260 262 263
f 264 260 227
f 264 227 221
f 199 253 265
f 199 265 266
f 261 238 173
f 261 173 172
f 252 195 267
f 252 267 268
f 239 269 185
f 239 185 181
f 217 179 270
f 217 270 271
f 272 273 193
f 272 193 189
f 213 209 274
f 213 274 275
f 167 166 201
f 167 201 197
f 259 264 276
f 259 276 277
f 278 279 209
f 278 209 205
f 191 248 280
f 191 280 281
f 282 283 219
f 282 219 213
f 247 187 284
f 247 284 285
f 286 287 102
f 286 102 225
f 205 201 288
f 205 288 289
f 290 291 179
f 290 179 103
f 249 253 292
f 249 292 293
f 278 166 169
f 278 169 294
f 244 249 293
f 244 293 295
f 279 278 294
f 279 294 296
f 258 244 295
f 258 295 297
f 282 279 296
f 282 296 298
f 259 258 297
f 259 297 299
f 232 291 300
f 232 300 301
f 283 282 298
f 283 298 302
f 264 259 299
f 264 299 303
f 233 232 301
f 233 301 304
f 286 283 302
f 286 302 305
f 260 264 303
f 260 303 306
f 236 233 304
f 236 304 307
f 287 286 305
f 287 305 308
f 261 260 306
f 261 306 309
f 237 236 307
f 237 307 310
f 290 287 308
f 290 308 311
f 238 261 309
f 238 309 312
f 242 237 310
f 242 310 313
f 291 290 311
f 291 311 300
f 239 238 312
f 239 312 314
f 243 242 313
f 243 313 315
f 269 239 314
f 269 314 316
f 247 243 315
f 247 315 317
f 272 269 316
f 272 316 318
f 248 247 317
f 248 317 319
f 273 272 318
f 273 318 320
f 252 248 319
f 252 319 321
f 167 273 320
f 167 320 168
f 253 252 321
f 253 321 292
f 100 178 322
f 100 322 323
f 323 322 324
f 323 324 325
f 325 324 134
f 325 134 165
f 101 100 323
f 101 323 326
f 326 323 325
f 326 325 327
f 327 325 165
f 327 165 164
f 224 101 326
f 224 326 328
f 328 326 327
f 328 327 329
f 329 327 164
f 329 164 163
f 218 224 328
f 218 328 330
f 330 328 329
f 330 329 331
f 331 329 163
f 331 163 162
f 212 218 330
f 212 330 332
f 332 330 331
f 332 331 333
f 333 331 162
f 333 162 161
f 208 212 332
f 208 332 334
f 334 332 333
f 334 333 335
f 335 333 161
f 335 161 160
f 204 208 334
f 204 334 336
f 336 334 335
f 336 335 337
f 337 335 160
f 337 160 159
f 200 204 336
f 200 336 338
f 338 336 337
f 338 337 339
f 339 337 159
f 339 159 158
f 196 200 338
f 196 338 340
f 340 338 339
f 340 339 341
f 341 339 158
f 341 158 157
f 192 196 340
f 192 340 342
f 342 340 341
f 342 341 343
f 343 341 157
f 343 157 156
f 188 192 342
f 188 342 344
f 344 342 343
f 344 343 345
f 345 343 156
f 345 156 155
f 184 188 344
f 184 344 346
f 346 344 345
f 346 345 347
f 347 345 155
f 347 155 154
f 180 184 346
f 180 346 348
f 348 346 347
f 348 347 349
f 349 347 154
f 349 154 153
f 170 180 348
f 170 348 350
f 350 348 349
f 350 349 351
f 351 349 153
f 351 153 152
f 171 170 350
f 171 350 352
f 352 350 351
f 352 351 353
f 353 351 152
f 353 152 151
f 226 171 352
f 226 352 354
f 354 352 353
f 354 353 355
f 355 353 151
f 355 151 150
f 220 226 354
f 220 354 356
f 356 354 355
f 356 355 357
f 357 355 150
f 357 150 149
f 214 220 356
f 214 356 358
f 358 356 357
f 358 357 359
f 359 357 149
f 359 149 148
f 210 214 358
f 210 358 360
f 360 358 359
f 360 359 361
f 361 359 148
f 361 148 147
f 206 210 360
f 206 360 362
f 362 360 361
f 362 361 363
f 363 361 147
f 363 147 146
f 202 206 362
f 202 362 364
f 364 362 363
f 364 363 365
f 365 363 146
f 365 146 145
f 198 202 364
f 198 364 366
f 366 364 365
f 366 365 367
f 367 365 145
f 367 145 144
f 194 198 366
f 194 366 368
f 368 366 367
f 368 367 369
f 369 367 144
f 369 144 143
f 190 194 368
f 190 368 370
f 370 368 369
f 370 369 371
f 371 369 143
f 371 143 142
f 186 190 370
f 186 370 372
f 372 370 371
f 372 371 373
f 373 371 142
f 373 142 141
f 182 186 372
f 182 372 374
f 374 372 373
f 374 373 375
f 375 373 141
f 375 141 140
f 174 182 374
f 174 374 376
f 376 374 375
f 376 375 377
f 377 375 140
f 377 140 139
f 175 174 376
f 175 376 378
f 378 376 377
f 378 377 379
f 379 377 139
f 379 139 138
f 228 175 378
f 228 378 380
f 380 378 379
f 380 379 381
f 381 379 138
f 381 138 137
f 222 228 380
f 222 380 382
f 382 380 381
f 382 381 383
f 383 381 137
f 383 137 136
f 216 222 382
f 216 382 384
f 384 382 383
f 384 383 385
f 385 383 136
f 385 136 135
f 178 216 384
f 178 384 322
f 322 384 385
f 322 385 324
f 324 385 135
f 324 135 134
f 34 386 387
f 34 387 35
f 35 387 388
f 35 388 38
f 38 388 389
f 38 389 40
f 40 389 390
f 40 390 42
f 42 390 391
f 42 391 44
f 44 391 392
f 44 392 46
f 46 392 393
f 46 393 48
f 48 393 394
f 48 394 50
f 50 394 395
f 50 395 52
f 52 395 396
f 52 396 54
f 54 396 397
f 54 397 56
f 56 397 398
f 56 398 58
f 58 398 399
f 58 399 60
f 60 399 400
f 60 400 62
f 62 400 401
f 62 401 64
f 64 401 402
f 64 402 66
f 66 402 403
f 66 403 68
f 68 403 404
f 68 404 70
f 70 404 405
f 70 405 72
f 72 405 406
f 72 406 74
f 74 406 407
f 74 407 76
f 76 407 408
f 76 408 78
f 78 408 409
f 78 409 80
f 80 409 410
f 80 410 82
f 82 410 411
f 82 411 84
f 84 411 412
f 84 412 86
f 86 412 413
f 86 413 88
f 88 413 414
f 88 414 90
f 90 414 415
f 90 415 92
f 92 415 416
f 92 416 94
f 94 416 417
f 94 417 96
f 96 417 386
f 96 386 34
f 34 35 387
f 34 387 386
f 35 38 388
f 35 388 387
f 38 40 389
f 38 389 388
f 40 42 390
f 40 390 389
f 42 44 391
f 42 391 390
f 44 46 392
f 44 392 391
f 46 48 393
f 46 393 392
f 48 50 394
f 48 394 393
f 50 52 395
f 50 395 394
f 52 54 396
f 52 396 395
f 54 56 397
f 54 397 396
f 56 58 398
f 56 398 397
f 58 60 399
f 58 399 398
f 60 62 400
f 60 400 399
f 62 64 401
f 62 401 400
f 64 66 402
f 64 402 401
f 66 68 403
f 66 403 402
f 68 70 404
f 68 404 403
f 70 72 405
f 70 405 404
f 72 74 406
f 72 406 405
f 74 76 407
f 74 407 406
f 76 78 408
f 76 408 407
f 78 80 409
f 78 409 408
f 80 82 410
f 80 410 409
f 82 84 411
f 82 411 410
f 84 86 412
f 84 412 411
f 86 88 413
f 86 413 412
f 88 90 414
f 88 414 413
f 90 92 415
f 90 415 414
f 92 94 416
f 92 416 415
f 405 418 419
f 405 419 404
f 94 96 417
f 94 417 416
f 96 34 386
f 96 386 417
f 420 421 422
f 420 422 423
f 414 424 425
f 414 425 413
f 392 426 427
f 392 427 391
f 401 428 429
f 401 429 400
f 410 430 431
f 410 431 409
f 388 432 433
f 388 433 387
f 397 434 435
f 397 435 396
f 406 436 418
f 406 418 405
f 415 437 424
f 415 424 414
f 393 438 426
f 393 426 392
f 402 439 428
f 402 428 401
f 411 440 430
f 411 430 410
f 389 441 432
f 389 432 388
f 398 442 434
f 398 434 397
f 407 443 436
f 407 436 406
f 416 444 437
f 416 437 415
f 394 445 438
f 394 438 393
f 403 446 439
f 403 439 402
f 412 447 440
f 412 440 411
f 390 448 441
f 390 441 389
f 399 449 442
f 399 442 398
f 408 450 443
f 408 443 407
f 417 451 444
f 417 444 416
f 395 452 445
f 395 445 394
f 404 419 446
f 404 446 403
f 413 425 447
f 413 447 412
f 391 427 448
f 391 448 390
f 400 429 449
f 400 449 399
f 409 431 450
f 409 450 408
f 387 433 453
f 387 453 386
f 386 453 451
f 386 451 417
f 396 435 452
f 396 452 395
f 454 453 433
f 454 433 455
f 455 433 432
f 455 432 456
f 456 432 441
f 456 441 457
f 457 441 448
f 457 448 458
f 458 448 427
f 458 427 459
f 459 427 426
f 459 426 460
f 460 426 438
f 460 438 461
f 461 438 445
f 461 445 462
f 462 445 452
f 462 452 463
f 463 452 435
f 463 435 464
f 464 435 434
f 464 434 465
f 465 434 442
f 465 442 466
f 466 442 449
f 466 449 467
f 467 449 429
f 467 429 468
f 468 429 428
f 468 428 469
f 469 428 439
f 469 439 470
f 470 439 446
f 470 446 471
f 471 446 419
f 471 419 472
f 472 419 418
f 472 418 473
f 473 418 436
f 473 436 474
f 474 436 443
f 474 443 475
f 475 443 450
f 475 450 476
f 476 450 431
f 476 431 477
f 477 431 430
f 477 430 478
f 478 430 440
f 478 440 479
f 479 440 447
f 479 447 480
f 480 447 425
f 480 425 481
f 481 425 424
f 481 424 482
f 482 424 437
f 482 437 483
f 483 437 444
f 483 444 484
f 484 444 451
f 484 451 485
f 485 451 453
f 485 453 454
f 486 487 488
f 486 488 489
f 490 491 492
f 490 492 493
f 494 495 496
f 494 496 497
f 498 499 421
f 498 421 420
f 500 501 491
f 500 491 490
f 502 503 495
f 502 495 494
f 504 505 501
f 504 501 500
f 506 507 503
f 506 503 502
f 508 509 505
f 508 505 504
f 510 511 507
f 510 507 506
f 512 513 509
f 512 509 508
f 514 515 511
f 514 511 510
f 516 517 513
f 516 513 512
f 518 519 515
f 518 515 514
f 520 521 517
f 520 517 516
f 522 523 519
f 522 519 518
f 524 525 521
f 524 521 520
f 526 527 523
f 526 523 522
f 528 529 525
f 528 525 524
f 530 531 527
f 530 527 526
f 532 533 529
f 532 529 528
f 534 535 531
f 534 531 530
f 536 537 499
f 536 499 498
f 538 539 533
f 538 533 532
f 540 541 535
f 540 535 534
f 542 543 537
f 542 537 536
f 544 545 539
f 544 539 538
f 546 547 541
f 546 541 540
f 548 549 543
f 548 543 542
f 423 422 545
f 423 545 544
f 493 492 547
f 493 547 546
f 497 496 549
f 497 549 548
f 550 499 537
f 550 537 551
f 551 537 543
f 551 543 552
f 552 543 549
f 552 549 553
f 553 549 496
f 553 496 554
f 554 496 495
f 554 495 555
f 555 495 503
f 555 503 556
f 556 503 507
f 556 507 557
f 557 507 511
f 557 511 558
f 558 511 515
f 558 515 559
f 559 515 519
f 559 519 560
f 560 519 523
f 560 523 561
f 561 523 527
f 561 527 562
f 562 527 531
f 562 531 563
f 563 531 535
f 563 535 564
f 564 535 541
f 564 541 565
f 565 541 547
f 565 547 566
f 566 547 492
f 566 492 567
f 567 492 491
f 567 491 568
f 568 491 501
f 568 501 569
f 569 501 505
f 569 505 570
f 570 505 509
f 570 509 571
f 571 509 513
f 571 513 572
f 572 513 517
f 572 517 489
f 489 517 521
f 489 521 486
f 486 521 525
f 486 525 573
f 573 525 529
f 573 529 574
f 574 529 533
f 574 533 575
f 575 533 539
f 575 539 576
f 576 539 545
f 576 545 577
f 577 545 422
f 577 422 578
f 578 422 421
f 578 421 579
f 579 421 499
f 579 499 550
f 561 580 581
f 561 581 560
f 573 582 487
f 573 487 486
f 562 583 580
f 562 580 561
f 574 584 582
f 574 582 573
f 563 585 583
f 563 583 562
f 575 586 584
f 575 584 574
f 564 587 585
f 564 585 563
f 551 588 589
f 551 589 550
f 576 590 586
f 576 586 575
f 565 591 587
f 565 587 564
f 552 592 588
f 552 588 551
f 577 593 590
f 577 590 576
f 566 594 591
f 566 591 565
f 553 595 592
f 553 592 552
f 578 596 593
f 578 593 577
f 567 597 594
f 567 594 566
f 554 598 595
f 554 595 553
f 579 599 596
f 579 596 578
f 568 600 597
f 568 597 567
f 555 601 598
f 555 598 554
f 550 589 599
f 550 599 579
f 569 602 600
f 569 600 568
f 556 603 601
f 556 601 555
f 570 604 602
f 570 602 569
f 557 605 603
f 557 603 556
f 571 606 604
f 571 604 570
f 558 607 605
f 558 605 557
f 572 608 606
f 572 606 571
f 559 609 607
f 559 607 558
f 489 488 608
f 489 608 572
f 560 581 609
f 560 609 559
f 420 610 611
f 420 611 498
f 610 612 613
f 610 613 611
f 612 485 454
f 612 454 613
f 423 614 610
f 423 610 420
f 614 615 612
f 614 612 610
f 615 484 485
f 615 485 612
f 544 616 614
f 544 614 423
f 616 617 615
f 616 615 614
f 617 483 484
f 617 484 615
f 538 618 616
f 538 616 544
f 618 619 617
f 618 617 616
f 619 482 483
f 619 483 617
f 532 620 618
f 532 618 538
f 620 621 619
f 620 619 618
f 621 481 482
f 621 482 619
f 528 622 620
f 528 620 532
f 622 623 621
f 622 621 620
f 623 480 481
f 623 481 621
f 524 624 622
f 524 622 528
f 624 625 623
f 624 623 622
f 625 479 480
f 625 480 623
f 520 626 624
f 520 624 524
f 626 627 625
f 626 625 624
f 627 478 479
f 627 479 625
f 516 628 626
f 516 626 520
f 628 629 627
f 628 627 626
f 629 477 478
f 629 478 627
f 512 630 628
f 512 628 516
f 630 631 629
f 630 629 628
f 631 476 477
f 631 477 629
f 508 632 630
f 508 630 512
f 632 633 631
f 632 631 630
f 633 475 476
f 633 476 631
f 504 634 632
f 504 632 508
f 634 635 633
f 634 633 632
f 635 474 475
f 635 475 633
f 500 636 634
f 500 634 504
f 636 637 635
f 636 635 634
f 637 473 474
f 637 474 635
f 490 638 636
f 490 636 500
f 638 639 637
f 638 637 636
f 639 472 473
f 639 473 637
f 493 640 638
f 493 638 490
f 640 641 639
f 640 639 638
f 641 471 472
f 641 472 639
f 546 642 640
f 546 640 493
f 642 643 641
f 642 641 640
f 643 470 471
f 643 471 641
f 540 644 642
f 540 642 546
f 644 645 643
f 644 643 642
f 645 469 470
f 645 470 643
f 534 646 644
f 534 644 540
f 646 647 645
f 646 645 644
f 647 468 469
f 647 469 645
f 530 648 646
f 530 646 534
f 648 649 647
f 648 647 646
f 649 467 468
f 649 468 647
f 526 650 648
f 526 648 530
f 650 651 649
f 650 649 648
f 651 466 467
f 651 467 649
f 522 652 650
f 522 650 526
f 652 653 651
f 652 651 650
f 653 465 466
f 653 466 651
f 518 654 652
f 518 652 522
f 654 655 653
f 654 653 652
f 655 464 465
f 655 465 653
f 514 656 654
f 514 654 518
f 656 657 655
f 656 655 654
f 657 463 464
f 657 464 655
f 510 658 656
f 510 656 514
f 658 659 657
f 658 657 656
f 659 462 463
f 659 463 657
f 506 660 658
f 506 658 510
f 660 661 659
f 660 659 658
f 661 461 462
f 661 462 659
f 502 662 660
f 502 660 506
f 662 663 661
f 662 661 660
f 663 460 461
f 663 461 661
f 494 664 662
f 494 662 502
f 664 665 663
f 664 663 662
f 665 459 460
f 665 460 663
f 497 666 664
f 497 664 494
f 666 667 665
f 666 665 664
f 667 458 459
f 667 459 665
f 548 668 666
f 548 666 497
f 668 669 667
f 668 667 666
f 669 457 458
f 669 458 667
f 542 670 668
f 542 668 548
f 670 671 669
f 670 669 668
f 671 456 457
f 671 457 669
f 536 672 670
f 536 670 542
f 672 673 671
f 672 671 670
f 673 455 456
f 673 456 671
f 498 611 672
f 498 672 536
f 611 613 673
f 611 673 672
f 613 454 455
f 613 455 673
f 2 1 301
f 2 301 300
f 1 8 304
f 1 304 301
f 8 11 307
f 8 307 304
f 11 14 310
f 11 310 307
f 14 17 313
f 14 313 310
f 17 19 315
f 17 315 313
f 19 21 317
f 19 317 315
f 21 23 319
f 21 319 317
f 23 25 321
f 23 321 319
f 25 27 292
f 25 292 321
f 27 29 293
f 27 293 292
f 29 31 295
f 29 295 293
f 31 33 297
f 31 297 295
f 33 7 299
f 33 299 297
f 7 6 303
f 7 303 299
f 6 10 306
f 6 306 303
f 10 13 309
f 10 309 306
f 13 16 312
f 13 312 309
f 16 18 314
f 16 314 312
f 18 20 316
f 18 316 314
f 20 22 318
f 20 318 316
f 22 24 320
f 22 320 318
f 24 26 168
f 24 168 320
f 26 28 169
f 26 169 168
f 28 30 294
f 28 294 169
f 30 32 296
f 30 296 294
f 32 5 298
f 32 298 296
f 5 4 302
f 5 302 298
f 4 9 305
f 4 305 302
f 9 12 308
f 9 308 305
f 12 15 311
f 12 311 308
f 15 2 300
f 15 300 311
f 185 269 674
f 185 674 675
f 239 181 676
f 239 676 240
f 203 199 266
f 203 266 250
f 166 278 677
f 166 677 678
f 173 238 241
f 173 241 679
f 261 172 680
f 261 680 262
f 195 191 281
f 195 281 267
f 273 167 681
f 273 681 682
f 227 260 263
f 227 263 683
f 264 221 684
f 264 684 276
f 187 183 685
f 187 685 284
f 269 272 686
f 269 686 674
f 215 259 277
f 215 277 687
f 258 211 688
f 258 688 689
f 690 691 235
f 690 235 234
f 692 693 257
f 692 257 256
f 694 695 275
f 694 275 274
f 678 677 289
f 678 289 288
f 682 681 696
f 682 696 697
f 674 686 698
f 674 698 675
f 241 240 676
f 241 676 679
f 263 262 680
f 263 680 683
f 277 276 684
f 277 684 687
f 245 689 688
f 245 688 246
f 265 251 250
f 265 250 266
f 280 268 267
f 280 267 281
f 699 285 284
f 699 284 685
f 700 701 231
f 700 231 230
f 702 703 255
f 702 255 254
f 704 705 271
f 704 271 270
f 279 282 695
f 279 695 694
f 291 232 705
f 291 705 704
f 211 207 246
f 211 246 688
f 272 189 698
f 272 698 686
f 193 273 682
f 193 682 697
f 283 286 693
f 283 693 692
f 233 236 703
f 233 703 702
f 221 215 687
f 221 687 684
f 167 197 696
f 167 696 681
f 201 166 678
f 201 678 288
f 287 290 691
f 287 691 690
f 237 242 701
f 237 701 700
f 172 227 683
f 172 683 680
f 278 205 289
f 278 289 677
f 209 279 694
f 209 694 274
f 179 291 704
f 179 704 270
f 243 247 285
f 243 285 699
f 181 173 679
f 181 679 676
f 282 213 275
f 282 275 695
f 232 217 271
f 232 271 705
f 219 283 692
f 219 692 256
f 223 233 702
f 223 702 254
f 248 252 268
f 248 268 280
f 189 185 675
f 189 675 698
f 286 225 257
f 286 257 693
f 236 229 255
f 236 255 703
f 102 287 690
f 102 690 234
f 176 237 700
f 176 700 230
f 253 249 251
f 253 251 265
f 197 193 697
f 197 697 696
f 290 103 235
f 290 235 691
f 242 177 231
f 242 231 701
f 183 243 699
f 183 699 685
f 244 258 689
f 244 689 245
f 85 81 83
f 81 85 79
f 79 85 87
f 79 87 77
f 77 87 89
f 77 89 75
f 75 89 91
f 75 91 73
f 73 91 93
f 73 93 71
f 71 93 95
f 71 95 69
f 69 95 97
f 69 97 67
f 67 97 37
f 67 37 65
f 65 37 36
f 65 36 63
f 63 36 39
f 63 39 61
f 61 39 41
f 61 41 59
f 59 41 43
f 59 43 45
f 59 45 57
f 57 45 47
f 57 47 55
f 55 47 49
f 55 49 53
f 53 49 51
f 409 411 410
f 411 409 408
f 411 408 412
f 412 408 407
f 412 407 413
f 413 407 406
f 413 406 414
f 414 406 405
f 414 405 415
f 415 405 404
f 415 404 416
f 416 404 403
f 416 403 417
f 417 403 402
f 417 402 386
f 386 402 401
f 386 401 387
f 387 401 400
f 387 400 388
f 388 400 399
f 388 399 389
f 389 399 398
f 389 398 390
f 390 398 397
f 390 397 391
f 391 397 396
f 391 396 392
f 392 396 393
f 393 396 395
f 393 395 394
f 582 488 487
f 488 582 608
f 608 582 584
f 608 584 606
f 606 584 586
f 606 586 604
f 604 586 590
f 604 590 602
f 602 590 593
f 602 593 600
f 600 593 596
f 600 596 597
f 597 596 599
f 597 599 594
f 594 599 589
f 594 589 588
f 594 588 591
f 591 588 592
f 591 592 587
f 587 592 595
f 587 595 585
f 585 595 598
f 585 598 583
f 583 598 601
f 583 601 580
f 580 601 581
f 581 601 603
f 581 603 605
f 581 605 609
f 609 605 607

