mtllib batmobile.mtl
o wheel
usemtl Base
v -0.4103 0.0326 -0.0151
v -0.4834 0.0000 0.0000
v -0.4103 0.0333 -0.0073
v -0.4103 0.0216 0.0210
v -0.4834 0.0000 0.0000
v -0.4103 0.0156 0.0260
v -0.4103 -0.0459 -0.0151
v -0.4834 0.0000 0.0000
v -0.4103 -0.0436 -0.0226
v -0.4103 0.0303 -0.0226
v -0.4834 0.0000 0.0000
v -0.4103 0.0266 0.0149
v -0.4834 0.0000 0.0000
v -0.4103 -0.0466 -0.0073
v -0.4834 0.0000 0.0000
v -0.4103 0.0266 -0.0295
v -0.4834 0.0000 0.0000
v -0.4103 0.0303 0.0080
v -0.4834 0.0000 0.0000
v -0.4103 -0.0459 0.0005
v -0.4834 0.0000 0.0000
v -0.4103 0.0216 -0.0355
v -0.4834 0.0000 0.0000
v -0.4103 0.0326 0.0005
v -0.4834 0.0000 0.0000
v -0.4103 -0.0436 0.0080
v -0.4834 0.0000 0.0000
v -0.4103 0.0156 -0.0405
v -0.4834 0.0000 0.0000
v -0.4834 0.0000 0.0000
v -0.4103 -0.0399 0.0149
v -0.4834 0.0000 0.0000
v -0.4103 0.0086 -0.0442
v -0.4834 0.0000 0.0000
v -0.4103 -0.0349 0.0210
v -0.4834 0.0000 0.0000
v -0.4103 0.0011 -0.0465
v -0.4834 0.0000 0.0000
v -0.4103 -0.0289 0.0260
v -0.4834 0.0000 0.0000
v -0.4103 -0.0067 -0.0472
v -0.4834 0.0000 0.0000
v -0.4103 -0.0220 0.0297
v -0.4834 0.0000 0.0000
v -0.4103 -0.0145 -0.0465
v -0.4834 0.0000 0.0000
v -0.4103 -0.0145 0.0319
v -0.4834 0.0000 0.0000
v -0.4103 -0.0220 -0.0442
v -0.4834 0.0000 0.0000
v -0.4103 -0.0067 0.0327
v -0.4834 0.0000 0.0000
v -0.4103 -0.0289 -0.0405
v -0.4834 0.0000 0.0000
v -0.4103 0.0011 0.0319
v -0.4834 0.0000 0.0000
v -0.4103 -0.0349 -0.0355
v -0.4834 0.0000 0.0000
v -0.4103 0.0086 0.0297
v -0.4834 0.0000 0.0000
v -0.4103 -0.0399 -0.0295
v -0.4834 0.0000 0.0000
v -0.4834 0.0000 0.0000
v -0.4834 0.0000 0.0000
v 0.0027 0.7078 0.0000
v -0.2328 0.7078 0.0000
v -0.2328 0.6942 -0.1381
v 0.0027 0.6942 -0.1381
v -0.2328 0.6539 -0.2709
v 0.0027 0.6539 -0.2709
v -0.2328 0.5885 -0.3932
v 0.0027 0.5885 -0.3932
v -0.2328 0.5005 -0.5005
v 0.0027 0.5005 -0.5005
v -0.2328 0.3932 -0.5885
v 0.0027 0.3932 -0.5885
v -0.2328 0.2709 -0.6539
v 0.0027 0.2709 -0.6539
v -0.2328 0.1381 -0.6942
v 0.0027 0.1381 -0.6942
v -0.2328 0.0000 -0.7078
v 0.0027 0.0000 -0.7078
v -0.2328 -0.1381 -0.6942
v 0.0027 -0.1381 -0.6942
v -0.2328 -0.2709 -0.6539
v 0.0027 -0.2709 -0.6539
v -0.2328 -0.3932 -0.5885
v 0.0027 -0.3932 -0.5885
v -0.2328 -0.5005 -0.5005
v 0.0027 -0.5005 -0.5005
v -0.2328 -0.5885 -0.3932
v 0.0027 -0.5885 -0.3932
v -0.2328 -0.6539 -0.2709
v 0.0027 -0.6539 -0.2709
v -0.2328 -0.6942 -0.1381
v 0.0027 -0.6942 -0.1381
v -0.2328 -0.7078 0.0000
v 0.0027 -0.7078 0.0000
v -0.2328 -0.6942 0.1381
v 0.0027 -0.6942 0.1381
v -0.2328 -0.6539 0.2709
v 0.0027 -0.6539 0.2709
v -0.2328 -0.5885 0.3932
v 0.0027 -0.5885 0.3932
v -0.2328 -0.5005 0.5005
v 0.0027 -0.5005 0.5005
v -0.2328 -0.3932 0.5885
v 0.0027 -0.3932 0.5885
v -0.2328 -0.2709 0.6539
v 0.0027 -0.2709 0.6539
v -0.2328 -0.1381 0.6942
v 0.0027 -0.1381 0.6942
v -0.2328 0.0000 0.7078
v 0.0027 0.0000 0.7078
v -0.2328 0.1381 0.6942
v 0.0027 0.1381 0.6942
v -0.2328 0.2709 0.6539
v 0.0027 0.2709 0.6539
v -0.2328 0.3932 0.5885
v 0.0027 0.3932 0.5885
v -0.2328 0.5005 0.5005
v 0.0027 0.5005 0.5005
v -0.2328 0.5885 0.3932
v 0.0027 0.5885 0.3932
v -0.2328 0.6539 0.2709
v 0.0027 0.6539 0.2709
v -0.2328 0.6942 0.1381
v 0.0027 0.6942 0.1381
v -0.2328 0.7078 0.0000
v 0.0027 0.7078 0.0000
v 0.0027 0.7078 0.0000
v 0.0027 0.6942 -0.1381
v -0.2328 0.6942 -0.1381
v -0.2328 0.7078 0.0000
v 0.0027 0.6539 -0.2709
v -0.2328 0.6539 -0.2709
v 0.0027 0.5885 -0.3932
v -0.2328 0.5885 -0.3932
v 0.0027 0.5005 -0.5005
v -0.2328 0.5005 -0.5005
v 0.0027 0.3932 -0.5885
v -0.2328 0.3932 -0.5885
v 0.0027 0.2709 -0.6539
v -0.2328 0.2709 -0.6539
v 0.0027 0.1381 -0.6942
v -0.2328 0.1381 -0.6942
v 0.0027 0.0000 -0.7078
v -0.2328 0.0000 -0.7078
v 0.0027 -0.1381 -0.6942
v -0.2328 -0.1381 -0.6942
v 0.0027 -0.2709 -0.6539
v -0.2328 -0.2709 -0.6539
v 0.0027 -0.3932 -0.5885
v -0.2328 -0.3932 -0.5885
v 0.0027 -0.5005 -0.5005
v -0.2328 -0.5005 -0.5005
v 0.0027 -0.5885 -0.3932
v -0.2328 -0.5885 -0.3932
v 0.0027 -0.6539 -0.2709
v -0.2328 -0.6539 -0.2709
v 0.0027 -0.6942 -0.1381
v -0.2328 -0.6942 -0.1381
v 0.0027 -0.7078 0.0000
v -0.2328 -0.7078 0.0000
v 0.0027 -0.6942 0.1381
v -0.2328 -0.6942 0.1381
v 0.0027 -0.6539 0.2709
v -0.2328 -0.6539 0.2709
v 0.0027 -0.5885 0.3932
v -0.2328 -0.5885 0.3932
v 0.0027 -0.5005 0.5005
v -0.2328 -0.5005 0.5005
v 0.0027 -0.3932 0.5885
v -0.2328 -0.3932 0.5885
v 0.0027 -0.2709 0.6539
v -0.2328 -0.2709 0.6539
v 0.0027 -0.1381 0.6942
v -0.2328 -0.1381 0.6942
v 0.0027 0.0000 0.7078
v -0.2328 0.0000 0.7078
v 0.0027 0.1381 0.6942
v -0.2328 0.1381 0.6942
v 0.0027 0.2709 0.6539
v -0.2328 0.2709 0.6539
v 0.0027 0.3932 0.5885
v -0.2328 0.3932 0.5885
v 0.0027 0.5005 0.5005
v -0.2328 0.5005 0.5005
v 0.0027 0.5885 0.3932
v -0.2328 0.5885 0.3932
v 0.0027 0.6539 0.2709
v -0.2328 0.6539 0.2709
v -0.4060 -0.5885 0.3932
v -0.4060 -0.6539 0.2709
v 0.0027 0.6942 0.1381
v -0.2328 0.6942 0.1381
v 0.0027 0.7078 0.0000
v -0.2328 0.7078 0.0000
v -0.4060 0.4018 0.0799
v -0.2437 0.4018 0.0799
v -0.2437 0.3785 0.1568
v -0.4060 0.3785 0.1568
v -0.4060 0.5005 0.5005
v -0.4060 0.3932 0.5885
v -0.4060 0.2709 -0.6539
v -0.4060 0.3932 -0.5885
v -0.4060 -0.6942 -0.1381
v -0.4060 -0.6539 -0.2709
v -0.4060 0.0000 0.7078
v -0.4060 -0.1381 0.6942
v -0.4060 0.6539 -0.2709
v -0.4060 0.6942 -0.1381
v -0.4060 -0.3932 -0.5885
v -0.4060 -0.2709 -0.6539
v -0.4060 -0.5005 0.5005
v -0.4060 0.5885 0.3932
v -0.4060 0.1381 -0.6942
v -0.4060 -0.7078 0.0000
v -0.4060 0.1381 0.6942
v -0.4060 0.5885 -0.3932
v -0.4060 -0.5005 -0.5005
v -0.4060 -0.3932 0.5885
v -0.4060 0.6539 0.2709
v -0.4060 0.0000 -0.7078
v -0.4060 -0.6942 0.1381
v -0.4060 0.2709 0.6539
v -0.4060 0.5005 -0.5005
v -0.4060 -0.5885 -0.3932
v -0.4060 -0.2709 0.6539
v -0.4060 0.6942 0.1381
v -0.4060 -0.1381 -0.6942
v -0.4060 0.7078 0.0000
v -0.4060 0.7078 0.0000
v -0.4593 0.6333 0.0000
v -0.4060 0.7078 0.0000
v -0.4060 0.6942 -0.1381
v -0.4593 0.6211 -0.1235
v -0.4060 0.6539 -0.2709
v -0.4593 0.5851 -0.2423
v -0.4060 0.5885 -0.3932
v -0.4593 0.5265 -0.3518
v -0.4060 0.5005 -0.5005
v -0.4593 0.4478 -0.4478
v -0.4060 0.3932 -0.5885
v -0.4593 0.3518 -0.5265
v -0.4060 0.2709 -0.6539
v -0.4593 0.2423 -0.5851
v -0.4060 0.1381 -0.6942
v -0.4593 0.1235 -0.6211
v -0.4060 0.0000 -0.7078
v -0.4593 0.0000 -0.6333
v -0.4060 -0.1381 -0.6942
v -0.4593 -0.1235 -0.6211
v -0.4060 -0.2709 -0.6539
v -0.4593 -0.2423 -0.5851
v -0.4060 -0.3932 -0.5885
v -0.4593 -0.3518 -0.5265
v -0.4060 -0.5005 -0.5005
v -0.4593 -0.4478 -0.4478
v -0.4060 -0.5885 -0.3932
v -0.4593 -0.5265 -0.3518
v -0.4060 -0.6539 -0.2709
v -0.4593 -0.5851 -0.2423
v -0.4060 -0.6942 -0.1381
v -0.4593 -0.6211 -0.1235
v -0.4060 -0.7078 0.0000
v -0.4593 -0.6333 0.0000
v -0.4060 -0.6942 0.1381
v -0.4593 -0.6211 0.1235
v -0.4060 -0.6539 0.2709
v -0.4593 -0.5851 0.2423
v -0.4060 -0.5885 0.3932
v -0.4593 -0.5265 0.3518
v -0.4060 -0.5005 0.5005
v -0.4593 -0.4478 0.4478
v -0.4060 -0.3932 0.5885
v -0.4593 -0.3518 0.5265
v -0.4060 -0.2709 0.6539
v -0.4593 -0.2423 0.5851
v -0.4060 -0.1381 0.6942
v -0.4593 -0.1235 0.6211
v -0.4060 0.0000 0.7078
v -0.4593 0.0000 0.6333
v -0.4060 0.1381 0.6942
v -0.4593 0.1235 0.6211
v -0.4060 0.2709 0.6539
v -0.4593 0.2423 0.5851
v -0.4060 0.3932 0.5885
v -0.4593 0.3518 0.5265
v -0.4060 0.5005 0.5005
v -0.4593 0.4478 0.4478
v -0.4060 0.5885 0.3932
v -0.4593 0.5265 0.3518
v -0.4060 0.6539 0.2709
v -0.4593 0.5851 0.2423
v -0.4060 0.6942 0.1381
v -0.4593 0.6211 0.1235
v -0.2437 0.0000 0.1499
v -0.3745 0.0000 0.1499
v -0.3745 -0.0292 0.1470
v -0.2437 -0.0292 0.1470
v -0.4060 -0.3784 0.1568
v -0.2437 -0.3784 0.1568
v -0.2437 -0.4018 0.0799
v -0.4060 -0.4018 0.0799
v -0.4060 0.2276 -0.3406
v -0.2437 0.2276 -0.3406
v -0.2437 0.2897 -0.2897
v -0.4060 0.2897 -0.2897
v -0.4060 0.4096 0.0000
v -0.2437 0.4096 0.0000
v -0.4060 -0.3406 0.2276
v -0.2437 -0.3406 0.2276
v -0.4060 0.1568 -0.3785
v -0.2437 0.1568 -0.3785
v -0.4060 -0.2897 0.2897
v -0.2437 -0.2897 0.2897
v -0.4060 0.0799 -0.4018
v -0.2437 0.0799 -0.4018
v -0.4060 -0.2276 0.3406
v -0.2437 -0.2276 0.3406
v -0.4060 -0.0000 -0.4096
v -0.2437 -0.0000 -0.4096
v -0.4060 -0.1568 0.3785
v -0.2437 -0.1568 0.3785
v -0.4060 -0.0799 -0.4018
v -0.2437 -0.0799 -0.4018
v -0.4060 -0.0799 0.4018
v -0.2437 -0.0799 0.4018
v -0.4060 -0.1568 -0.3785
v -0.2437 -0.1568 -0.3785
v -0.4060 0.0000 0.4096
v -0.2437 0.0000 0.4096
v -0.4060 -0.2276 -0.3406
v -0.2437 -0.2276 -0.3406
v -0.4060 0.0799 0.4018
v -0.2437 0.0799 0.4018
v -0.4060 -0.2897 -0.2897
v -0.2437 -0.2897 -0.2897
v -0.4060 0.1568 0.3784
v -0.2437 0.1568 0.3784
v -0.4060 -0.3406 -0.2276
v -0.2437 -0.3406 -0.2276
v -0.4060 0.2276 0.3406
v -0.2437 0.2276 0.3406
v -0.4060 -0.3784 -0.1568
v -0.2437 -0.3784 -0.1568
v -0.4060 0.4018 -0.0799
v -0.2437 0.4018 -0.0799
v -0.4060 0.2897 0.2897
v -0.2437 0.2897 0.2897
v -0.4060 -0.4018 -0.0799
v -0.2437 -0.4018 -0.0799
v -0.4060 0.3784 -0.1568
v -0.2437 0.3784 -0.1568
v -0.4060 0.3406 0.2276
v -0.2437 0.3406 0.2276
v -0.4060 -0.4096 0.0000
v -0.2437 -0.4096 0.0000
v -0.4060 0.3406 -0.2276
v -0.2437 0.3406 -0.2276
v -0.2437 0.2276 -0.3406
v -0.3548 0.2276 -0.3406
v -0.3548 0.2897 -0.2897
v -0.2437 0.2897 -0.2897
v -0.2437 0.1470 -0.0292
v -0.2437 0.4018 -0.0799
v -0.2437 0.3784 -0.1568
v -0.2437 0.1385 -0.0574
v -0.2437 0.4018 0.0799
v -0.3548 0.4018 0.0799
v -0.3548 0.3785 0.1568
v -0.2437 0.3785 0.1568
v -0.2437 0.1246 -0.0833
v -0.2437 0.3406 -0.2276
v -0.2437 0.2897 -0.2897
v -0.2437 0.1060 -0.1060
v -0.2437 -0.1385 0.0574
v -0.3548 -0.1385 0.0574
v -0.3548 -0.1246 0.0833
v -0.2437 -0.1246 0.0833
v -0.2437 0.0833 -0.1246
v -0.2437 0.2276 -0.3406
v -0.2437 0.1568 -0.3785
v -0.2437 0.0574 -0.1385
v -0.2437 -0.2897 -0.2897
v -0.3548 -0.2897 -0.2897
v -0.3548 -0.1060 -0.1060
v -0.2437 -0.1060 -0.1060
v -0.2437 0.0292 -0.1470
v -0.2437 0.0799 -0.4018
v -0.2437 -0.0000 -0.4096
v -0.2437 -0.0000 -0.1499
v -0.2437 -0.0833 -0.1246
v -0.3548 -0.0833 -0.1246
v -0.3548 -0.2276 -0.3406
v -0.2437 -0.2276 -0.3406
v -0.2437 -0.0292 -0.1470
v -0.2437 -0.0799 -0.4018
v -0.2437 -0.1568 -0.3785
v -0.2437 -0.0574 -0.1385
v -0.2437 0.3406 -0.2276
v -0.3548 0.3406 -0.2276
v -0.3548 0.3784 -0.1568
v -0.2437 0.3784 -0.1568
v -0.2437 -0.0833 -0.1246
v -0.2437 -0.2276 -0.3406
v -0.2437 -0.2897 -0.2897
v -0.2437 -0.1060 -0.1060
v -0.2437 0.3406 0.2276
v -0.3548 0.3406 0.2276
v -0.3548 0.2897 0.2897
v -0.2437 0.2897 0.2897
v -0.2437 -0.1246 -0.0833
v -0.2437 -0.3406 -0.2276
v -0.2437 -0.3784 -0.1568
v -0.2437 -0.1385 -0.0574
v -0.2437 -0.1499 -0.0000
v -0.3548 -0.1499 -0.0000
v -0.3548 -0.1470 0.0292
v -0.2437 -0.1470 0.0292
v -0.2437 -0.1470 -0.0292
v -0.2437 -0.4018 -0.0799
v -0.2437 -0.4096 0.0000
v -0.2437 -0.1499 -0.0000
v -0.2437 -0.1568 -0.3785
v -0.3548 -0.1568 -0.3785
v -0.3548 -0.0574 -0.1385
v -0.2437 -0.0574 -0.1385
v -0.2437 -0.1470 0.0292
v -0.2437 -0.4018 0.0799
v -0.2437 -0.3784 0.1568
v -0.2437 -0.1385 0.0574
v -0.2437 -0.0292 -0.1470
v -0.3548 -0.0292 -0.1470
v -0.3548 -0.0799 -0.4018
v -0.2437 -0.0799 -0.4018
v -0.2437 -0.1246 0.0833
v -0.2437 -0.3406 0.2276
v -0.2437 -0.2897 0.2897
v -0.2437 -0.1060 0.1060
v -0.2437 0.4018 -0.0799
v -0.3548 0.4018 -0.0799
v -0.3548 0.4096 0.0000
v -0.2437 0.4096 0.0000
v -0.2437 -0.0833 0.1246
v -0.2437 -0.2276 0.3406
v -0.2437 -0.1568 0.3785
v -0.2437 -0.0574 0.1385
v -0.2437 0.2276 0.3406
v -0.3548 0.2276 0.3406
v -0.3548 0.1568 0.3784
v -0.2437 0.1568 0.3784
v -0.2437 -0.0292 0.1470
v -0.2437 -0.0799 0.4018
v -0.2437 0.0000 0.4096
v -0.2437 0.0000 0.1499
v -0.2437 -0.1385 -0.0574
v -0.3548 -0.1385 -0.0574
v -0.3548 -0.1470 -0.0292
v -0.2437 -0.1470 -0.0292
v -0.2437 0.0292 0.1470
v -0.2437 0.0799 0.4018
v -0.2437 0.1568 0.3784
v -0.2437 0.0574 0.1385
v -0.2437 -0.0000 -0.4096
v -0.3548 -0.0000 -0.4096
v -0.3548 -0.0000 -0.1499
v -0.2437 -0.0000 -0.1499
v -0.2437 0.0833 0.1246
v -0.2437 0.2276 0.3406
v -0.2437 0.2897 0.2897
v -0.2437 0.1060 0.1060
v -0.2437 0.0292 -0.1470
v -0.3548 0.0292 -0.1470
v -0.3548 0.0799 -0.4018
v -0.2437 0.0799 -0.4018
v -0.2437 0.1246 0.0833
v -0.2437 0.3406 0.2276
v -0.2437 0.3785 0.1568
v -0.2437 0.1385 0.0574
v -0.2437 0.0799 0.4018
v -0.3548 0.0799 0.4018
v -0.3548 0.0000 0.4096
v -0.2437 0.0000 0.4096
v -0.2437 0.1470 0.0292
v -0.2437 0.4018 0.0799
v -0.2437 0.4096 0.0000
v -0.2437 0.1499 0.0000
v -0.2437 -0.0833 -0.1246
v -0.3745 -0.0833 -0.1246
v -0.3745 -0.0574 -0.1385
v -0.2437 -0.0574 -0.1385
v -0.2437 0.0292 0.1470
v -0.3745 0.0292 0.1470
v -0.2437 -0.1060 -0.1060
v -0.3745 -0.1060 -0.1060
v -0.2437 0.0574 0.1385
v -0.3745 0.0574 0.1385
v -0.2437 -0.1246 -0.0833
v -0.3745 -0.1246 -0.0833
v -0.2437 0.0833 0.1246
v -0.3745 0.0833 0.1246
v -0.2437 -0.1385 -0.0574
v -0.3745 -0.1385 -0.0574
v -0.2437 0.1470 -0.0292
v -0.3745 0.1470 -0.0292
v -0.3745 0.1499 0.0000
v -0.2437 0.1499 0.0000
v -0.2437 0.1060 0.1060
v -0.3745 0.1060 0.1060
v -0.2437 -0.1470 -0.0292
v -0.3745 -0.1470 -0.0292
v -0.2437 0.1385 -0.0574
v -0.3745 0.1385 -0.0574
v -0.2437 0.1246 0.0833
v -0.3745 0.1246 0.0833
v -0.2437 -0.1499 -0.0000
v -0.3745 -0.1499 -0.0000
v -0.2437 0.1246 -0.0833
v -0.3745 0.1246 -0.0833
v -0.2437 0.1385 0.0574
v -0.3745 0.1385 0.0574
v -0.2437 -0.1470 0.0292
v -0.3745 -0.1470 0.0292
v -0.2437 0.1060 -0.1060
v -0.3745 0.1060 -0.1060
v -0.2437 0.1470 0.0292
v -0.3745 0.1470 0.0292
v -0.2437 -0.1385 0.0574
v -0.3745 -0.1385 0.0574
v -0.2437 0.0833 -0.1246
v -0.3745 0.0833 -0.1246
v -0.2437 -0.1246 0.0833
v -0.3745 -0.1246 0.0833
v -0.2437 0.0574 -0.1385
v -0.3745 0.0574 -0.1385
v -0.2437 -0.1060 0.1060
v -0.3745 -0.1060 0.1060
v -0.2437 0.0292 -0.1470
v -0.3745 0.0292 -0.1470
v -0.2437 -0.0833 0.1246
v -0.3745 -0.0833 0.1246
v -0.2437 -0.0000 -0.1499
v -0.3745 -0.0000 -0.1499
v -0.2437 -0.0574 0.1385
v -0.3745 -0.0574 0.1385
v -0.2437 -0.0292 -0.1470
v -0.3745 -0.0292 -0.1470
v -0.4060 0.4018 0.0799
v -0.4593 0.4749 0.0945
v -0.4593 0.4842 0.0000
v -0.4060 0.4096 0.0000
v -0.4779 0.5480 0.1090
v -0.4779 0.5587 0.0000
v -0.4779 0.5480 0.1090
v -0.4779 0.5587 0.0000
v -0.4060 0.3785 0.1568
v -0.4593 0.4473 0.1853
v -0.4779 0.5162 0.2138
v -0.4779 0.5162 0.2138
v -0.4060 0.3406 0.2276
v -0.4593 0.4026 0.2690
v -0.4779 0.4646 0.3104
v -0.4779 0.4646 0.3104
v -0.4060 0.2897 0.2897
v -0.4593 0.3424 0.3424
v -0.4779 0.3951 0.3951
v -0.4779 0.3951 0.3951
v -0.4060 0.2276 0.3406
v -0.4593 0.2690 0.4026
v -0.4779 0.3104 0.4646
v -0.4779 0.3104 0.4646
v -0.4060 0.1568 0.3784
v -0.4593 0.1853 0.4473
v -0.4779 0.2138 0.5162
v -0.4779 0.2138 0.5162
v -0.4060 0.0799 0.4018
v -0.4593 0.0945 0.4749
v -0.4779 0.1090 0.5480
v -0.4779 0.1090 0.5480
v -0.4060 0.0000 0.4096
v -0.4593 0.0000 0.4842
v -0.4779 0.0000 0.5587
v -0.4779 0.0000 0.5587
v -0.4060 -0.0799 0.4018
v -0.4593 -0.0945 0.4749
v -0.4779 -0.1090 0.5480
v -0.4779 -0.1090 0.5480
v -0.4060 -0.1568 0.3785
v -0.4593 -0.1853 0.4473
v -0.4779 -0.2138 0.5162
v -0.4779 -0.2138 0.5162
v -0.4060 -0.2276 0.3406
v -0.4593 -0.2690 0.4026
v -0.4779 -0.3104 0.4646
v -0.4779 -0.3104 0.4646
v -0.4060 -0.2897 0.2897
v -0.4593 -0.3424 0.3424
v -0.4779 -0.3951 0.3951
v -0.4779 -0.3951 0.3951
v -0.4060 -0.3406 0.2276
v -0.4593 -0.4026 0.2690
v -0.4779 -0.4646 0.3104
v -0.4779 -0.4646 0.3104
v -0.4060 -0.3784 0.1568
v -0.4593 -0.4473 0.1853
v -0.4779 -0.5162 0.2138
v -0.4779 -0.5162 0.2138
v -0.4060 -0.4018 0.0799
v -0.4593 -0.4749 0.0945
v -0.4779 -0.5480 0.1090
v -0.4779 -0.5480 0.1090
v -0.4060 -0.4096 0.0000
v -0.4593 -0.4842 0.0000
v -0.4779 -0.5587 0.0000
v -0.4779 -0.5587 0.0000
v -0.4060 -0.4018 -0.0799
v -0.4593 -0.4749 -0.0945
v -0.4779 -0.5480 -0.1090
v -0.4779 -0.5480 -0.1090
v -0.4060 -0.3784 -0.1568
v -0.4593 -0.4473 -0.1853
v -0.4779 -0.5162 -0.2138
v -0.4779 -0.5162 -0.2138
v -0.4060 -0.3406 -0.2276
v -0.4593 -0.4026 -0.2690
v -0.4779 -0.4646 -0.3104
v -0.4779 -0.4646 -0.3104
v -0.4060 -0.2897 -0.2897
v -0.4593 -0.3424 -0.3424
v -0.4779 -0.3951 -0.3951
v -0.4779 -0.3951 -0.3951
v -0.4060 -0.2276 -0.3406
v -0.4593 -0.2690 -0.4026
v -0.4779 -0.3104 -0.4646
v -0.4779 -0.3104 -0.4646
v -0.4060 -0.1568 -0.3785
v -0.4593 -0.1853 -0.4473
v -0.4779 -0.2138 -0.5162
v -0.4779 -0.2138 -0.5162
v -0.4060 -0.0799 -0.4018
v -0.4593 -0.0945 -0.4749
v -0.4779 -0.1090 -0.5480
v -0.4779 -0.1090 -0.5480
v -0.4060 -0.0000 -0.4096
v -0.4593 -0.0000 -0.4842
v -0.4779 -0.0000 -0.5587
v -0.4779 -0.0000 -0.5587
v -0.4060 0.0799 -0.4018
v -0.4593 0.0945 -0.4749
v -0.4779 0.1090 -0.5480
v -0.4779 0.1090 -0.5480
v -0.4060 0.1568 -0.3785
v -0.4593 0.1853 -0.4473
v -0.4779 0.2138 -0.5162
v -0.4779 0.2138 -0.5162
v -0.4060 0.2276 -0.3406
v -0.4593 0.2690 -0.4026
v -0.4779 0.3104 -0.4646
v -0.4779 0.3104 -0.4646
v -0.4060 0.2897 -0.2897
v -0.4593 0.3424 -0.3424
v -0.4779 0.3951 -0.3951
v -0.4779 0.3951 -0.3951
v -0.4060 0.3406 -0.2276
v -0.4593 0.4026 -0.2690
v -0.4779 0.4646 -0.3104
v -0.4779 0.4646 -0.3104
v -0.4060 0.3784 -0.1568
v -0.4593 0.4473 -0.1853
v -0.4779 0.5162 -0.2138
v -0.4779 0.5162 -0.2138
v -0.4060 0.4018 -0.0799
v -0.4593 0.4749 -0.0945
v -0.4779 0.5480 -0.1090
v -0.4779 0.5480 -0.1090
v 0.2383 0.6942 -0.1381
v 0.2383 0.7078 0.0000
v 0.2383 0.6539 -0.2709
v 0.2383 0.5885 -0.3932
v 0.2383 0.5005 -0.5005
v 0.2383 0.3932 -0.5885
v 0.2383 0.2709 -0.6539
v 0.2383 0.1381 -0.6942
v 0.2383 0.0000 -0.7078
v 0.2383 -0.1381 -0.6942
v 0.2383 -0.2709 -0.6539
v 0.2383 -0.3932 -0.5885
v 0.2383 -0.5005 -0.5005
v 0.2383 -0.5885 -0.3932
v 0.2383 -0.6539 -0.2709
v 0.2383 -0.6942 -0.1381
v 0.2383 -0.7078 0.0000
v 0.2383 -0.6942 0.1381
v 0.2383 -0.6539 0.2709
v 0.2383 -0.5885 0.3932
v 0.2383 -0.5005 0.5005
v 0.2383 -0.3932 0.5885
v 0.2383 -0.2709 0.6539
v 0.2383 -0.1381 0.6942
v 0.2383 0.0000 0.7078
v 0.2383 0.1381 0.6942
v 0.2383 0.2709 0.6539
v 0.2383 0.3932 0.5885
v 0.2383 0.5005 0.5005
v 0.2383 0.5885 0.3932
v 0.2383 0.6539 0.2709
v 0.2383 0.6942 0.1381
v 0.2383 0.7078 0.0000
v 0.2383 0.7078 0.0000
v 0.2383 0.6942 -0.1381
v 0.2383 0.6539 -0.2709
v 0.2383 0.5885 -0.3932
v 0.2383 0.5005 -0.5005
v 0.2383 0.3932 -0.5885
v 0.2383 0.2709 -0.6539
v 0.2383 0.1381 -0.6942
v 0.2383 0.0000 -0.7078
v 0.2383 -0.1381 -0.6942
v 0.2383 -0.2709 -0.6539
v 0.2383 -0.3932 -0.5885
v 0.2383 -0.5005 -0.5005
v 0.2383 -0.5885 -0.3932
v 0.2383 -0.6539 -0.2709
v 0.2383 -0.6942 -0.1381
v 0.2383 -0.7078 0.0000
v 0.2383 -0.6942 0.1381
v 0.2383 -0.6539 0.2709
v 0.2383 -0.5885 0.3932
v 0.2383 -0.5005 0.5005
v 0.2383 -0.3932 0.5885
v 0.2383 -0.2709 0.6539
v 0.2383 -0.1381 0.6942
v 0.2383 0.0000 0.7078
v 0.2383 0.1381 0.6942
v 0.2383 0.2709 0.6539
v 0.2383 0.3932 0.5885
v 0.2383 0.5005 0.5005
v 0.2383 0.5885 0.3932
v 0.2383 0.6539 0.2709
v 0.4114 -0.6539 0.2709
v 0.4114 -0.5885 0.3932
v 0.2383 0.6942 0.1381
v 0.2383 0.7078 0.0000
v 0.4114 0.4018 0.0799
v 0.4114 0.3785 0.1568
v 0.2491 0.3785 0.1568
v 0.2491 0.4018 0.0799
v 0.4114 0.3932 0.5885
v 0.4114 0.5005 0.5005
v 0.4114 0.3932 -0.5885
v 0.4114 0.2709 -0.6539
v 0.4114 -0.6539 -0.2709
v 0.4114 -0.6942 -0.1381
v 0.4114 -0.1381 0.6942
v 0.4114 0.0000 0.7078
v 0.4114 0.6942 -0.1381
v 0.4114 0.6539 -0.2709
v 0.4114 -0.2709 -0.6539
v 0.4114 -0.3932 -0.5885
v 0.4114 -0.5005 0.5005
v 0.4114 0.5885 0.3932
v 0.4114 0.1381 -0.6942
v 0.4114 -0.7078 0.0000
v 0.4114 0.1381 0.6942
v 0.4114 0.5885 -0.3932
v 0.4114 -0.5005 -0.5005
v 0.4114 -0.3932 0.5885
v 0.4114 0.6539 0.2709
v 0.4114 0.0000 -0.7078
v 0.4114 -0.6942 0.1381
v 0.4114 0.2709 0.6539
v 0.4114 0.5005 -0.5005
v 0.4114 -0.5885 -0.3932
v 0.4114 -0.2709 0.6539
v 0.4114 0.6942 0.1381
v 0.4114 -0.1381 -0.6942
v 0.4114 0.7078 0.0000
v 0.4114 0.7078 0.0000
v 0.4648 0.6333 0.0000
v 0.4648 0.6211 -0.1235
v 0.4114 0.6942 -0.1381
v 0.4114 0.7078 0.0000
v 0.4648 0.5851 -0.2423
v 0.4114 0.6539 -0.2709
v 0.4648 0.5265 -0.3518
v 0.4114 0.5885 -0.3932
v 0.4648 0.4478 -0.4478
v 0.4114 0.5005 -0.5005
v 0.4648 0.3518 -0.5265
v 0.4114 0.3932 -0.5885
v 0.4648 0.2423 -0.5851
v 0.4114 0.2709 -0.6539
v 0.4648 0.1235 -0.6211
v 0.4114 0.1381 -0.6942
v 0.4648 0.0000 -0.6333
v 0.4114 0.0000 -0.7078
v 0.4648 -0.1235 -0.6211
v 0.4114 -0.1381 -0.6942
v 0.4648 -0.2423 -0.5851
v 0.4114 -0.2709 -0.6539
v 0.4648 -0.3518 -0.5265
v 0.4114 -0.3932 -0.5885
v 0.4648 -0.4478 -0.4478
v 0.4114 -0.5005 -0.5005
v 0.4648 -0.5265 -0.3518
v 0.4114 -0.5885 -0.3932
v 0.4648 -0.5851 -0.2423
v 0.4114 -0.6539 -0.2709
v 0.4648 -0.6211 -0.1235
v 0.4114 -0.6942 -0.1381
v 0.4648 -0.6333 0.0000
v 0.4114 -0.7078 0.0000
v 0.4648 -0.6211 0.1235
v 0.4114 -0.6942 0.1381
v 0.4648 -0.5851 0.2423
v 0.4114 -0.6539 0.2709
v 0.4648 -0.5265 0.3518
v 0.4114 -0.5885 0.3932
v 0.4648 -0.4478 0.4478
v 0.4114 -0.5005 0.5005
v 0.4648 -0.3518 0.5265
v 0.4114 -0.3932 0.5885
v 0.4648 -0.2423 0.5851
v 0.4114 -0.2709 0.6539
v 0.4648 -0.1235 0.6211
v 0.4114 -0.1381 0.6942
v 0.4648 0.0000 0.6333
v 0.4114 0.0000 0.7078
v 0.4648 0.1235 0.6211
v 0.4114 0.1381 0.6942
v 0.4648 0.2423 0.5851
v 0.4114 0.2709 0.6539
v 0.4648 0.3518 0.5265
v 0.4114 0.3932 0.5885
v 0.4648 0.4478 0.4478
v 0.4114 0.5005 0.5005
v 0.4648 0.5265 0.3518
v 0.4114 0.5885 0.3932
v 0.4648 0.5851 0.2423
v 0.4114 0.6539 0.2709
v 0.4648 0.6211 0.1235
v 0.4114 0.6942 0.1381
v 0.2491 0.0000 0.1499
v 0.2491 -0.0292 0.1470
v 0.3800 -0.0292 0.1470
v 0.3800 0.0000 0.1499
v 0.4114 -0.3784 0.1568
v 0.4114 -0.4018 0.0799
v 0.2491 -0.4018 0.0799
v 0.2491 -0.3784 0.1568
v 0.4114 0.2276 -0.3406
v 0.4114 0.2897 -0.2897
v 0.2491 0.2897 -0.2897
v 0.2491 0.2276 -0.3406
v 0.4114 0.4096 0.0000
v 0.2491 0.4096 0.0000
v 0.4114 -0.3406 0.2276
v 0.2491 -0.3406 0.2276
v 0.4114 0.1568 -0.3785
v 0.2491 0.1568 -0.3785
v 0.4114 -0.2897 0.2897
v 0.2491 -0.2897 0.2897
v 0.4114 0.0799 -0.4018
v 0.2491 0.0799 -0.4018
v 0.4114 -0.2276 0.3406
v 0.2491 -0.2276 0.3406
v 0.4114 -0.0000 -0.4096
v 0.2491 -0.0000 -0.4096
v 0.4114 -0.1568 0.3785
v 0.2491 -0.1568 0.3785
v 0.4114 -0.0799 -0.4018
v 0.2491 -0.0799 -0.4018
v 0.4114 -0.0799 0.4018
v 0.2491 -0.0799 0.4018
v 0.4114 -0.1568 -0.3785
v 0.2491 -0.1568 -0.3785
v 0.4114 0.0000 0.4096
v 0.2491 0.0000 0.4096
v 0.4114 -0.2276 -0.3406
v 0.2491 -0.2276 -0.3406
v 0.4114 0.0799 0.4018
v 0.2491 0.0799 0.4018
v 0.4114 -0.2897 -0.2897
v 0.2491 -0.2897 -0.2897
v 0.4114 0.1568 0.3784
v 0.2491 0.1568 0.3784
v 0.4114 -0.3406 -0.2276
v 0.2491 -0.3406 -0.2276
v 0.4114 0.2276 0.3406
v 0.2491 0.2276 0.3406
v 0.4114 -0.3784 -0.1568
v 0.2491 -0.3784 -0.1568
v 0.4114 0.4018 -0.0799
v 0.2491 0.4018 -0.0799
v 0.4114 0.2897 0.2897
v 0.2491 0.2897 0.2897
v 0.4114 -0.4018 -0.0799
v 0.2491 -0.4018 -0.0799
v 0.4114 0.3784 -0.1568
v 0.2491 0.3784 -0.1568
v 0.4114 0.3406 0.2276
v 0.2491 0.3406 0.2276
v 0.4114 -0.4096 0.0000
v 0.2491 -0.4096 0.0000
v 0.4114 0.3406 -0.2276
v 0.2491 0.3406 -0.2276
v 0.2491 0.1499 0.0000
v 0.2491 0.1470 -0.0292
v 0.2491 0.4018 -0.0799
v 0.2491 0.4096 0.0000
v 0.2491 0.1385 -0.0574
v 0.2491 0.3784 -0.1568
v 0.2491 0.1246 -0.0833
v 0.2491 0.3406 -0.2276
v 0.2491 0.1060 -0.1060
v 0.2491 0.2897 -0.2897
v 0.2491 0.0833 -0.1246
v 0.2491 0.2276 -0.3406
v 0.2491 0.0574 -0.1385
v 0.2491 0.1568 -0.3785
v 0.2491 0.0292 -0.1470
v 0.2491 0.0799 -0.4018
v 0.2491 -0.0000 -0.1499
v 0.2491 -0.0000 -0.4096
v 0.2491 -0.0292 -0.1470
v 0.2491 -0.0799 -0.4018
v 0.2491 -0.0574 -0.1385
v 0.2491 -0.1568 -0.3785
v 0.2491 -0.0833 -0.1246
v 0.2491 -0.2276 -0.3406
v 0.2491 -0.1060 -0.1060
v 0.2491 -0.2897 -0.2897
v 0.2491 -0.1246 -0.0833
v 0.2491 -0.3406 -0.2276
v 0.2491 -0.1385 -0.0574
v 0.2491 -0.3784 -0.1568
v 0.2491 -0.1470 -0.0292
v 0.2491 -0.4018 -0.0799
v 0.2491 -0.1499 -0.0000
v 0.2491 -0.4096 0.0000
v 0.2491 -0.1470 0.0292
v 0.2491 -0.4018 0.0799
v 0.2491 -0.1385 0.0574
v 0.2491 -0.3784 0.1568
v 0.2491 -0.1246 0.0833
v 0.2491 -0.3406 0.2276
v 0.2491 -0.1060 0.1060
v 0.2491 -0.2897 0.2897
v 0.2491 -0.0833 0.1246
v 0.2491 -0.2276 0.3406
v 0.2491 -0.0574 0.1385
v 0.2491 -0.1568 0.3785
v 0.2491 -0.0292 0.1470
v 0.2491 -0.0799 0.4018
v 0.2491 0.0000 0.1499
v 0.2491 0.0000 0.4096
v 0.2491 0.0292 0.1470
v 0.2491 0.0799 0.4018
v 0.2491 0.0574 0.1385
v 0.2491 0.1568 0.3784
v 0.2491 0.0833 0.1246
v 0.2491 0.2276 0.3406
v 0.2491 0.1060 0.1060
v 0.2491 0.2897 0.2897
v 0.2491 0.1246 0.0833
v 0.2491 0.3406 0.2276
v 0.2491 0.1385 0.0574
v 0.2491 0.3785 0.1568
v 0.2491 0.1470 0.0292
v 0.2491 0.4018 0.0799
v 0.2491 -0.0833 -0.1246
v 0.2491 -0.0574 -0.1385
v 0.3800 -0.0574 -0.1385
v 0.3800 -0.0833 -0.1246
v 0.2491 0.0292 0.1470
v 0.3800 0.0292 0.1470
v 0.2491 -0.1060 -0.1060
v 0.3800 -0.1060 -0.1060
v 0.2491 0.0574 0.1385
v 0.3800 0.0574 0.1385
v 0.2491 -0.1246 -0.0833
v 0.3800 -0.1246 -0.0833
v 0.2491 0.0833 0.1246
v 0.3800 0.0833 0.1246
v 0.2491 -0.1385 -0.0574
v 0.3800 -0.1385 -0.0574
v 0.2491 0.1470 -0.0292
v 0.2491 0.1499 0.0000
v 0.3800 0.1499 0.0000
v 0.3800 0.1470 -0.0292
v 0.2491 0.1060 0.1060
v 0.3800 0.1060 0.1060
v 0.2491 -0.1470 -0.0292
v 0.3800 -0.1470 -0.0292
v 0.2491 0.1385 -0.0574
v 0.3800 0.1385 -0.0574
v 0.2491 0.1246 0.0833
v 0.3800 0.1246 0.0833
v 0.2491 -0.1499 -0.0000
v 0.3800 -0.1499 -0.0000
v 0.2491 0.1246 -0.0833
v 0.3800 0.1246 -0.0833
v 0.2491 0.1385 0.0574
v 0.3800 0.1385 0.0574
v 0.2491 -0.1470 0.0292
v 0.3800 -0.1470 0.0292
v 0.2491 0.1060 -0.1060
v 0.3800 0.1060 -0.1060
v 0.2491 0.1470 0.0292
v 0.3800 0.1470 0.0292
v 0.2491 -0.1385 0.0574
v 0.3800 -0.1385 0.0574
v 0.2491 0.0833 -0.1246
v 0.3800 0.0833 -0.1246
v 0.2491 -0.1246 0.0833
v 0.3800 -0.1246 0.0833
v 0.2491 0.0574 -0.1385
v 0.3800 0.0574 -0.1385
v 0.2491 -0.1060 0.1060
v 0.3800 -0.1060 0.1060
v 0.2491 0.0292 -0.1470
v 0.3800 0.0292 -0.1470
v 0.2491 -0.0833 0.1246
v 0.3800 -0.0833 0.1246
v 0.2491 -0.0000 -0.1499
v 0.3800 -0.0000 -0.1499
v 0.2491 -0.0574 0.1385
v 0.3800 -0.0574 0.1385
v 0.2491 -0.0292 -0.1470
v 0.3800 -0.0292 -0.1470
v 0.4114 0.4018 0.0799
v 0.4114 0.4096 0.0000
v 0.4648 0.4842 0.0000
v 0.4648 0.4749 0.0945
v 0.4834 0.5587 0.0000
v 0.4834 0.5480 0.1090
v 0.4834 0.5480 0.1090
v 0.4834 0.5587 0.0000
v 0.4114 0.3785 0.1568
v 0.4648 0.4473 0.1853
v 0.4834 0.5162 0.2138
v 0.4834 0.5162 0.2138
v 0.4114 0.3406 0.2276
v 0.4648 0.4026 0.2690
v 0.4834 0.4646 0.3104
v 0.4834 0.4646 0.3104
v 0.4114 0.2897 0.2897
v 0.4648 0.3424 0.3424
v 0.4834 0.3951 0.3951
v 0.4834 0.3951 0.3951
v 0.4114 0.2276 0.3406
v 0.4648 0.2690 0.4026
v 0.4834 0.3104 0.4646
v 0.4834 0.3104 0.4646
v 0.4114 0.1568 0.3784
v 0.4648 0.1853 0.4473
v 0.4834 0.2138 0.5162
v 0.4834 0.2138 0.5162
v 0.4114 0.0799 0.4018
v 0.4648 0.0945 0.4749
v 0.4834 0.1090 0.5480
v 0.4834 0.1090 0.5480
v 0.4114 0.0000 0.4096
v 0.4648 0.0000 0.4842
v 0.4834 0.0000 0.5587
v 0.4834 0.0000 0.5587
v 0.4114 -0.0799 0.4018
v 0.4648 -0.0945 0.4749
v 0.4834 -0.1090 0.5480
v 0.4834 -0.1090 0.5480
v 0.4114 -0.1568 0.3785
v 0.4648 -0.1853 0.4473
v 0.4834 -0.2138 0.5162
v 0.4834 -0.2138 0.5162
v 0.4114 -0.2276 0.3406
v 0.4648 -0.2690 0.4026
v 0.4834 -0.3104 0.4646
v 0.4834 -0.3104 0.4646
v 0.4114 -0.2897 0.2897
v 0.4648 -0.3424 0.3424
v 0.4834 -0.3951 0.3951
v 0.4834 -0.3951 0.3951
v 0.4114 -0.3406 0.2276
v 0.4648 -0.4026 0.2690
v 0.4834 -0.4646 0.3104
v 0.4834 -0.4646 0.3104
v 0.4114 -0.3784 0.1568
v 0.4648 -0.4473 0.1853
v 0.4834 -0.5162 0.2138
v 0.4834 -0.5162 0.2138
v 0.4114 -0.4018 0.0799
v 0.4648 -0.4749 0.0945
v 0.4834 -0.5480 0.1090
v 0.4834 -0.5480 0.1090
v 0.4114 -0.4096 0.0000
v 0.4648 -0.4842 0.0000
v 0.4834 -0.5587 0.0000
v 0.4834 -0.5587 0.0000
v 0.4114 -0.4018 -0.0799
v 0.4648 -0.4749 -0.0945
v 0.4834 -0.5480 -0.1090
v 0.4834 -0.5480 -0.1090
v 0.4114 -0.3784 -0.1568
v 0.4648 -0.4473 -0.1853
v 0.4834 -0.5162 -0.2138
v 0.4834 -0.5162 -0.2138
v 0.4114 -0.3406 -0.2276
v 0.4648 -0.4026 -0.2690
v 0.4834 -0.4646 -0.3104
v 0.4834 -0.4646 -0.3104
v 0.4114 -0.2897 -0.2897
v 0.4648 -0.3424 -0.3424
v 0.4834 -0.3951 -0.3951
v 0.4834 -0.3951 -0.3951
v 0.4114 -0.2276 -0.3406
v 0.4648 -0.2690 -0.4026
v 0.4834 -0.3104 -0.4646
v 0.4834 -0.3104 -0.4646
v 0.4114 -0.1568 -0.3785
v 0.4648 -0.1853 -0.4473
v 0.4834 -0.2138 -0.5162
v 0.4834 -0.2138 -0.5162
v 0.4114 -0.0799 -0.4018
v 0.4648 -0.0945 -0.4749
v 0.4834 -0.1090 -0.5480
v 0.4834 -0.1090 -0.5480
v 0.4114 -0.0000 -0.4096
v 0.4648 -0.0000 -0.4842
v 0.4834 -0.0000 -0.5587
v 0.4834 -0.0000 -0.5587
v 0.4114 0.0799 -0.4018
v 0.4648 0.0945 -0.4749
v 0.4834 0.1090 -0.5480
v 0.4834 0.1090 -0.5480
v 0.4114 0.1568 -0.3785
v 0.4648 0.1853 -0.4473
v 0.4834 0.2138 -0.5162
v 0.4834 0.2138 -0.5162
v 0.4114 0.2276 -0.3406
v 0.4648 0.2690 -0.4026
v 0.4834 0.3104 -0.4646
v 0.4834 0.3104 -0.4646
v 0.4114 0.2897 -0.2897
v 0.4648 0.3424 -0.3424
v 0.4834 0.3951 -0.3951
v 0.4834 0.3951 -0.3951
v 0.4114 0.3406 -0.2276
v 0.4648 0.4026 -0.2690
v 0.4834 0.4646 -0.3104
v 0.4834 0.4646 -0.3104
v 0.4114 0.3784 -0.1568
v 0.4648 0.4473 -0.1853
v 0.4834 0.5162 -0.2138
v 0.4834 0.5162 -0.2138
v 0.4114 0.4018 -0.0799
v 0.4648 0.4749 -0.0945
v 0.4834 0.5480 -0.1090
v 0.4834 0.5480 -0.1090
v -0.4103 0.0333 -0.0073
v -0.3745 0.1499 0.0000
v -0.3745 0.1470 -0.0292
v -0.4103 0.0326 -0.0151
v -0.3745 0.1385 -0.0574
v -0.4103 0.0303 -0.0226
v -0.3745 0.1246 -0.0833
v -0.4103 0.0266 -0.0295
v -0.3745 0.1060 -0.1060
v -0.4103 0.0216 -0.0355
v -0.3745 0.0833 -0.1246
v -0.4103 0.0156 -0.0405
v -0.3745 0.0574 -0.1385
v -0.4103 0.0086 -0.0442
v -0.3745 0.0292 -0.1470
v -0.4103 0.0011 -0.0465
v -0.3745 -0.0000 -0.1499
v -0.4103 -0.0067 -0.0472
v -0.3745 -0.0292 -0.1470
v -0.4103 -0.0145 -0.0465
v -0.3745 -0.0574 -0.1385
v -0.4103 -0.0220 -0.0442
v -0.3745 -0.0833 -0.1246
v -0.4103 -0.0289 -0.0405
v -0.3745 -0.1060 -0.1060
v -0.4103 -0.0349 -0.0355
v -0.3745 -0.1246 -0.0833
v -0.4103 -0.0399 -0.0295
v -0.3745 -0.1385 -0.0574
v -0.4103 -0.0436 -0.0226
v -0.3745 -0.1470 -0.0292
v -0.4103 -0.0459 -0.0151
v -0.3745 -0.1499 -0.0000
v -0.4103 -0.0466 -0.0073
v -0.3745 -0.1470 0.0292
v -0.4103 -0.0459 0.0005
v -0.3745 -0.1385 0.0574
v -0.4103 -0.0436 0.0080
v -0.3745 -0.1246 0.0833
v -0.4103 -0.0399 0.0149
v -0.3745 -0.1060 0.1060
v -0.4103 -0.0349 0.0210
v -0.3745 -0.0833 0.1246
v -0.4103 -0.0289 0.0260
v -0.3745 -0.0574 0.1385
v -0.4103 -0.0220 0.0297
v -0.3745 -0.0292 0.1470
v -0.4103 -0.0145 0.0319
v -0.3745 0.0000 0.1499
v -0.4103 -0.0067 0.0327
v -0.3745 0.0292 0.1470
v -0.4103 0.0011 0.0319
v -0.3745 0.0574 0.1385
v -0.4103 0.0086 0.0297
v -0.3745 0.0833 0.1246
v -0.4103 0.0156 0.0260
v -0.3745 0.1060 0.1060
v -0.4103 0.0216 0.0210
v -0.3745 0.1246 0.0833
v -0.4103 0.0266 0.0149
v -0.3745 0.1385 0.0574
v -0.4103 0.0303 0.0080
v -0.3745 0.1470 0.0292
v -0.4103 0.0326 0.0005
v -0.2437 -0.2897 0.2897
v -0.3548 -0.2897 0.2897
v -0.3548 -0.1060 0.1060
v -0.2437 -0.1060 0.1060
v -0.2437 -0.1246 0.0833
v -0.3548 -0.1246 0.0833
v -0.3548 -0.3406 0.2276
v -0.2437 -0.3406 0.2276
v -0.2437 -0.2276 -0.3406
v -0.3548 -0.2276 -0.3406
v -0.3548 -0.1568 -0.3785
v -0.2437 -0.1568 -0.3785
v -0.2437 0.0000 0.1499
v -0.3548 0.0000 0.1499
v -0.3548 0.0292 0.1470
v -0.2437 0.0292 0.1470
v -0.2437 -0.3784 0.1568
v -0.3548 -0.3784 0.1568
v -0.3548 -0.1385 0.0574
v -0.2437 -0.1385 0.0574
v -0.2437 -0.1470 0.0292
v -0.3548 -0.1470 0.0292
v -0.3548 -0.4018 0.0799
v -0.2437 -0.4018 0.0799
v -0.2437 -0.0799 -0.4018
v -0.3548 -0.0799 -0.4018
v -0.3548 -0.0000 -0.4096
v -0.2437 -0.0000 -0.4096
v -0.2437 -0.0574 0.1385
v -0.3548 -0.0574 0.1385
v -0.3548 -0.0292 0.1470
v -0.2437 -0.0292 0.1470
v -0.2437 -0.4096 0.0000
v -0.3548 -0.4096 0.0000
v -0.3548 -0.1499 -0.0000
v -0.2437 -0.1499 -0.0000
v -0.2437 -0.1470 -0.0292
v -0.3548 -0.1470 -0.0292
v -0.3548 -0.4018 -0.0799
v -0.2437 -0.4018 -0.0799
v -0.2437 0.0799 -0.4018
v -0.3548 0.0799 -0.4018
v -0.3548 0.1568 -0.3785
v -0.2437 0.1568 -0.3785
v -0.2437 -0.1060 0.1060
v -0.3548 -0.1060 0.1060
v -0.3548 -0.0833 0.1246
v -0.2437 -0.0833 0.1246
v -0.2437 -0.3784 -0.1568
v -0.3548 -0.3784 -0.1568
v -0.3548 -0.1385 -0.0574
v -0.2437 -0.1385 -0.0574
v -0.2437 -0.1246 -0.0833
v -0.3548 -0.1246 -0.0833
v -0.3548 -0.3406 -0.2276
v -0.2437 -0.3406 -0.2276
v -0.3548 0.1385 0.0574
v -0.3548 0.3785 0.1568
v -0.3548 0.4018 0.0799
v -0.3548 0.1470 0.0292
v -0.3548 0.1060 0.1060
v -0.3548 0.2897 0.2897
v -0.3548 0.3406 0.2276
v -0.3548 0.1246 0.0833
v -0.3548 0.0574 0.1385
v -0.3548 0.1568 0.3784
v -0.3548 0.2276 0.3406
v -0.3548 0.0833 0.1246
v -0.3548 0.0000 0.1499
v -0.3548 0.0000 0.4096
v -0.3548 0.0799 0.4018
v -0.3548 0.0292 0.1470
v -0.3548 -0.0574 0.1385
v -0.3548 -0.1568 0.3785
v -0.3548 -0.0799 0.4018
v -0.3548 -0.0292 0.1470
v -0.3548 -0.1060 0.1060
v -0.3548 -0.2897 0.2897
v -0.3548 -0.2276 0.3406
v -0.3548 -0.0833 0.1246
v -0.3548 -0.1385 0.0574
v -0.3548 -0.3784 0.1568
v -0.3548 -0.3406 0.2276
v -0.3548 -0.1246 0.0833
v -0.3548 -0.1499 -0.0000
v -0.3548 -0.4096 0.0000
v -0.3548 -0.4018 0.0799
v -0.3548 -0.1470 0.0292
v -0.3548 -0.1385 -0.0574
v -0.3548 -0.3784 -0.1568
v -0.3548 -0.4018 -0.0799
v -0.3548 -0.1470 -0.0292
v -0.3548 -0.1060 -0.1060
v -0.3548 -0.2897 -0.2897
v -0.3548 -0.3406 -0.2276
v -0.3548 -0.1246 -0.0833
v -0.3548 -0.0574 -0.1385
v -0.3548 -0.1568 -0.3785
v -0.3548 -0.2276 -0.3406
v -0.3548 -0.0833 -0.1246
v -0.3548 -0.0000 -0.1499
v -0.3548 -0.0000 -0.4096
v -0.3548 -0.0799 -0.4018
v -0.3548 -0.0292 -0.1470
v -0.3548 0.0574 -0.1385
v -0.3548 0.1568 -0.3785
v -0.3548 0.0799 -0.4018
v -0.3548 0.0292 -0.1470
v -0.3548 0.1060 -0.1060
v -0.3548 0.2897 -0.2897
v -0.3548 0.2276 -0.3406
v -0.3548 0.0833 -0.1246
v -0.3548 0.1385 -0.0574
v -0.3548 0.3784 -0.1568
v -0.3548 0.3406 -0.2276
v -0.3548 0.1246 -0.0833
v -0.3548 0.1499 0.0000
v -0.3548 0.4096 0.0000
v -0.3548 0.4018 -0.0799
v -0.3548 0.1470 -0.0292
v -0.2437 0.0574 0.1385
v -0.3548 0.0574 0.1385
v -0.3548 0.0833 0.1246
v -0.2437 0.0833 0.1246
v -0.2437 0.1499 0.0000
v -0.3548 0.1499 0.0000
v -0.3548 0.1470 -0.0292
v -0.2437 0.1470 -0.0292
v -0.2437 -0.3406 -0.2276
v -0.3548 -0.3406 -0.2276
v -0.3548 -0.2897 -0.2897
v -0.2437 -0.2897 -0.2897
v -0.2437 -0.0833 0.1246
v -0.3548 -0.0833 0.1246
v -0.3548 -0.2276 0.3406
v -0.2437 -0.2276 0.3406
v -0.2437 -0.1568 0.3785
v -0.3548 -0.1568 0.3785
v -0.3548 -0.0574 0.1385
v -0.2437 -0.0574 0.1385
v -0.2437 0.1060 0.1060
v -0.3548 0.1060 0.1060
v -0.3548 0.1246 0.0833
v -0.2437 0.1246 0.0833
v -0.2437 0.1385 -0.0574
v -0.3548 0.1385 -0.0574
v -0.3548 0.1246 -0.0833
v -0.2437 0.1246 -0.0833
v -0.2437 -0.4018 -0.0799
v -0.3548 -0.4018 -0.0799
v -0.3548 -0.3784 -0.1568
v -0.2437 -0.3784 -0.1568
v -0.2437 -0.0292 0.1470
v -0.3548 -0.0292 0.1470
v -0.3548 -0.0799 0.4018
v -0.2437 -0.0799 0.4018
v -0.2437 0.0000 0.4096
v -0.3548 0.0000 0.4096
v -0.3548 0.0000 0.1499
v -0.2437 0.0000 0.1499
v -0.2437 0.1385 0.0574
v -0.3548 0.1385 0.0574
v -0.3548 0.1470 0.0292
v -0.2437 0.1470 0.0292
v -0.2437 0.1060 -0.1060
v -0.3548 0.1060 -0.1060
v -0.3548 0.0833 -0.1246
v -0.2437 0.0833 -0.1246
v -0.2437 -0.4018 0.0799
v -0.3548 -0.4018 0.0799
v -0.3548 -0.4096 0.0000
v -0.2437 -0.4096 0.0000
v -0.2437 0.0292 0.1470
v -0.3548 0.0292 0.1470
v -0.3548 0.0799 0.4018
v -0.2437 0.0799 0.4018
v -0.2437 0.1568 0.3784
v -0.3548 0.1568 0.3784
v -0.3548 0.0574 0.1385
v -0.2437 0.0574 0.1385
v -0.2437 0.4096 0.0000
v -0.3548 0.4096 0.0000
v -0.3548 0.1499 0.0000
v -0.2437 0.1499 0.0000
v -0.2437 0.0574 -0.1385
v -0.3548 0.0574 -0.1385
v -0.3548 0.0292 -0.1470
v -0.2437 0.0292 -0.1470
v -0.2437 -0.3406 0.2276
v -0.3548 -0.3406 0.2276
v -0.3548 -0.3784 0.1568
v -0.2437 -0.3784 0.1568
v -0.2437 0.0833 0.1246
v -0.3548 0.0833 0.1246
v -0.3548 0.2276 0.3406
v -0.2437 0.2276 0.3406
v -0.2437 0.1470 -0.0292
v -0.3548 0.1470 -0.0292
v -0.3548 0.4018 -0.0799
v -0.2437 0.4018 -0.0799
v -0.2437 0.2897 0.2897
v -0.3548 0.2897 0.2897
v -0.3548 0.1060 0.1060
v -0.2437 0.1060 0.1060
v -0.2437 0.3784 -0.1568
v -0.3548 0.3784 -0.1568
v -0.3548 0.1385 -0.0574
v -0.2437 0.1385 -0.0574
v -0.2437 -0.0000 -0.1499
v -0.3548 -0.0000 -0.1499
v -0.3548 -0.0292 -0.1470
v -0.2437 -0.0292 -0.1470
v -0.2437 -0.2276 0.3406
v -0.3548 -0.2276 0.3406
v -0.3548 -0.2897 0.2897
v -0.2437 -0.2897 0.2897
v -0.2437 0.1246 0.0833
v -0.3548 0.1246 0.0833
v -0.3548 0.3406 0.2276
v -0.2437 0.3406 0.2276
v -0.2437 0.1246 -0.0833
v -0.3548 0.1246 -0.0833
v -0.3548 0.3406 -0.2276
v -0.2437 0.3406 -0.2276
v -0.2437 0.3785 0.1568
v -0.3548 0.3785 0.1568
v -0.3548 0.1385 0.0574
v -0.2437 0.1385 0.0574
v -0.2437 0.2897 -0.2897
v -0.3548 0.2897 -0.2897
v -0.3548 0.1060 -0.1060
v -0.2437 0.1060 -0.1060
v -0.2437 -0.0574 -0.1385
v -0.3548 -0.0574 -0.1385
v -0.3548 -0.0833 -0.1246
v -0.2437 -0.0833 -0.1246
v -0.2437 -0.0799 0.4018
v -0.3548 -0.0799 0.4018
v -0.3548 -0.1568 0.3785
v -0.2437 -0.1568 0.3785
v -0.2437 0.1470 0.0292
v -0.3548 0.1470 0.0292
v -0.3548 0.4018 0.0799
v -0.2437 0.4018 0.0799
v -0.2437 0.0833 -0.1246
v -0.3548 0.0833 -0.1246
v -0.3548 0.2276 -0.3406
v -0.2437 0.2276 -0.3406
v -0.2437 0.1568 -0.3785
v -0.3548 0.1568 -0.3785
v -0.3548 0.0574 -0.1385
v -0.2437 0.0574 -0.1385
v -0.2437 -0.1060 -0.1060
v -0.3548 -0.1060 -0.1060
v -0.3548 -0.1246 -0.0833
v -0.2437 -0.1246 -0.0833
v -0.2328 -0.1381 0.6942
v -0.2328 0.1381 0.6942
v -0.2328 0.0000 0.7078
v -0.2328 -0.2709 0.6539
v -0.2328 0.2709 0.6539
v -0.2328 -0.3932 0.5885
v -0.2328 0.3932 0.5885
v -0.2328 -0.5005 0.5005
v -0.2328 0.5005 0.5005
v -0.2328 -0.5885 0.3932
v -0.2328 0.5885 0.3932
v -0.2328 -0.6539 0.2709
v -0.2328 0.6539 0.2709
v -0.2328 -0.6942 0.1381
v -0.2328 0.6942 0.1381
v -0.2328 -0.7078 0.0000
v -0.2328 0.7078 0.0000
v -0.2328 -0.6942 -0.1381
v -0.2328 0.6942 -0.1381
v -0.2328 -0.6539 -0.2709
v -0.2328 0.6539 -0.2709
v -0.2328 -0.5885 -0.3932
v -0.2328 0.5885 -0.3932
v -0.2328 -0.5005 -0.5005
v -0.2328 0.5005 -0.5005
v -0.2328 -0.3932 -0.5885
v -0.2328 0.3932 -0.5885
v -0.2328 -0.2709 -0.6539
v -0.2328 0.2709 -0.6539
v -0.2328 0.1381 -0.6942
v -0.2328 -0.1381 -0.6942
v -0.2328 0.0000 -0.7078
v 0.2383 0.1381 0.6942
v 0.2383 -0.1381 0.6942
v 0.2383 0.0000 0.7078
v 0.2383 -0.2709 0.6539
v 0.2383 0.2709 0.6539
v 0.2383 -0.3932 0.5885
v 0.2383 0.3932 0.5885
v 0.2383 -0.5005 0.5005
v 0.2383 0.5005 0.5005
v 0.2383 -0.5885 0.3932
v 0.2383 0.5885 0.3932
v 0.2383 -0.6539 0.2709
v 0.2383 0.6539 0.2709
v 0.2383 -0.6942 0.1381
v 0.2383 0.6942 0.1381
v 0.2383 -0.7078 0.0000
v 0.2383 0.7078 0.0000
v 0.2383 -0.6942 -0.1381
v 0.2383 0.6942 -0.1381
v 0.2383 -0.6539 -0.2709
v 0.2383 0.6539 -0.2709
v 0.2383 -0.5885 -0.3932
v 0.2383 0.5885 -0.3932
v 0.2383 -0.5005 -0.5005
v 0.2383 0.5005 -0.5005
v 0.2383 0.3932 -0.5885
v 0.2383 -0.3932 -0.5885
v 0.2383 0.2709 -0.6539
v 0.2383 -0.2709 -0.6539
v 0.2383 0.1381 -0.6942
v 0.2383 -0.1381 -0.6942
v 0.2383 0.0000 -0.7078
v 0.3800 -0.0292 0.1470
v 0.3800 0.0292 0.1470
v 0.3800 0.0000 0.1499
v 0.3800 -0.0574 0.1385
v 0.3800 0.0574 0.1385
v 0.3800 -0.0833 0.1246
v 0.3800 0.0833 0.1246
v 0.3800 -0.1060 0.1060
v 0.3800 0.1060 0.1060
v 0.3800 -0.1246 0.0833
v 0.3800 0.1246 0.0833
v 0.3800 -0.1385 0.0574
v 0.3800 0.1385 0.0574
v 0.3800 -0.1470 0.0292
v 0.3800 0.1470 0.0292
v 0.3800 -0.1499 -0.0000
v 0.3800 0.1499 0.0000
v 0.3800 0.1470 -0.0292
v 0.3800 -0.1470 -0.0292
v 0.3800 0.1385 -0.0574
v 0.3800 -0.1385 -0.0574
v 0.3800 0.1246 -0.0833
v 0.3800 -0.1246 -0.0833
v 0.3800 0.1060 -0.1060
v 0.3800 -0.1060 -0.1060
v 0.3800 0.0833 -0.1246
v 0.3800 -0.0833 -0.1246
v 0.3800 -0.0574 -0.1385
v 0.3800 0.0574 -0.1385
v 0.3800 -0.0292 -0.1470
v 0.3800 0.0292 -0.1470
v 0.3800 -0.0000 -0.1499
f 1 2 3
f 4 5 6
f 7 8 9
f 10 11 1
f 12 13 4
f 14 15 7
f 16 17 10
f 18 19 12
f 20 21 14
f 22 23 16
f 24 25 18
f 26 27 20
f 28 29 22
f 3 30 24
f 31 32 26
f 33 34 28
f 35 36 31
f 37 38 33
f 39 40 35
f 41 42 37
f 43 44 39
f 45 46 41
f 47 48 43
f 49 50 45
f 51 52 47
f 53 54 49
f 55 56 51
f 57 58 53
f 59 60 55
f 61 62 57
f 6 63 59
f 9 64 61
f 65 66 67
f 65 67 68
f 68 67 69
f 68 69 70
f 70 69 71
f 70 71 72
f 72 71 73
f 72 73 74
f 74 73 75
f 74 75 76
f 76 75 77
f 76 77 78
f 78 77 79
f 78 79 80
f 80 79 81
f 80 81 82
f 82 81 83
f 82 83 84
f 84 83 85
f 84 85 86
f 86 85 87
f 86 87 88
f 88 87 89
f 88 89 90
f 90 89 91
f 90 91 92
f 92 91 93
f 92 93 94
f 94 93 95
f 94 95 96
f 96 95 97
f 96 97 98
f 98 97 99
f 98 99 100
f 100 99 101
f 100 101 102
f 102 101 103
f 102 103 104
f 104 103 105
f 104 105 106
f 106 105 107
f 106 107 108
f 108 107 109
f 108 109 110
f 110 109 111
f 110 111 112
f 112 111 113
f 112 113 114
f 114 113 115
f 114 115 116
f 116 115 117
f 116 117 118
f 118 117 119
f 118 119 120
f 120 119 121
f 120 121 122
f 122 121 123
f 122 123 124
f 124 123 125
f 124 125 126
f 126 125 127
f 126 127 128
f 128 127 129
f 128 129 130
f 131 132 133
f 131 133 134
f 132 135 136
f 132 136 133
f 135 137 138
f 135 138 136
f 137 139 140
f 137 140 138
f 139 141 142
f 139 142 140
f 141 143 144
f 141 144 142
f 143 145 146
f 143 146 144
f 145 147 148
f 145 148 146
f 147 149 150
f 147 150 148
f 149 151 152
f 149 152 150
f 151 153 154
f 151 154 152
f 153 155 156
f 153 156 154
f 155 157 158
f 155 158 156
f 157 159 160
f 157 160 158
f 159 161 162
f 159 162 160
f 161 163 164
f 161 164 162
f 163 165 166
f 163 166 164
f 165 167 168
f 165 168 166
f 167 169 170
f 167 170 168
f 169 171 172
f 169 172 170
f 171 173 174
f 171 174 172
f 173 175 176
f 173 176 174
f 175 177 178
f 175 178 176
f 177 179 180
f 177 180 178
f 179 181 182
f 179 182 180
f 181 183 184
f 181 184 182
f 183 185 186
f 183 186 184
f 185 187 188
f 185 188 186
f 187 189 190
f 187 190 188
f 189 191 192
f 189 192 190
f 170 193 194
f 170 194 168
f 191 195 196
f 191 196 192
f 195 197 198
f 195 198 196
f 199 200 201
f 199 201 202
f 188 203 204
f 188 204 186
f 144 205 206
f 144 206 142
f 162 207 208
f 162 208 160
f 180 209 210
f 180 210 178
f 136 211 212
f 136 212 133
f 154 213 214
f 154 214 152
f 172 215 193
f 172 193 170
f 190 216 203
f 190 203 188
f 146 217 205
f 146 205 144
f 164 218 207
f 164 207 162
f 182 219 209
f 182 209 180
f 138 220 211
f 138 211 136
f 156 221 213
f 156 213 154
f 174 222 215
f 174 215 172
f 192 223 216
f 192 216 190
f 148 224 217
f 148 217 146
f 166 225 218
f 166 218 164
f 184 226 219
f 184 219 182
f 140 227 220
f 140 220 138
f 158 228 221
f 158 221 156
f 176 229 222
f 176 222 174
f 196 230 223
f 196 223 192
f 150 231 224
f 150 224 148
f 168 194 225
f 168 225 166
f 186 204 226
f 186 226 184
f 142 206 227
f 142 227 140
f 160 208 228
f 160 228 158
f 178 210 229
f 178 229 176
f 133 212 232
f 133 232 134
f 198 233 230
f 198 230 196
f 152 214 231
f 152 231 150
f 234 235 236
f 234 236 237
f 237 236 238
f 237 238 239
f 239 238 240
f 239 240 241
f 241 240 242
f 241 242 243
f 243 242 244
f 243 244 245
f 245 244 246
f 245 246 247
f 247 246 248
f 247 248 249
f 249 248 250
f 249 250 251
f 251 250 252
f 251 252 253
f 253 252 254
f 253 254 255
f 255 254 256
f 255 256 257
f 257 256 258
f 257 258 259
f 259 258 260
f 259 260 261
f 261 260 262
f 261 262 263
f 263 262 264
f 263 264 265
f 265 264 266
f 265 266 267
f 267 266 268
f 267 268 269
f 269 268 270
f 269 270 271
f 271 270 272
f 271 272 273
f 273 272 274
f 273 274 275
f 275 274 276
f 275 276 277
f 277 276 278
f 277 278 279
f 279 278 280
f 279 280 281
f 281 280 282
f 281 282 283
f 283 282 284
f 283 284 285
f 285 284 286
f 285 286 287
f 287 286 288
f 287 288 289
f 289 288 290
f 289 290 291
f 291 290 292
f 291 292 293
f 293 292 294
f 293 294 295
f 295 294 296
f 295 296 297
f 297 296 235
f 297 235 234
f 298 299 300
f 298 300 301
f 302 303 304
f 302 304 305
f 306 307 308
f 306 308 309
f 310 311 200
f 310 200 199
f 312 313 303
f 312 303 302
f 314 315 307
f 314 307 306
f 316 317 313
f 316 313 312
f 318 319 315
f 318 315 314
f 320 321 317
f 320 317 316
f 322 323 319
f 322 319 318
f 324 325 321
f 324 321 320
f 326 327 323
f 326 323 322
f 328 329 325
f 328 325 324
f 330 331 327
f 330 327 326
f 332 333 329
f 332 329 328
f 334 335 331
f 334 331 330
f 336 337 333
f 336 333 332
f 338 339 335
f 338 335 334
f 340 341 337
f 340 337 336
f 342 343 339
f 342 339 338
f 344 345 341
f 344 341 340
f 346 347 343
f 346 343 342
f 348 349 311
f 348 311 310
f 350 351 345
f 350 345 344
f 352 353 347
f 352 347 346
f 354 355 349
f 354 349 348
f 356 357 351
f 356 351 350
f 358 359 353
f 358 353 352
f 360 361 355
f 360 355 354
f 202 201 357
f 202 357 356
f 305 304 359
f 305 359 358
f 309 308 361
f 309 361 360
f 362 363 364
f 362 364 365
f 366 367 368
f 366 368 369
f 370 371 372
f 370 372 373
f 374 375 376
f 374 376 377
f 378 379 380
f 378 380 381
f 382 383 384
f 382 384 385
f 386 387 388
f 386 388 389
f 390 391 392
f 390 392 393
f 394 395 396
f 394 396 397
f 398 399 400
f 398 400 401
f 402 403 404
f 402 404 405
f 406 407 408
f 406 408 409
f 410 411 412
f 410 412 413
f 414 415 416
f 414 416 417
f 418 419 420
f 418 420 421
f 422 423 424
f 422 424 425
f 426 427 428
f 426 428 429
f 430 431 432
f 430 432 433
f 434 435 436
f 434 436 437
f 438 439 440
f 438 440 441
f 442 443 444
f 442 444 445
f 446 447 448
f 446 448 449
f 450 451 452
f 450 452 453
f 454 455 456
f 454 456 457
f 458 459 460
f 458 460 461
f 462 463 464
f 462 464 465
f 466 467 468
f 466 468 469
f 470 471 472
f 470 472 473
f 474 475 476
f 474 476 477
f 478 479 480
f 478 480 481
f 482 483 484
f 482 484 485
f 486 487 488
f 486 488 489
f 490 491 492
f 490 492 493
f 494 495 299
f 494 299 298
f 496 497 491
f 496 491 490
f 498 499 495
f 498 495 494
f 500 501 497
f 500 497 496
f 502 503 499
f 502 499 498
f 504 505 501
f 504 501 500
f 506 507 508
f 506 508 509
f 510 511 503
f 510 503 502
f 512 513 505
f 512 505 504
f 514 515 507
f 514 507 506
f 516 517 511
f 516 511 510
f 518 519 513
f 518 513 512
f 520 521 515
f 520 515 514
f 522 523 517
f 522 517 516
f 524 525 519
f 524 519 518
f 526 527 521
f 526 521 520
f 528 529 523
f 528 523 522
f 530 531 525
f 530 525 524
f 532 533 527
f 532 527 526
f 509 508 529
f 509 529 528
f 534 535 531
f 534 531 530
f 536 537 533
f 536 533 532
f 538 539 535
f 538 535 534
f 540 541 537
f 540 537 536
f 542 543 539
f 542 539 538
f 544 545 541
f 544 541 540
f 546 547 543
f 546 543 542
f 548 549 545
f 548 545 544
f 301 300 547
f 301 547 546
f 493 492 549
f 493 549 548
f 550 551 552
f 550 552 553
f 551 554 555
f 551 555 552
f 556 297 234
f 556 234 557
f 558 559 551
f 558 551 550
f 559 560 554
f 559 554 551
f 561 295 297
f 561 297 556
f 562 563 559
f 562 559 558
f 563 564 560
f 563 560 559
f 565 293 295
f 565 295 561
f 566 567 563
f 566 563 562
f 567 568 564
f 567 564 563
f 569 291 293
f 569 293 565
f 570 571 567
f 570 567 566
f 571 572 568
f 571 568 567
f 573 289 291
f 573 291 569
f 574 575 571
f 574 571 570
f 575 576 572
f 575 572 571
f 577 287 289
f 577 289 573
f 578 579 575
f 578 575 574
f 579 580 576
f 579 576 575
f 581 285 287
f 581 287 577
f 582 583 579
f 582 579 578
f 583 584 580
f 583 580 579
f 585 283 285
f 585 285 581
f 586 587 583
f 586 583 582
f 587 588 584
f 587 584 583
f 589 281 283
f 589 283 585
f 590 591 587
f 590 587 586
f 591 592 588
f 591 588 587
f 593 279 281
f 593 281 589
f 594 595 591
f 594 591 590
f 595 596 592
f 595 592 591
f 597 277 279
f 597 279 593
f 598 599 595
f 598 595 594
f 599 600 596
f 599 596 595
f 601 275 277
f 601 277 597
f 602 603 599
f 602 599 598
f 603 604 600
f 603 600 599
f 605 273 275
f 605 275 601
f 606 607 603
f 606 603 602
f 607 608 604
f 607 604 603
f 609 271 273
f 609 273 605
f 610 611 607
f 610 607 606
f 611 612 608
f 611 608 607
f 613 269 271
f 613 271 609
f 614 615 611
f 614 611 610
f 615 616 612
f 615 612 611
f 617 267 269
f 617 269 613
f 618 619 615
f 618 615 614
f 619 620 616
f 619 616 615
f 621 265 267
f 621 267 617
f 622 623 619
f 622 619 618
f 623 624 620
f 623 620 619
f 625 263 265
f 625 265 621
f 626 627 623
f 626 623 622
f 627 628 624
f 627 624 623
f 629 261 263
f 629 263 625
f 630 631 627
f 630 627 626
f 631 632 628
f 631 628 627
f 633 259 261
f 633 261 629
f 634 635 631
f 634 631 630
f 635 636 632
f 635 632 631
f 637 257 259
f 637 259 633
f 638 639 635
f 638 635 634
f 639 640 636
f 639 636 635
f 641 255 257
f 641 257 637
f 642 643 639
f 642 639 638
f 643 644 640
f 643 640 639
f 645 253 255
f 645 255 641
f 646 647 643
f 646 643 642
f 647 648 644
f 647 644 643
f 649 251 253
f 649 253 645
f 650 651 647
f 650 647 646
f 651 652 648
f 651 648 647
f 653 249 251
f 653 251 649
f 654 655 651
f 654 651 650
f 655 656 652
f 655 652 651
f 657 247 249
f 657 249 653
f 658 659 655
f 658 655 654
f 659 660 656
f 659 656 655
f 661 245 247
f 661 247 657
f 662 663 659
f 662 659 658
f 663 664 660
f 663 660 659
f 665 243 245
f 665 245 661
f 666 667 663
f 666 663 662
f 667 668 664
f 667 664 663
f 669 241 243
f 669 243 665
f 670 671 667
f 670 667 666
f 671 672 668
f 671 668 667
f 673 239 241
f 673 241 669
f 674 675 671
f 674 671 670
f 675 676 672
f 675 672 671
f 677 237 239
f 677 239 673
f 553 552 675
f 553 675 674
f 552 555 676
f 552 676 675
f 557 234 237
f 557 237 677
f 65 68 678
f 65 678 679
f 68 70 680
f 68 680 678
f 70 72 681
f 70 681 680
f 72 74 682
f 72 682 681
f 74 76 683
f 74 683 682
f 76 78 684
f 76 684 683
f 78 80 685
f 78 685 684
f 80 82 686
f 80 686 685
f 82 84 687
f 82 687 686
f 84 86 688
f 84 688 687
f 86 88 689
f 86 689 688
f 88 90 690
f 88 690 689
f 90 92 691
f 90 691 690
f 92 94 692
f 92 692 691
f 94 96 693
f 94 693 692
f 96 98 694
f 96 694 693
f 98 100 695
f 98 695 694
f 100 102 696
f 100 696 695
f 102 104 697
f 102 697 696
f 104 106 698
f 104 698 697
f 106 108 699
f 106 699 698
f 108 110 700
f 108 700 699
f 110 112 701
f 110 701 700
f 112 114 702
f 112 702 701
f 114 116 703
f 114 703 702
f 116 118 704
f 116 704 703
f 118 120 705
f 118 705 704
f 120 122 706
f 120 706 705
f 122 124 707
f 122 707 706
f 124 126 708
f 124 708 707
f 126 128 709
f 126 709 708
f 128 130 710
f 128 710 709
f 131 711 712
f 131 712 132
f 132 712 713
f 132 713 135
f 135 713 714
f 135 714 137
f 137 714 715
f 137 715 139
f 139 715 716
f 139 716 141
f 141 716 717
f 141 717 143
f 143 717 718
f 143 718 145
f 145 718 719
f 145 719 147
f 147 719 720
f 147 720 149
f 149 720 721
f 149 721 151
f 151 721 722
f 151 722 153
f 153 722 723
f 153 723 155
f 155 723 724
f 155 724 157
f 157 724 725
f 157 725 159
f 159 725 726
f 159 726 161
f 161 726 727
f 161 727 163
f 163 727 728
f 163 728 165
f 165 728 729
f 165 729 167
f 167 729 730
f 167 730 169
f 169 730 731
f 169 731 171
f 171 731 732
f 171 732 173
f 173 732 733
f 173 733 175
f 175 733 734
f 175 734 177
f 177 734 735
f 177 735 179
f 179 735 736
f 179 736 181
f 181 736 737
f 181 737 183
f 183 737 738
f 183 738 185
f 185 738 739
f 185 739 187
f 187 739 740
f 187 740 189
f 189 740 741
f 189 741 191
f 730 729 742
f 730 742 743
f 191 741 744
f 191 744 195
f 195 744 745
f 195 745 197
f 746 747 748
f 746 748 749
f 739 738 750
f 739 750 751
f 717 716 752
f 717 752 753
f 726 725 754
f 726 754 755
f 735 734 756
f 735 756 757
f 713 712 758
f 713 758 759
f 722 721 760
f 722 760 761
f 731 730 743
f 731 743 762
f 740 739 751
f 740 751 763
f 718 717 753
f 718 753 764
f 727 726 755
f 727 755 765
f 736 735 757
f 736 757 766
f 714 713 759
f 714 759 767
f 723 722 761
f 723 761 768
f 732 731 762
f 732 762 769
f 741 740 763
f 741 763 770
f 719 718 764
f 719 764 771
f 728 727 765
f 728 765 772
f 737 736 766
f 737 766 773
f 715 714 767
f 715 767 774
f 724 723 768
f 724 768 775
f 733 732 769
f 733 769 776
f 744 741 770
f 744 770 777
f 720 719 771
f 720 771 778
f 729 728 772
f 729 772 742
f 738 737 773
f 738 773 750
f 716 715 774
f 716 774 752
f 725 724 775
f 725 775 754
f 734 733 776
f 734 776 756
f 712 711 779
f 712 779 758
f 745 744 777
f 745 777 780
f 721 720 778
f 721 778 760
f 781 782 783
f 781 783 784
f 782 785 786
f 782 786 783
f 785 787 788
f 785 788 786
f 787 789 790
f 787 790 788
f 789 791 792
f 789 792 790
f 791 793 794
f 791 794 792
f 793 795 796
f 793 796 794
f 795 797 798
f 795 798 796
f 797 799 800
f 797 800 798
f 799 801 802
f 799 802 800
f 801 803 804
f 801 804 802
f 803 805 806
f 803 806 804
f 805 807 808
f 805 808 806
f 807 809 810
f 807 810 808
f 809 811 812
f 809 812 810
f 811 813 814
f 811 814 812
f 813 815 816
f 813 816 814
f 815 817 818
f 815 818 816
f 817 819 820
f 817 820 818
f 819 821 822
f 819 822 820
f 821 823 824
f 821 824 822
f 823 825 826
f 823 826 824
f 825 827 828
f 825 828 826
f 827 829 830
f 827 830 828
f 829 831 832
f 829 832 830
f 831 833 834
f 831 834 832
f 833 835 836
f 833 836 834
f 835 837 838
f 835 838 836
f 837 839 840
f 837 840 838
f 839 841 842
f 839 842 840
f 841 843 844
f 841 844 842
f 843 781 784
f 843 784 844
f 845 846 847
f 845 847 848
f 849 850 851
f 849 851 852
f 853 854 855
f 853 855 856
f 857 746 749
f 857 749 858
f 859 849 852
f 859 852 860
f 861 853 856
f 861 856 862
f 863 859 860
f 863 860 864
f 865 861 862
f 865 862 866
f 867 863 864
f 867 864 868
f 869 865 866
f 869 866 870
f 871 867 868
f 871 868 872
f 873 869 870
f 873 870 874
f 875 871 872
f 875 872 876
f 877 873 874
f 877 874 878
f 879 875 876
f 879 876 880
f 881 877 878
f 881 878 882
f 883 879 880
f 883 880 884
f 885 881 882
f 885 882 886
f 887 883 884
f 887 884 888
f 889 885 886
f 889 886 890
f 891 887 888
f 891 888 892
f 893 889 890
f 893 890 894
f 895 857 858
f 895 858 896
f 897 891 892
f 897 892 898
f 899 893 894
f 899 894 900
f 901 895 896
f 901 896 902
f 903 897 898
f 903 898 904
f 905 899 900
f 905 900 906
f 907 901 902
f 907 902 908
f 747 903 904
f 747 904 748
f 850 905 906
f 850 906 851
f 854 907 908
f 854 908 855
f 909 910 911
f 909 911 912
f 910 913 914
f 910 914 911
f 913 915 916
f 913 916 914
f 915 917 918
f 915 918 916
f 917 919 920
f 917 920 918
f 919 921 922
f 919 922 920
f 921 923 924
f 921 924 922
f 923 925 926
f 923 926 924
f 925 927 928
f 925 928 926
f 927 929 930
f 927 930 928
f 929 931 932
f 929 932 930
f 931 933 934
f 931 934 932
f 933 935 936
f 933 936 934
f 935 937 938
f 935 938 936
f 937 939 940
f 937 940 938
f 939 941 942
f 939 942 940
f 941 943 944
f 941 944 942
f 943 945 946
f 943 946 944
f 945 947 948
f 945 948 946
f 947 949 950
f 947 950 948
f 949 951 952
f 949 952 950
f 951 953 954
f 951 954 952
f 953 955 956
f 953 956 954
f 955 957 958
f 955 958 956
f 957 959 960
f 957 960 958
f 959 961 962
f 959 962 960
f 961 963 964
f 961 964 962
f 963 965 966
f 963 966 964
f 965 967 968
f 965 968 966
f 967 969 970
f 967 970 968
f 969 971 972
f 969 972 970
f 971 909 912
f 971 912 972
f 973 974 975
f 973 975 976
f 977 845 848
f 977 848 978
f 979 973 976
f 979 976 980
f 981 977 978
f 981 978 982
f 983 979 980
f 983 980 984
f 985 981 982
f 985 982 986
f 987 983 984
f 987 984 988
f 989 990 991
f 989 991 992
f 993 985 986
f 993 986 994
f 995 987 988
f 995 988 996
f 997 989 992
f 997 992 998
f 999 993 994
f 999 994 1000
f 1001 995 996
f 1001 996 1002
f 1003 997 998
f 1003 998 1004
f 1005 999 1000
f 1005 1000 1006
f 1007 1001 1002
f 1007 1002 1008
f 1009 1003 1004
f 1009 1004 1010
f 1011 1005 1006
f 1011 1006 1012
f 1013 1007 1008
f 1013 1008 1014
f 1015 1009 1010
f 1015 1010 1016
f 990 1011 1012
f 990 1012 991
f 1017 1013 1014
f 1017 1014 1018
f 1019 1015 1016
f 1019 1016 1020
f 1021 1017 1018
f 1021 1018 1022
f 1023 1019 1020
f 1023 1020 1024
f 1025 1021 1022
f 1025 1022 1026
f 1027 1023 1024
f 1027 1024 1028
f 1029 1025 1026
f 1029 1026 1030
f 1031 1027 1028
f 1031 1028 1032
f 846 1029 1030
f 846 1030 847
f 974 1031 1032
f 974 1032 975
f 1033 1034 1035
f 1033 1035 1036
f 1036 1035 1037
f 1036 1037 1038
f 1039 1040 781
f 1039 781 843
f 1041 1033 1036
f 1041 1036 1042
f 1042 1036 1038
f 1042 1038 1043
f 1044 1039 843
f 1044 843 841
f 1045 1041 1042
f 1045 1042 1046
f 1046 1042 1043
f 1046 1043 1047
f 1048 1044 841
f 1048 841 839
f 1049 1045 1046
f 1049 1046 1050
f 1050 1046 1047
f 1050 1047 1051
f 1052 1048 839
f 1052 839 837
f 1053 1049 1050
f 1053 1050 1054
f 1054 1050 1051
f 1054 1051 1055
f 1056 1052 837
f 1056 837 835
f 1057 1053 1054
f 1057 1054 1058
f 1058 1054 1055
f 1058 1055 1059
f 1060 1056 835
f 1060 835 833
f 1061 1057 1058
f 1061 1058 1062
f 1062 1058 1059
f 1062 1059 1063
f 1064 1060 833
f 1064 833 831
f 1065 1061 1062
f 1065 1062 1066
f 1066 1062 1063
f 1066 1063 1067
f 1068 1064 831
f 1068 831 829
f 1069 1065 1066
f 1069 1066 1070
f 1070 1066 1067
f 1070 1067 1071
f 1072 1068 829
f 1072 829 827
f 1073 1069 1070
f 1073 1070 1074
f 1074 1070 1071
f 1074 1071 1075
f 1076 1072 827
f 1076 827 825
f 1077 1073 1074
f 1077 1074 1078
f 1078 1074 1075
f 1078 1075 1079
f 1080 1076 825
f 1080 825 823
f 1081 1077 1078
f 1081 1078 1082
f 1082 1078 1079
f 1082 1079 1083
f 1084 1080 823
f 1084 823 821
f 1085 1081 1082
f 1085 1082 1086
f 1086 1082 1083
f 1086 1083 1087
f 1088 1084 821
f 1088 821 819
f 1089 1085 1086
f 1089 1086 1090
f 1090 1086 1087
f 1090 1087 1091
f 1092 1088 819
f 1092 819 817
f 1093 1089 1090
f 1093 1090 1094
f 1094 1090 1091
f 1094 1091 1095
f 1096 1092 817
f 1096 817 815
f 1097 1093 1094
f 1097 1094 1098
f 1098 1094 1095
f 1098 1095 1099
f 1100 1096 815
f 1100 815 813
f 1101 1097 1098
f 1101 1098 1102
f 1102 1098 1099
f 1102 1099 1103
f 1104 1100 813
f 1104 813 811
f 1105 1101 1102
f 1105 1102 1106
f 1106 1102 1103
f 1106 1103 1107
f 1108 1104 811
f 1108 811 809
f 1109 1105 1106
f 1109 1106 1110
f 1110 1106 1107
f 1110 1107 1111
f 1112 1108 809
f 1112 809 807
f 1113 1109 1110
f 1113 1110 1114
f 1114 1110 1111
f 1114 1111 1115
f 1116 1112 807
f 1116 807 805
f 1117 1113 1114
f 1117 1114 1118
f 1118 1114 1115
f 1118 1115 1119
f 1120 1116 805
f 1120 805 803
f 1121 1117 1118
f 1121 1118 1122
f 1122 1118 1119
f 1122 1119 1123
f 1124 1120 803
f 1124 803 801
f 1125 1121 1122
f 1125 1122 1126
f 1126 1122 1123
f 1126 1123 1127
f 1128 1124 801
f 1128 801 799
f 1129 1125 1126
f 1129 1126 1130
f 1130 1126 1127
f 1130 1127 1131
f 1132 1128 799
f 1132 799 797
f 1133 1129 1130
f 1133 1130 1134
f 1134 1130 1131
f 1134 1131 1135
f 1136 1132 797
f 1136 797 795
f 1137 1133 1134
f 1137 1134 1138
f 1138 1134 1135
f 1138 1135 1139
f 1140 1136 795
f 1140 795 793
f 1141 1137 1138
f 1141 1138 1142
f 1142 1138 1139
f 1142 1139 1143
f 1144 1140 793
f 1144 793 791
f 1145 1141 1142
f 1145 1142 1146
f 1146 1142 1143
f 1146 1143 1147
f 1148 1144 791
f 1148 791 789
f 1149 1145 1146
f 1149 1146 1150
f 1150 1146 1147
f 1150 1147 1151
f 1152 1148 789
f 1152 789 787
f 1153 1149 1150
f 1153 1150 1154
f 1154 1150 1151
f 1154 1151 1155
f 1156 1152 787
f 1156 787 785
f 1157 1153 1154
f 1157 1154 1158
f 1158 1154 1155
f 1158 1155 1159
f 1160 1156 785
f 1160 785 782
f 1034 1157 1158
f 1034 1158 1035
f 1035 1158 1159
f 1035 1159 1037
f 1040 1160 782
f 1040 782 781
f 1161 1162 1163
f 1161 1163 1164
f 1164 1163 1165
f 1164 1165 1166
f 1166 1165 1167
f 1166 1167 1168
f 1168 1167 1169
f 1168 1169 1170
f 1170 1169 1171
f 1170 1171 1172
f 1172 1171 1173
f 1172 1173 1174
f 1174 1173 1175
f 1174 1175 1176
f 1176 1175 1177
f 1176 1177 1178
f 1178 1177 1179
f 1178 1179 1180
f 1180 1179 1181
f 1180 1181 1182
f 1182 1181 1183
f 1182 1183 1184
f 1184 1183 1185
f 1184 1185 1186
f 1186 1185 1187
f 1186 1187 1188
f 1188 1187 1189
f 1188 1189 1190
f 1190 1189 1191
f 1190 1191 1192
f 1192 1191 1193
f 1192 1193 1194
f 1194 1193 1195
f 1194 1195 1196
f 1196 1195 1197
f 1196 1197 1198
f 1198 1197 1199
f 1198 1199 1200
f 1200 1199 1201
f 1200 1201 1202
f 1202 1201 1203
f 1202 1203 1204
f 1204 1203 1205
f 1204 1205 1206
f 1206 1205 1207
f 1206 1207 1208
f 1208 1207 1209
f 1208 1209 1210
f 1210 1209 1211
f 1210 1211 1212
f 1212 1211 1213
f 1212 1213 1214
f 1214 1213 1215
f 1214 1215 1216
f 1216 1215 1217
f 1216 1217 1218
f 1218 1217 1219
f 1218 1219 1220
f 1220 1219 1221
f 1220 1221 1222
f 1222 1221 1223
f 1222 1223 1224
f 1224 1223 1162
f 1224 1162 1161
f 1225 1226 1227
f 1225 1227 1228
f 1229 1230 1231
f 1229 1231 1232
f 1233 1234 1235
f 1233 1235 1236
f 1237 1238 1239
f 1237 1239 1240
f 1241 1242 1243
f 1241 1243 1244
f 1245 1246 1247
f 1245 1247 1248
f 1249 1250 1251
f 1249 1251 1252
f 1253 1254 1255
f 1253 1255 1256
f 1257 1258 1259
f 1257 1259 1260
f 1261 1262 1263
f 1261 1263 1264
f 1265 1266 1267
f 1265 1267 1268
f 1269 1270 1271
f 1269 1271 1272
f 1273 1274 1275
f 1273 1275 1276
f 1277 1278 1279
f 1277 1279 1280
f 1281 1282 1283
f 1281 1283 1284
f 1285 1286 1287
f 1285 1287 1288
f 1289 1290 1291
f 1289 1291 1292
f 1293 1294 1295
f 1293 1295 1296
f 1297 1298 1299
f 1297 1299 1300
f 1301 1302 1303
f 1301 1303 1304
f 1305 1306 1307
f 1305 1307 1308
f 1309 1310 1311
f 1309 1311 1312
f 1313 1314 1315
f 1313 1315 1316
f 1317 1318 1319
f 1317 1319 1320
f 1321 1322 1323
f 1321 1323 1324
f 1325 1326 1327
f 1325 1327 1328
f 1329 1330 1331
f 1329 1331 1332
f 1333 1334 1335
f 1333 1335 1336
f 1337 1338 1339
f 1337 1339 1340
f 1341 1342 1343
f 1341 1343 1344
f 1345 1346 1347
f 1345 1347 1348
f 1349 1350 1351
f 1349 1351 1352
f 1353 1354 1355
f 1353 1355 1356
f 1357 1358 1359
f 1357 1359 1360
f 1361 1362 1363
f 1361 1363 1364
f 1365 1366 1367
f 1365 1367 1368
f 1369 1370 1371
f 1369 1371 1372
f 1373 1374 1375
f 1373 1375 1376
f 1377 1378 1379
f 1377 1379 1380
f 1381 1382 1383
f 1381 1383 1384
f 1385 1386 1387
f 1385 1387 1388
f 1389 1390 1391
f 1389 1391 1392
f 1393 1394 1395
f 1393 1395 1396
f 1397 1398 1399
f 1397 1399 1400
f 1401 1402 1403
f 1401 1403 1404
f 1405 1406 1407
f 1405 1407 1408
f 1409 1410 1411
f 1409 1411 1412
f 1413 1414 1415
f 1413 1415 1416
f 1417 1418 1419
f 1417 1419 1420
f 1421 1422 1423
f 1421 1423 1424
f 1425 1426 1427
f 1425 1427 1428
f 1429 1430 1431
f 1429 1431 1432
f 1433 1434 1435
f 1433 1435 1436
f 1437 1438 1439
f 1437 1439 1440
f 1441 1442 1443
f 1441 1443 1444
f 1445 1446 1447
f 1445 1447 1448
f 1449 1450 1451
f 1449 1451 1452
f 1453 1454 1455
f 1453 1455 1456
f 1457 1458 1459
f 1457 1459 1460
f 1461 1462 1463
f 1461 1463 1464
f 1465 1466 1467
f 1465 1467 1468
f 1469 1470 1471
f 1469 1471 1472
f 1473 1474 1475
f 1473 1475 1476
f 1477 1478 1479
f 1477 1479 1480
f 1481 1482 1483
f 1482 1481 1484
f 1482 1484 1485
f 1485 1484 1486
f 1485 1486 1487
f 1487 1486 1488
f 1487 1488 1489
f 1489 1488 1490
f 1489 1490 1491
f 1491 1490 1492
f 1491 1492 1493
f 1493 1492 1494
f 1493 1494 1495
f 1495 1494 1496
f 1495 1496 1497
f 1497 1496 1498
f 1497 1498 1499
f 1499 1498 1500
f 1499 1500 1501
f 1501 1500 1502
f 1501 1502 1503
f 1503 1502 1504
f 1503 1504 1505
f 1505 1504 1506
f 1505 1506 1507
f 1507 1506 1508
f 1507 1508 1509
f 1509 1508 1510
f 1510 1508 1511
f 1510 1511 1512
f 1513 1514 1515
f 1514 1513 1516
f 1516 1513 1517
f 1516 1517 1518
f 1518 1517 1519
f 1518 1519 1520
f 1520 1519 1521
f 1520 1521 1522
f 1522 1521 1523
f 1522 1523 1524
f 1524 1523 1525
f 1524 1525 1526
f 1526 1525 1527
f 1526 1527 1528
f 1528 1527 1529
f 1528 1529 1530
f 1530 1529 1531
f 1530 1531 1532
f 1532 1531 1533
f 1532 1533 1534
f 1534 1533 1535
f 1534 1535 1536
f 1536 1535 1537
f 1536 1537 1538
f 1536 1538 1539
f 1539 1538 1540
f 1539 1540 1541
f 1541 1540 1542
f 1541 1542 1543
f 1543 1542 1544
f 1545 1546 1547
f 1546 1545 1548
f 1546 1548 1549
f 1549 1548 1550
f 1549 1550 1551
f 1551 1550 1552
f 1551 1552 1553
f 1553 1552 1554
f 1553 1554 1555
f 1555 1554 1556
f 1555 1556 1557
f 1557 1556 1558
f 1557 1558 1559
f 1559 1558 1560
f 1559 1560 1561
f 1561 1560 1562
f 1562 1560 1563
f 1562 1563 1564
f 1564 1563 1565
f 1564 1565 1566
f 1566 1565 1567
f 1566 1567 1568
f 1568 1567 1569
f 1568 1569 1570
f 1570 1569 1571
f 1570 1571 1572
f 1570 1572 1573
f 1573 1572 1574
f 1573 1574 1575
f 1575 1574 1576
