mtllib batmobile.mtl
o wheel
usemtl Base
v 0.4103 0.0326 -0.0151
v 0.4103 0.0333 -0.0073
v 0.4834 0.0000 0.0000
v 0.4103 0.0216 0.0210
v 0.4103 0.0156 0.0260
v 0.4834 0.0000 0.0000
v 0.4103 -0.0459 -0.0151
v 0.4103 -0.0436 -0.0226
v 0.4834 0.0000 0.0000
v 0.4103 0.0303 -0.0226
v 0.4834 0.0000 0.0000
v 0.4103 0.0266 0.0149
v 0.4834 0.0000 0.0000
v 0.4103 -0.0466 -0.0073
v 0.4834 0.0000 0.0000
v 0.4103 0.0266 -0.0295
v 0.4834 0.0000 0.0000
v 0.4103 0.0303 0.0080
v 0.4834 0.0000 0.0000
v 0.4103 -0.0459 0.0005
v 0.4834 0.0000 0.0000
v 0.4103 0.0216 -0.0355
v 0.4834 0.0000 0.0000
v 0.4103 0.0326 0.0005
v 0.4834 0.0000 0.0000
v 0.4103 -0.0436 0.0080
v 0.4834 0.0000 0.0000
v 0.4103 0.0156 -0.0405
v 0.4834 0.0000 0.0000
v 0.4834 0.0000 0.0000
v 0.4103 -0.0399 0.0149
v 0.4834 0.0000 0.0000
v 0.4103 0.0086 -0.0442
v 0.4834 0.0000 0.0000
v 0.4103 -0.0349 0.0210
v 0.4834 0.0000 0.0000
v 0.4103 0.0011 -0.0465
v 0.4834 0.0000 0.0000
v 0.4103 -0.0289 0.0260
v 0.4834 0.0000 0.0000
v 0.4103 -0.0067 -0.0472
v 0.4834 0.0000 0.0000
v 0.4103 -0.0220 0.0297
v 0.4834 0.0000 0.0000
v 0.4103 -0.0145 -0.0465
v 0.4834 0.0000 0.0000
v 0.4103 -0.0145 0.0319
v 0.4834 0.0000 0.0000
v 0.4103 -0.0220 -0.0442
v 0.4834 0.0000 0.0000
v 0.4103 -0.0067 0.0327
v 0.4834 0.0000 0.0000
v 0.4103 -0.0289 -0.0405
v 0.4834 0.0000 0.0000
v 0.4103 0.0011 0.0319
v 0.4834 0.0000 0.0000
v 0.4103 -0.0349 -0.0355
v 0.4834 0.0000 0.0000
v 0.4103 0.0086 0.0297
v 0.4834 0.0000 0.0000
v 0.4103 -0.0399 -0.0295
v 0.4834 0.0000 0.0000
v 0.4834 0.0000 0.0000
v 0.4834 0.0000 0.0000
v -0.0027 0.7078 0.0000
v -0.0027 0.6942 -0.1381
v 0.2328 0.6942 -0.1381
v 0.2328 0.7078 0.0000
v -0.0027 0.6539 -0.2709
v 0.2328 0.6539 -0.2709
v -0.0027 0.5885 -0.3932
v 0.2328 0.5885 -0.3932
v -0.0027 0.5005 -0.5005
v 0.2328 0.5005 -0.5005
v -0.0027 0.3932 -0.5885
v 0.2328 0.3932 -0.5885
v -0.0027 0.2709 -0.6539
v 0.2328 0.2709 -0.6539
v -0.0027 0.1381 -0.6942
v 0.2328 0.1381 -0.6942
v -0.0027 0.0000 -0.7078
v 0.2328 0.0000 -0.7078
v -0.0027 -0.1381 -0.6942
v 0.2328 -0.1381 -0.6942
v -0.0027 -0.2709 -0.6539
v 0.2328 -0.2709 -0.6539
v -0.0027 -0.3932 -0.5885
v 0.2328 -0.3932 -0.5885
v -0.0027 -0.5005 -0.5005
v 0.2328 -0.5005 -0.5005
v -0.0027 -0.5885 -0.3932
v 0.2328 -0.5885 -0.3932
v -0.0027 -0.6539 -0.2709
v 0.2328 -0.6539 -0.2709
v -0.0027 -0.6942 -0.1381
v 0.2328 -0.6942 -0.1381
v -0.0027 -0.7078 0.0000
v 0.2328 -0.7078 0.0000
v -0.0027 -0.6942 0.1381
v 0.2328 -0.6942 0.1381
v -0.0027 -0.6539 0.2709
v 0.2328 -0.6539 0.2709
v -0.0027 -0.5885 0.3932
v 0.2328 -0.5885 0.3932
v -0.0027 -0.5005 0.5005
v 0.2328 -0.5005 0.5005
v -0.0027 -0.3932 0.5885
v 0.2328 -0.3932 0.5885
v -0.0027 -0.2709 0.6539
v 0.2328 -0.2709 0.6539
v -0.0027 -0.1381 0.6942
v 0.2328 -0.1381 0.6942
v -0.0027 0.0000 0.7078
v 0.2328 0.0000 0.7078
v -0.0027 0.1381 0.6942
v 0.2328 0.1381 0.6942
v -0.0027 0.2709 0.6539
v 0.2328 0.2709 0.6539
v -0.0027 0.3932 0.5885
v 0.2328 0.3932 0.5885
v -0.0027 0.5005 0.5005
v 0.2328 0.5005 0.5005
v -0.0027 0.5885 0.3932
v 0.2328 0.5885 0.3932
v -0.0027 0.6539 0.2709
v 0.2328 0.6539 0.2709
v -0.0027 0.6942 0.1381
v 0.2328 0.6942 0.1381
v -0.0027 0.7078 0.0000
v 0.2328 0.7078 0.0000
v -0.0027 0.7078 0.0000
v 0.2328 0.7078 0.0000
v 0.2328 0.6942 -0.1381
v -0.0027 0.6942 -0.1381
v 0.2328 0.6539 -0.2709
v -0.0027 0.6539 -0.2709
v 0.2328 0.5885 -0.3932
v -0.0027 0.5885 -0.3932
v 0.2328 0.5005 -0.5005
v -0.0027 0.5005 -0.5005
v 0.2328 0.3932 -0.5885
v -0.0027 0.3932 -0.5885
v 0.2328 0.2709 -0.6539
v -0.0027 0.2709 -0.6539
v 0.2328 0.1381 -0.6942
v -0.0027 0.1381 -0.6942
v 0.2328 0.0000 -0.7078
v -0.0027 0.0000 -0.7078
v 0.2328 -0.1381 -0.6942
v -0.0027 -0.1381 -0.6942
v 0.2328 -0.2709 -0.6539
v -0.0027 -0.2709 -0.6539
v 0.2328 -0.3932 -0.5885
v -0.0027 -0.3932 -0.5885
v 0.2328 -0.5005 -0.5005
v -0.0027 -0.5005 -0.5005
v 0.2328 -0.5885 -0.3932
v -0.0027 -0.5885 -0.3932
v 0.2328 -0.6539 -0.2709
v -0.0027 -0.6539 -0.2709
v 0.2328 -0.6942 -0.1381
v -0.0027 -0.6942 -0.1381
v 0.2328 -0.7078 0.0000
v -0.0027 -0.7078 0.0000
v 0.2328 -0.6942 0.1381
v -0.0027 -0.6942 0.1381
v 0.2328 -0.6539 0.2709
v -0.0027 -0.6539 0.2709
v 0.2328 -0.5885 0.3932
v -0.0027 -0.5885 0.3932
v 0.2328 -0.5005 0.5005
v -0.0027 -0.5005 0.5005
v 0.2328 -0.3932 0.5885
v -0.0027 -0.3932 0.5885
v 0.2328 -0.2709 0.6539
v -0.0027 -0.2709 0.6539
v 0.2328 -0.1381 0.6942
v -0.0027 -0.1381 0.6942
v 0.2328 0.0000 0.7078
v -0.0027 0.0000 0.7078
v 0.2328 0.1381 0.6942
v -0.0027 0.1381 0.6942
v 0.2328 0.2709 0.6539
v -0.0027 0.2709 0.6539
v 0.2328 0.3932 0.5885
v -0.0027 0.3932 0.5885
v 0.2328 0.5005 0.5005
v -0.0027 0.5005 0.5005
v 0.2328 0.5885 0.3932
v -0.0027 0.5885 0.3932
v 0.2328 0.6539 0.2709
v -0.0027 0.6539 0.2709
v 0.4060 -0.6539 0.2709
v 0.4060 -0.5885 0.3932
v 0.2328 0.6942 0.1381
v -0.0027 0.6942 0.1381
v 0.2328 0.7078 0.0000
v -0.0027 0.7078 0.0000
v 0.4060 0.4018 0.0799
v 0.4060 0.3785 0.1568
v 0.2437 0.3785 0.1568
v 0.2437 0.4018 0.0799
v 0.4060 0.3932 0.5885
v 0.4060 0.5005 0.5005
v 0.4060 0.3932 -0.5885
v 0.4060 0.2709 -0.6539
v 0.4060 -0.6539 -0.2709
v 0.4060 -0.6942 -0.1381
v 0.4060 -0.1381 0.6942
v 0.4060 0.0000 0.7078
v 0.4060 0.6942 -0.1381
v 0.4060 0.6539 -0.2709
v 0.4060 -0.2709 -0.6539
v 0.4060 -0.3932 -0.5885
v 0.4060 -0.5005 0.5005
v 0.4060 0.5885 0.3932
v 0.4060 0.1381 -0.6942
v 0.4060 -0.7078 0.0000
v 0.4060 0.1381 0.6942
v 0.4060 0.5885 -0.3932
v 0.4060 -0.5005 -0.5005
v 0.4060 -0.3932 0.5885
v 0.4060 0.6539 0.2709
v 0.4060 0.0000 -0.7078
v 0.4060 -0.6942 0.1381
v 0.4060 0.2709 0.6539
v 0.4060 0.5005 -0.5005
v 0.4060 -0.5885 -0.3932
v 0.4060 -0.2709 0.6539
v 0.4060 0.6942 0.1381
v 0.4060 -0.1381 -0.6942
v 0.4060 0.7078 0.0000
v 0.4060 0.7078 0.0000
v 0.4593 0.6333 0.0000
v 0.4593 0.6211 -0.1235
v 0.4060 0.6942 -0.1381
v 0.4060 0.7078 0.0000
v 0.4593 0.5851 -0.2423
v 0.4060 0.6539 -0.2709
v 0.4593 0.5265 -0.3518
v 0.4060 0.5885 -0.3932
v 0.4593 0.4478 -0.4478
v 0.4060 0.5005 -0.5005
v 0.4593 0.3518 -0.5265
v 0.4060 0.3932 -0.5885
v 0.4593 0.2423 -0.5851
v 0.4060 0.2709 -0.6539
v 0.4593 0.1235 -0.6211
v 0.4060 0.1381 -0.6942
v 0.4593 0.0000 -0.6333
v 0.4060 0.0000 -0.7078
v 0.4593 -0.1235 -0.6211
v 0.4060 -0.1381 -0.6942
v 0.4593 -0.2423 -0.5851
v 0.4060 -0.2709 -0.6539
v 0.4593 -0.3518 -0.5265
v 0.4060 -0.3932 -0.5885
v 0.4593 -0.4478 -0.4478
v 0.4060 -0.5005 -0.5005
v 0.4593 -0.5265 -0.3518
v 0.4060 -0.5885 -0.3932
v 0.4593 -0.5851 -0.2423
v 0.4060 -0.6539 -0.2709
v 0.4593 -0.6211 -0.1235
v 0.4060 -0.6942 -0.1381
v 0.4593 -0.6333 0.0000
v 0.4060 -0.7078 0.0000
v 0.4593 -0.6211 0.1235
v 0.4060 -0.6942 0.1381
v 0.4593 -0.5851 0.2423
v 0.4060 -0.6539 0.2709
v 0.4593 -0.5265 0.3518
v 0.4060 -0.5885 0.3932
v 0.4593 -0.4478 0.4478
v 0.4060 -0.5005 0.5005
v 0.4593 -0.3518 0.5265
v 0.4060 -0.3932 0.5885
v 0.4593 -0.2423 0.5851
v 0.4060 -0.2709 0.6539
v 0.4593 -0.1235 0.6211
v 0.4060 -0.1381 0.6942
v 0.4593 0.0000 0.6333
v 0.4060 0.0000 0.7078
v 0.4593 0.1235 0.6211
v 0.4060 0.1381 0.6942
v 0.4593 0.2423 0.5851
v 0.4060 0.2709 0.6539
v 0.4593 0.3518 0.5265
v 0.4060 0.3932 0.5885
v 0.4593 0.4478 0.4478
v 0.4060 0.5005 0.5005
v 0.4593 0.5265 0.3518
v 0.4060 0.5885 0.3932
v 0.4593 0.5851 0.2423
v 0.4060 0.6539 0.2709
v 0.4593 0.6211 0.1235
v 0.4060 0.6942 0.1381
v 0.2437 0.0000 0.1499
v 0.2437 -0.0292 0.1470
v 0.3745 -0.0292 0.1470
v 0.3745 0.0000 0.1499
v 0.4060 -0.3784 0.1568
v 0.4060 -0.4018 0.0799
v 0.2437 -0.4018 0.0799
v 0.2437 -0.3784 0.1568
v 0.4060 0.2276 -0.3406
v 0.4060 0.2897 -0.2897
v 0.2437 0.2897 -0.2897
v 0.2437 0.2276 -0.3406
v 0.4060 0.4096 0.0000
v 0.2437 0.4096 0.0000
v 0.4060 -0.3406 0.2276
v 0.2437 -0.3406 0.2276
v 0.4060 0.1568 -0.3785
v 0.2437 0.1568 -0.3785
v 0.4060 -0.2897 0.2897
v 0.2437 -0.2897 0.2897
v 0.4060 0.0799 -0.4018
v 0.2437 0.0799 -0.4018
v 0.4060 -0.2276 0.3406
v 0.2437 -0.2276 0.3406
v 0.4060 -0.0000 -0.4096
v 0.2437 -0.0000 -0.4096
v 0.4060 -0.1568 0.3785
v 0.2437 -0.1568 0.3785
v 0.4060 -0.0799 -0.4018
v 0.2437 -0.0799 -0.4018
v 0.4060 -0.0799 0.4018
v 0.2437 -0.0799 0.4018
v 0.4060 -0.1568 -0.3785
v 0.2437 -0.1568 -0.3785
v 0.4060 0.0000 0.4096
v 0.2437 0.0000 0.4096
v 0.4060 -0.2276 -0.3406
v 0.2437 -0.2276 -0.3406
v 0.4060 0.0799 0.4018
v 0.2437 0.0799 0.4018
v 0.4060 -0.2897 -0.2897
v 0.2437 -0.2897 -0.2897
v 0.4060 0.1568 0.3784
v 0.2437 0.1568 0.3784
v 0.4060 -0.3406 -0.2276
v 0.2437 -0.3406 -0.2276
v 0.4060 0.2276 0.3406
v 0.2437 0.2276 0.3406
v 0.4060 -0.3784 -0.1568
v 0.2437 -0.3784 -0.1568
v 0.4060 0.4018 -0.0799
v 0.2437 0.4018 -0.0799
v 0.4060 0.2897 0.2897
v 0.2437 0.2897 0.2897
v 0.4060 -0.4018 -0.0799
v 0.2437 -0.4018 -0.0799
v 0.4060 0.3784 -0.1568
v 0.2437 0.3784 -0.1568
v 0.4060 0.3406 0.2276
v 0.2437 0.3406 0.2276
v 0.4060 -0.4096 0.0000
v 0.2437 -0.4096 0.0000
v 0.4060 0.3406 -0.2276
v 0.2437 0.3406 -0.2276
v 0.2437 0.2276 -0.3406
v 0.2437 0.2897 -0.2897
v 0.3548 0.2897 -0.2897
v 0.3548 0.2276 -0.3406
v 0.2437 0.1470 -0.0292
v 0.2437 0.1385 -0.0574
v 0.2437 0.3784 -0.1568
v 0.2437 0.4018 -0.0799
v 0.2437 0.4018 0.0799
v 0.2437 0.3785 0.1568
v 0.3548 0.3785 0.1568
v 0.3548 0.4018 0.0799
v 0.2437 0.1246 -0.0833
v 0.2437 0.1060 -0.1060
v 0.2437 0.2897 -0.2897
v 0.2437 0.3406 -0.2276
v 0.2437 -0.1385 0.0574
v 0.2437 -0.1246 0.0833
v 0.3548 -0.1246 0.0833
v 0.3548 -0.1385 0.0574
v 0.2437 0.0833 -0.1246
v 0.2437 0.0574 -0.1385
v 0.2437 0.1568 -0.3785
v 0.2437 0.2276 -0.3406
v 0.2437 -0.2897 -0.2897
v 0.2437 -0.1060 -0.1060
v 0.3548 -0.1060 -0.1060
v 0.3548 -0.2897 -0.2897
v 0.2437 0.0292 -0.1470
v 0.2437 -0.0000 -0.1499
v 0.2437 -0.0000 -0.4096
v 0.2437 0.0799 -0.4018
v 0.2437 -0.0833 -0.1246
v 0.2437 -0.2276 -0.3406
v 0.3548 -0.2276 -0.3406
v 0.3548 -0.0833 -0.1246
v 0.2437 -0.0292 -0.1470
v 0.2437 -0.0574 -0.1385
v 0.2437 -0.1568 -0.3785
v 0.2437 -0.0799 -0.4018
v 0.2437 0.3406 -0.2276
v 0.2437 0.3784 -0.1568
v 0.3548 0.3784 -0.1568
v 0.3548 0.3406 -0.2276
v 0.2437 -0.0833 -0.1246
v 0.2437 -0.1060 -0.1060
v 0.2437 -0.2897 -0.2897
v 0.2437 -0.2276 -0.3406
v 0.2437 0.3406 0.2276
v 0.2437 0.2897 0.2897
v 0.3548 0.2897 0.2897
v 0.3548 0.3406 0.2276
v 0.2437 -0.1246 -0.0833
v 0.2437 -0.1385 -0.0574
v 0.2437 -0.3784 -0.1568
v 0.2437 -0.3406 -0.2276
v 0.2437 -0.1499 -0.0000
v 0.2437 -0.1470 0.0292
v 0.3548 -0.1470 0.0292
v 0.3548 -0.1499 -0.0000
v 0.2437 -0.1470 -0.0292
v 0.2437 -0.1499 -0.0000
v 0.2437 -0.4096 0.0000
v 0.2437 -0.4018 -0.0799
v 0.2437 -0.1568 -0.3785
v 0.2437 -0.0574 -0.1385
v 0.3548 -0.0574 -0.1385
v 0.3548 -0.1568 -0.3785
v 0.2437 -0.1470 0.0292
v 0.2437 -0.1385 0.0574
v 0.2437 -0.3784 0.1568
v 0.2437 -0.4018 0.0799
v 0.2437 -0.0292 -0.1470
v 0.2437 -0.0799 -0.4018
v 0.3548 -0.0799 -0.4018
v 0.3548 -0.0292 -0.1470
v 0.2437 -0.1246 0.0833
v 0.2437 -0.1060 0.1060
v 0.2437 -0.2897 0.2897
v 0.2437 -0.3406 0.2276
v 0.2437 0.4018 -0.0799
v 0.2437 0.4096 0.0000
v 0.3548 0.4096 0.0000
v 0.3548 0.4018 -0.0799
v 0.2437 -0.0833 0.1246
v 0.2437 -0.0574 0.1385
v 0.2437 -0.1568 0.3785
v 0.2437 -0.2276 0.3406
v 0.2437 0.2276 0.3406
v 0.2437 0.1568 0.3784
v 0.3548 0.1568 0.3784
v 0.3548 0.2276 0.3406
v 0.2437 -0.0292 0.1470
v 0.2437 0.0000 0.1499
v 0.2437 0.0000 0.4096
v 0.2437 -0.0799 0.4018
v 0.2437 -0.1385 -0.0574
v 0.2437 -0.1470 -0.0292
v 0.3548 -0.1470 -0.0292
v 0.3548 -0.1385 -0.0574
v 0.2437 0.0292 0.1470
v 0.2437 0.0574 0.1385
v 0.2437 0.1568 0.3784
v 0.2437 0.0799 0.4018
v 0.2437 -0.0000 -0.4096
v 0.2437 -0.0000 -0.1499
v 0.3548 -0.0000 -0.1499
v 0.3548 -0.0000 -0.4096
v 0.2437 0.0833 0.1246
v 0.2437 0.1060 0.1060
v 0.2437 0.2897 0.2897
v 0.2437 0.2276 0.3406
v 0.2437 0.0292 -0.1470
v 0.2437 0.0799 -0.4018
v 0.3548 0.0799 -0.4018
v 0.3548 0.0292 -0.1470
v 0.2437 0.1246 0.0833
v 0.2437 0.1385 0.0574
v 0.2437 0.3785 0.1568
v 0.2437 0.3406 0.2276
v 0.2437 0.0799 0.4018
v 0.2437 0.0000 0.4096
v 0.3548 0.0000 0.4096
v 0.3548 0.0799 0.4018
v 0.2437 0.1470 0.0292
v 0.2437 0.1499 0.0000
v 0.2437 0.4096 0.0000
v 0.2437 0.4018 0.0799
v 0.2437 -0.0833 -0.1246
v 0.2437 -0.0574 -0.1385
v 0.3745 -0.0574 -0.1385
v 0.3745 -0.0833 -0.1246
v 0.2437 0.0292 0.1470
v 0.3745 0.0292 0.1470
v 0.2437 -0.1060 -0.1060
v 0.3745 -0.1060 -0.1060
v 0.2437 0.0574 0.1385
v 0.3745 0.0574 0.1385
v 0.2437 -0.1246 -0.0833
v 0.3745 -0.1246 -0.0833
v 0.2437 0.0833 0.1246
v 0.3745 0.0833 0.1246
v 0.2437 -0.1385 -0.0574
v 0.3745 -0.1385 -0.0574
v 0.2437 0.1470 -0.0292
v 0.2437 0.1499 0.0000
v 0.3745 0.1499 0.0000
v 0.3745 0.1470 -0.0292
v 0.2437 0.1060 0.1060
v 0.3745 0.1060 0.1060
v 0.2437 -0.1470 -0.0292
v 0.3745 -0.1470 -0.0292
v 0.2437 0.1385 -0.0574
v 0.3745 0.1385 -0.0574
v 0.2437 0.1246 0.0833
v 0.3745 0.1246 0.0833
v 0.2437 -0.1499 -0.0000
v 0.3745 -0.1499 -0.0000
v 0.2437 0.1246 -0.0833
v 0.3745 0.1246 -0.0833
v 0.2437 0.1385 0.0574
v 0.3745 0.1385 0.0574
v 0.2437 -0.1470 0.0292
v 0.3745 -0.1470 0.0292
v 0.2437 0.1060 -0.1060
v 0.3745 0.1060 -0.1060
v 0.2437 0.1470 0.0292
v 0.3745 0.1470 0.0292
v 0.2437 -0.1385 0.0574
v 0.3745 -0.1385 0.0574
v 0.2437 0.0833 -0.1246
v 0.3745 0.0833 -0.1246
v 0.2437 -0.1246 0.0833
v 0.3745 -0.1246 0.0833
v 0.2437 0.0574 -0.1385
v 0.3745 0.0574 -0.1385
v 0.2437 -0.1060 0.1060
v 0.3745 -0.1060 0.1060
v 0.2437 0.0292 -0.1470
v 0.3745 0.0292 -0.1470
v 0.2437 -0.0833 0.1246
v 0.3745 -0.0833 0.1246
v 0.2437 -0.0000 -0.1499
v 0.3745 -0.0000 -0.1499
v 0.2437 -0.0574 0.1385
v 0.3745 -0.0574 0.1385
v 0.2437 -0.0292 -0.1470
v 0.3745 -0.0292 -0.1470
v 0.4060 0.4018 0.0799
v 0.4060 0.4096 0.0000
v 0.4593 0.4842 0.0000
v 0.4593 0.4749 0.0945
v 0.4779 0.5587 0.0000
v 0.4779 0.5480 0.1090
v 0.4779 0.5480 0.1090
v 0.4779 0.5587 0.0000
v 0.4060 0.3785 0.1568
v 0.4593 0.4473 0.1853
v 0.4779 0.5162 0.2138
v 0.4779 0.5162 0.2138
v 0.4060 0.3406 0.2276
v 0.4593 0.4026 0.2690
v 0.4779 0.4646 0.3104
v 0.4779 0.4646 0.3104
v 0.4060 0.2897 0.2897
v 0.4593 0.3424 0.3424
v 0.4779 0.3951 0.3951
v 0.4779 0.3951 0.3951
v 0.4060 0.2276 0.3406
v 0.4593 0.2690 0.4026
v 0.4779 0.3104 0.4646
v 0.4779 0.3104 0.4646
v 0.4060 0.1568 0.3784
v 0.4593 0.1853 0.4473
v 0.4779 0.2138 0.5162
v 0.4779 0.2138 0.5162
v 0.4060 0.0799 0.4018
v 0.4593 0.0945 0.4749
v 0.4779 0.1090 0.5480
v 0.4779 0.1090 0.5480
v 0.4060 0.0000 0.4096
v 0.4593 0.0000 0.4842
v 0.4779 0.0000 0.5587
v 0.4779 0.0000 0.5587
v 0.4060 -0.0799 0.4018
v 0.4593 -0.0945 0.4749
v 0.4779 -0.1090 0.5480
v 0.4779 -0.1090 0.5480
v 0.4060 -0.1568 0.3785
v 0.4593 -0.1853 0.4473
v 0.4779 -0.2138 0.5162
v 0.4779 -0.2138 0.5162
v 0.4060 -0.2276 0.3406
v 0.4593 -0.2690 0.4026
v 0.4779 -0.3104 0.4646
v 0.4779 -0.3104 0.4646
v 0.4060 -0.2897 0.2897
v 0.4593 -0.3424 0.3424
v 0.4779 -0.3951 0.3951
v 0.4779 -0.3951 0.3951
v 0.4060 -0.3406 0.2276
v 0.4593 -0.4026 0.2690
v 0.4779 -0.4646 0.3104
v 0.4779 -0.4646 0.3104
v 0.4060 -0.3784 0.1568
v 0.4593 -0.4473 0.1853
v 0.4779 -0.5162 0.2138
v 0.4779 -0.5162 0.2138
v 0.4060 -0.4018 0.0799
v 0.4593 -0.4749 0.0945
v 0.4779 -0.5480 0.1090
v 0.4779 -0.5480 0.1090
v 0.4060 -0.4096 0.0000
v 0.4593 -0.4842 0.0000
v 0.4779 -0.5587 0.0000
v 0.4779 -0.5587 0.0000
v 0.4060 -0.4018 -0.0799
v 0.4593 -0.4749 -0.0945
v 0.4779 -0.5480 -0.1090
v 0.4779 -0.5480 -0.1090
v 0.4060 -0.3784 -0.1568
v 0.4593 -0.4473 -0.1853
v 0.4779 -0.5162 -0.2138
v 0.4779 -0.5162 -0.2138
v 0.4060 -0.3406 -0.2276
v 0.4593 -0.4026 -0.2690
v 0.4779 -0.4646 -0.3104
v 0.4779 -0.4646 -0.3104
v 0.4060 -0.2897 -0.2897
v 0.4593 -0.3424 -0.3424
v 0.4779 -0.3951 -0.3951
v 0.4779 -0.3951 -0.3951
v 0.4060 -0.2276 -0.3406
v 0.4593 -0.2690 -0.4026
v 0.4779 -0.3104 -0.4646
v 0.4779 -0.3104 -0.4646
v 0.4060 -0.1568 -0.3785
v 0.4593 -0.1853 -0.4473
v 0.4779 -0.2138 -0.5162
v 0.4779 -0.2138 -0.5162
v 0.4060 -0.0799 -0.4018
v 0.4593 -0.0945 -0.4749
v 0.4779 -0.1090 -0.5480
v 0.4779 -0.1090 -0.5480
v 0.4060 -0.0000 -0.4096
v 0.4593 -0.0000 -0.4842
v 0.4779 -0.0000 -0.5587
v 0.4779 -0.0000 -0.5587
v 0.4060 0.0799 -0.4018
v 0.4593 0.0945 -0.4749
v 0.4779 0.1090 -0.5480
v 0.4779 0.1090 -0.5480
v 0.4060 0.1568 -0.3785
v 0.4593 0.1853 -0.4473
v 0.4779 0.2138 -0.5162
v 0.4779 0.2138 -0.5162
v 0.4060 0.2276 -0.3406
v 0.4593 0.2690 -0.4026
v 0.4779 0.3104 -0.4646
v 0.4779 0.3104 -0.4646
v 0.4060 0.2897 -0.2897
v 0.4593 0.3424 -0.3424
v 0.4779 0.3951 -0.3951
v 0.4779 0.3951 -0.3951
v 0.4060 0.3406 -0.2276
v 0.4593 0.4026 -0.2690
v 0.4779 0.4646 -0.3104
v 0.4779 0.4646 -0.3104
v 0.4060 0.3784 -0.1568
v 0.4593 0.4473 -0.1853
v 0.4779 0.5162 -0.2138
v 0.4779 0.5162 -0.2138
v 0.4060 0.4018 -0.0799
v 0.4593 0.4749 -0.0945
v 0.4779 0.5480 -0.1090
v 0.4779 0.5480 -0.1090
v -0.2383 0.7078 0.0000
v -0.2383 0.6942 -0.1381
v -0.2383 0.6539 -0.2709
v -0.2383 0.5885 -0.3932
v -0.2383 0.5005 -0.5005
v -0.2383 0.3932 -0.5885
v -0.2383 0.2709 -0.6539
v -0.2383 0.1381 -0.6942
v -0.2383 0.0000 -0.7078
v -0.2383 -0.1381 -0.6942
v -0.2383 -0.2709 -0.6539
v -0.2383 -0.3932 -0.5885
v -0.2383 -0.5005 -0.5005
v -0.2383 -0.5885 -0.3932
v -0.2383 -0.6539 -0.2709
v -0.2383 -0.6942 -0.1381
v -0.2383 -0.7078 0.0000
v -0.2383 -0.6942 0.1381
v -0.2383 -0.6539 0.2709
v -0.2383 -0.5885 0.3932
v -0.2383 -0.5005 0.5005
v -0.2383 -0.3932 0.5885
v -0.2383 -0.2709 0.6539
v -0.2383 -0.1381 0.6942
v -0.2383 0.0000 0.7078
v -0.2383 0.1381 0.6942
v -0.2383 0.2709 0.6539
v -0.2383 0.3932 0.5885
v -0.2383 0.5005 0.5005
v -0.2383 0.5885 0.3932
v -0.2383 0.6539 0.2709
v -0.2383 0.6942 0.1381
v -0.2383 0.7078 0.0000
v -0.2383 0.6942 -0.1381
v -0.2383 0.7078 0.0000
v -0.2383 0.6539 -0.2709
v -0.2383 0.5885 -0.3932
v -0.2383 0.5005 -0.5005
v -0.2383 0.3932 -0.5885
v -0.2383 0.2709 -0.6539
v -0.2383 0.1381 -0.6942
v -0.2383 0.0000 -0.7078
v -0.2383 -0.1381 -0.6942
v -0.2383 -0.2709 -0.6539
v -0.2383 -0.3932 -0.5885
v -0.2383 -0.5005 -0.5005
v -0.2383 -0.5885 -0.3932
v -0.2383 -0.6539 -0.2709
v -0.2383 -0.6942 -0.1381
v -0.2383 -0.7078 0.0000
v -0.2383 -0.6942 0.1381
v -0.2383 -0.6539 0.2709
v -0.2383 -0.5885 0.3932
v -0.2383 -0.5005 0.5005
v -0.2383 -0.3932 0.5885
v -0.2383 -0.2709 0.6539
v -0.2383 -0.1381 0.6942
v -0.2383 0.0000 0.7078
v -0.2383 0.1381 0.6942
v -0.2383 0.2709 0.6539
v -0.2383 0.3932 0.5885
v -0.2383 0.5005 0.5005
v -0.2383 0.5885 0.3932
v -0.2383 0.6539 0.2709
v -0.4114 -0.5885 0.3932
v -0.4114 -0.6539 0.2709
v -0.2383 0.6942 0.1381
v -0.2383 0.7078 0.0000
v -0.4114 0.4018 0.0799
v -0.2491 0.4018 0.0799
v -0.2491 0.3785 0.1568
v -0.4114 0.3785 0.1568
v -0.4114 0.5005 0.5005
v -0.4114 0.3932 0.5885
v -0.4114 0.2709 -0.6539
v -0.4114 0.3932 -0.5885
v -0.4114 -0.6942 -0.1381
v -0.4114 -0.6539 -0.2709
v -0.4114 0.0000 0.7078
v -0.4114 -0.1381 0.6942
v -0.4114 0.6539 -0.2709
v -0.4114 0.6942 -0.1381
v -0.4114 -0.3932 -0.5885
v -0.4114 -0.2709 -0.6539
v -0.4114 -0.5005 0.5005
v -0.4114 0.5885 0.3932
v -0.4114 0.1381 -0.6942
v -0.4114 -0.7078 0.0000
v -0.4114 0.1381 0.6942
v -0.4114 0.5885 -0.3932
v -0.4114 -0.5005 -0.5005
v -0.4114 -0.3932 0.5885
v -0.4114 0.6539 0.2709
v -0.4114 0.0000 -0.7078
v -0.4114 -0.6942 0.1381
v -0.4114 0.2709 0.6539
v -0.4114 0.5005 -0.5005
v -0.4114 -0.5885 -0.3932
v -0.4114 -0.2709 0.6539
v -0.4114 0.6942 0.1381
v -0.4114 -0.1381 -0.6942
v -0.4114 0.7078 0.0000
v -0.4114 0.7078 0.0000
v -0.4648 0.6333 0.0000
v -0.4114 0.7078 0.0000
v -0.4114 0.6942 -0.1381
v -0.4648 0.6211 -0.1235
v -0.4114 0.6539 -0.2709
v -0.4648 0.5851 -0.2423
v -0.4114 0.5885 -0.3932
v -0.4648 0.5265 -0.3518
v -0.4114 0.5005 -0.5005
v -0.4648 0.4478 -0.4478
v -0.4114 0.3932 -0.5885
v -0.4648 0.3518 -0.5265
v -0.4114 0.2709 -0.6539
v -0.4648 0.2423 -0.5851
v -0.4114 0.1381 -0.6942
v -0.4648 0.1235 -0.6211
v -0.4114 0.0000 -0.7078
v -0.4648 0.0000 -0.6333
v -0.4114 -0.1381 -0.6942
v -0.4648 -0.1235 -0.6211
v -0.4114 -0.2709 -0.6539
v -0.4648 -0.2423 -0.5851
v -0.4114 -0.3932 -0.5885
v -0.4648 -0.3518 -0.5265
v -0.4114 -0.5005 -0.5005
v -0.4648 -0.4478 -0.4478
v -0.4114 -0.5885 -0.3932
v -0.4648 -0.5265 -0.3518
v -0.4114 -0.6539 -0.2709
v -0.4648 -0.5851 -0.2423
v -0.4114 -0.6942 -0.1381
v -0.4648 -0.6211 -0.1235
v -0.4114 -0.7078 0.0000
v -0.4648 -0.6333 0.0000
v -0.4114 -0.6942 0.1381
v -0.4648 -0.6211 0.1235
v -0.4114 -0.6539 0.2709
v -0.4648 -0.5851 0.2423
v -0.4114 -0.5885 0.3932
v -0.4648 -0.5265 0.3518
v -0.4114 -0.5005 0.5005
v -0.4648 -0.4478 0.4478
v -0.4114 -0.3932 0.5885
v -0.4648 -0.3518 0.5265
v -0.4114 -0.2709 0.6539
v -0.4648 -0.2423 0.5851
v -0.4114 -0.1381 0.6942
v -0.4648 -0.1235 0.6211
v -0.4114 0.0000 0.7078
v -0.4648 0.0000 0.6333
v -0.4114 0.1381 0.6942
v -0.4648 0.1235 0.6211
v -0.4114 0.2709 0.6539
v -0.4648 0.2423 0.5851
v -0.4114 0.3932 0.5885
v -0.4648 0.3518 0.5265
v -0.4114 0.5005 0.5005
v -0.4648 0.4478 0.4478
v -0.4114 0.5885 0.3932
v -0.4648 0.5265 0.3518
v -0.4114 0.6539 0.2709
v -0.4648 0.5851 0.2423
v -0.4114 0.6942 0.1381
v -0.4648 0.6211 0.1235
v -0.2491 0.0000 0.1499
v -0.3800 0.0000 0.1499
v -0.3800 -0.0292 0.1470
v -0.2491 -0.0292 0.1470
v -0.4114 -0.3784 0.1568
v -0.2491 -0.3784 0.1568
v -0.2491 -0.4018 0.0799
v -0.4114 -0.4018 0.0799
v -0.4114 0.2276 -0.3406
v -0.2491 0.2276 -0.3406
v -0.2491 0.2897 -0.2897
v -0.4114 0.2897 -0.2897
v -0.4114 0.4096 0.0000
v -0.2491 0.4096 0.0000
v -0.4114 -0.3406 0.2276
v -0.2491 -0.3406 0.2276
v -0.4114 0.1568 -0.3785
v -0.2491 0.1568 -0.3785
v -0.4114 -0.2897 0.2897
v -0.2491 -0.2897 0.2897
v -0.4114 0.0799 -0.4018
v -0.2491 0.0799 -0.4018
v -0.4114 -0.2276 0.3406
v -0.2491 -0.2276 0.3406
v -0.4114 -0.0000 -0.4096
v -0.2491 -0.0000 -0.4096
v -0.4114 -0.1568 0.3785
v -0.2491 -0.1568 0.3785
v -0.4114 -0.0799 -0.4018
v -0.2491 -0.0799 -0.4018
v -0.4114 -0.0799 0.4018
v -0.2491 -0.0799 0.4018
v -0.4114 -0.1568 -0.3785
v -0.2491 -0.1568 -0.3785
v -0.4114 0.0000 0.4096
v -0.2491 0.0000 0.4096
v -0.4114 -0.2276 -0.3406
v -0.2491 -0.2276 -0.3406
v -0.4114 0.0799 0.4018
v -0.2491 0.0799 0.4018
v -0.4114 -0.2897 -0.2897
v -0.2491 -0.2897 -0.2897
v -0.4114 0.1568 0.3784
v -0.2491 0.1568 0.3784
v -0.4114 -0.3406 -0.2276
v -0.2491 -0.3406 -0.2276
v -0.4114 0.2276 0.3406
v -0.2491 0.2276 0.3406
v -0.4114 -0.3784 -0.1568
v -0.2491 -0.3784 -0.1568
v -0.4114 0.4018 -0.0799
v -0.2491 0.4018 -0.0799
v -0.4114 0.2897 0.2897
v -0.2491 0.2897 0.2897
v -0.4114 -0.4018 -0.0799
v -0.2491 -0.4018 -0.0799
v -0.4114 0.3784 -0.1568
v -0.2491 0.3784 -0.1568
v -0.4114 0.3406 0.2276
v -0.2491 0.3406 0.2276
v -0.4114 -0.4096 0.0000
v -0.2491 -0.4096 0.0000
v -0.4114 0.3406 -0.2276
v -0.2491 0.3406 -0.2276
v -0.2491 0.1499 0.0000
v -0.2491 0.4096 0.0000
v -0.2491 0.4018 -0.0799
v -0.2491 0.1470 -0.0292
v -0.2491 0.3784 -0.1568
v -0.2491 0.1385 -0.0574
v -0.2491 0.3406 -0.2276
v -0.2491 0.1246 -0.0833
v -0.2491 0.2897 -0.2897
v -0.2491 0.1060 -0.1060
v -0.2491 0.2276 -0.3406
v -0.2491 0.0833 -0.1246
v -0.2491 0.1568 -0.3785
v -0.2491 0.0574 -0.1385
v -0.2491 0.0799 -0.4018
v -0.2491 0.0292 -0.1470
v -0.2491 -0.0000 -0.4096
v -0.2491 -0.0000 -0.1499
v -0.2491 -0.0799 -0.4018
v -0.2491 -0.0292 -0.1470
v -0.2491 -0.1568 -0.3785
v -0.2491 -0.0574 -0.1385
v -0.2491 -0.2276 -0.3406
v -0.2491 -0.0833 -0.1246
v -0.2491 -0.2897 -0.2897
v -0.2491 -0.1060 -0.1060
v -0.2491 -0.3406 -0.2276
v -0.2491 -0.1246 -0.0833
v -0.2491 -0.3784 -0.1568
v -0.2491 -0.1385 -0.0574
v -0.2491 -0.4018 -0.0799
v -0.2491 -0.1470 -0.0292
v -0.2491 -0.4096 0.0000
v -0.2491 -0.1499 -0.0000
v -0.2491 -0.4018 0.0799
v -0.2491 -0.1470 0.0292
v -0.2491 -0.3784 0.1568
v -0.2491 -0.1385 0.0574
v -0.2491 -0.3406 0.2276
v -0.2491 -0.1246 0.0833
v -0.2491 -0.2897 0.2897
v -0.2491 -0.1060 0.1060
v -0.2491 -0.2276 0.3406
v -0.2491 -0.0833 0.1246
v -0.2491 -0.1568 0.3785
v -0.2491 -0.0574 0.1385
v -0.2491 -0.0799 0.4018
v -0.2491 -0.0292 0.1470
v -0.2491 0.0000 0.4096
v -0.2491 0.0000 0.1499
v -0.2491 0.0799 0.4018
v -0.2491 0.0292 0.1470
v -0.2491 0.1568 0.3784
v -0.2491 0.0574 0.1385
v -0.2491 0.2276 0.3406
v -0.2491 0.0833 0.1246
v -0.2491 0.2897 0.2897
v -0.2491 0.1060 0.1060
v -0.2491 0.3406 0.2276
v -0.2491 0.1246 0.0833
v -0.2491 0.3785 0.1568
v -0.2491 0.1385 0.0574
v -0.2491 0.4018 0.0799
v -0.2491 0.1470 0.0292
v -0.2491 -0.0833 -0.1246
v -0.3800 -0.0833 -0.1246
v -0.3800 -0.0574 -0.1385
v -0.2491 -0.0574 -0.1385
v -0.2491 0.0292 0.1470
v -0.3800 0.0292 0.1470
v -0.2491 -0.1060 -0.1060
v -0.3800 -0.1060 -0.1060
v -0.2491 0.0574 0.1385
v -0.3800 0.0574 0.1385
v -0.2491 -0.1246 -0.0833
v -0.3800 -0.1246 -0.0833
v -0.2491 0.0833 0.1246
v -0.3800 0.0833 0.1246
v -0.2491 -0.1385 -0.0574
v -0.3800 -0.1385 -0.0574
v -0.2491 0.1470 -0.0292
v -0.3800 0.1470 -0.0292
v -0.3800 0.1499 0.0000
v -0.2491 0.1499 0.0000
v -0.2491 0.1060 0.1060
v -0.3800 0.1060 0.1060
v -0.2491 -0.1470 -0.0292
v -0.3800 -0.1470 -0.0292
v -0.2491 0.1385 -0.0574
v -0.3800 0.1385 -0.0574
v -0.2491 0.1246 0.0833
v -0.3800 0.1246 0.0833
v -0.2491 -0.1499 -0.0000
v -0.3800 -0.1499 -0.0000
v -0.2491 0.1246 -0.0833
v -0.3800 0.1246 -0.0833
v -0.2491 0.1385 0.0574
v -0.3800 0.1385 0.0574
v -0.2491 -0.1470 0.0292
v -0.3800 -0.1470 0.0292
v -0.2491 0.1060 -0.1060
v -0.3800 0.1060 -0.1060
v -0.2491 0.1470 0.0292
v -0.3800 0.1470 0.0292
v -0.2491 -0.1385 0.0574
v -0.3800 -0.1385 0.0574
v -0.2491 0.0833 -0.1246
v -0.3800 0.0833 -0.1246
v -0.2491 -0.1246 0.0833
v -0.3800 -0.1246 0.0833
v -0.2491 0.0574 -0.1385
v -0.3800 0.0574 -0.1385
v -0.2491 -0.1060 0.1060
v -0.3800 -0.1060 0.1060
v -0.2491 0.0292 -0.1470
v -0.3800 0.0292 -0.1470
v -0.2491 -0.0833 0.1246
v -0.3800 -0.0833 0.1246
v -0.2491 -0.0000 -0.1499
v -0.3800 -0.0000 -0.1499
v -0.2491 -0.0574 0.1385
v -0.3800 -0.0574 0.1385
v -0.2491 -0.0292 -0.1470
v -0.3800 -0.0292 -0.1470
v -0.4114 0.4018 0.0799
v -0.4648 0.4749 0.0945
v -0.4648 0.4842 0.0000
v -0.4114 0.4096 0.0000
v -0.4834 0.5480 0.1090
v -0.4834 0.5587 0.0000
v -0.4834 0.5480 0.1090
v -0.4834 0.5587 0.0000
v -0.4114 0.3785 0.1568
v -0.4648 0.4473 0.1853
v -0.4834 0.5162 0.2138
v -0.4834 0.5162 0.2138
v -0.4114 0.3406 0.2276
v -0.4648 0.4026 0.2690
v -0.4834 0.4646 0.3104
v -0.4834 0.4646 0.3104
v -0.4114 0.2897 0.2897
v -0.4648 0.3424 0.3424
v -0.4834 0.3951 0.3951
v -0.4834 0.3951 0.3951
v -0.4114 0.2276 0.3406
v -0.4648 0.2690 0.4026
v -0.4834 0.3104 0.4646
v -0.4834 0.3104 0.4646
v -0.4114 0.1568 0.3784
v -0.4648 0.1853 0.4473
v -0.4834 0.2138 0.5162
v -0.4834 0.2138 0.5162
v -0.4114 0.0799 0.4018
v -0.4648 0.0945 0.4749
v -0.4834 0.1090 0.5480
v -0.4834 0.1090 0.5480
v -0.4114 0.0000 0.4096
v -0.4648 0.0000 0.4842
v -0.4834 0.0000 0.5587
v -0.4834 0.0000 0.5587
v -0.4114 -0.0799 0.4018
v -0.4648 -0.0945 0.4749
v -0.4834 -0.1090 0.5480
v -0.4834 -0.1090 0.5480
v -0.4114 -0.1568 0.3785
v -0.4648 -0.1853 0.4473
v -0.4834 -0.2138 0.5162
v -0.4834 -0.2138 0.5162
v -0.4114 -0.2276 0.3406
v -0.4648 -0.2690 0.4026
v -0.4834 -0.3104 0.4646
v -0.4834 -0.3104 0.4646
v -0.4114 -0.2897 0.2897
v -0.4648 -0.3424 0.3424
v -0.4834 -0.3951 0.3951
v -0.4834 -0.3951 0.3951
v -0.4114 -0.3406 0.2276
v -0.4648 -0.4026 0.2690
v -0.4834 -0.4646 0.3104
v -0.4834 -0.4646 0.3104
v -0.4114 -0.3784 0.1568
v -0.4648 -0.4473 0.1853
v -0.4834 -0.5162 0.2138
v -0.4834 -0.5162 0.2138
v -0.4114 -0.4018 0.0799
v -0.4648 -0.4749 0.0945
v -0.4834 -0.5480 0.1090
v -0.4834 -0.5480 0.1090
v -0.4114 -0.4096 0.0000
v -0.4648 -0.4842 0.0000
v -0.4834 -0.5587 0.0000
v -0.4834 -0.5587 0.0000
v -0.4114 -0.4018 -0.0799
v -0.4648 -0.4749 -0.0945
v -0.4834 -0.5480 -0.1090
v -0.4834 -0.5480 -0.1090
v -0.4114 -0.3784 -0.1568
v -0.4648 -0.4473 -0.1853
v -0.4834 -0.5162 -0.2138
v -0.4834 -0.5162 -0.2138
v -0.4114 -0.3406 -0.2276
v -0.4648 -0.4026 -0.2690
v -0.4834 -0.4646 -0.3104
v -0.4834 -0.4646 -0.3104
v -0.4114 -0.2897 -0.2897
v -0.4648 -0.3424 -0.3424
v -0.4834 -0.3951 -0.3951
v -0.4834 -0.3951 -0.3951
v -0.4114 -0.2276 -0.3406
v -0.4648 -0.2690 -0.4026
v -0.4834 -0.3104 -0.4646
v -0.4834 -0.3104 -0.4646
v -0.4114 -0.1568 -0.3785
v -0.4648 -0.1853 -0.4473
v -0.4834 -0.2138 -0.5162
v -0.4834 -0.2138 -0.5162
v -0.4114 -0.0799 -0.4018
v -0.4648 -0.0945 -0.4749
v -0.4834 -0.1090 -0.5480
v -0.4834 -0.1090 -0.5480
v -0.4114 -0.0000 -0.4096
v -0.4648 -0.0000 -0.4842
v -0.4834 -0.0000 -0.5587
v -0.4834 -0.0000 -0.5587
v -0.4114 0.0799 -0.4018
v -0.4648 0.0945 -0.4749
v -0.4834 0.1090 -0.5480
v -0.4834 0.1090 -0.5480
v -0.4114 0.1568 -0.3785
v -0.4648 0.1853 -0.4473
v -0.4834 0.2138 -0.5162
v -0.4834 0.2138 -0.5162
v -0.4114 0.2276 -0.3406
v -0.4648 0.2690 -0.4026
v -0.4834 0.3104 -0.4646
v -0.4834 0.3104 -0.4646
v -0.4114 0.2897 -0.2897
v -0.4648 0.3424 -0.3424
v -0.4834 0.3951 -0.3951
v -0.4834 0.3951 -0.3951
v -0.4114 0.3406 -0.2276
v -0.4648 0.4026 -0.2690
v -0.4834 0.4646 -0.3104
v -0.4834 0.4646 -0.3104
v -0.4114 0.3784 -0.1568
v -0.4648 0.4473 -0.1853
v -0.4834 0.5162 -0.2138
v -0.4834 0.5162 -0.2138
v -0.4114 0.4018 -0.0799
v -0.4648 0.4749 -0.0945
v -0.4834 0.5480 -0.1090
v -0.4834 0.5480 -0.1090
v 0.4103 0.0333 -0.0073
v 0.4103 0.0326 -0.0151
v 0.3745 0.1470 -0.0292
v 0.3745 0.1499 0.0000
v 0.4103 0.0303 -0.0226
v 0.3745 0.1385 -0.0574
v 0.4103 0.0266 -0.0295
v 0.3745 0.1246 -0.0833
v 0.4103 0.0216 -0.0355
v 0.3745 0.1060 -0.1060
v 0.4103 0.0156 -0.0405
v 0.3745 0.0833 -0.1246
v 0.4103 0.0086 -0.0442
v 0.3745 0.0574 -0.1385
v 0.4103 0.0011 -0.0465
v 0.3745 0.0292 -0.1470
v 0.4103 -0.0067 -0.0472
v 0.3745 -0.0000 -0.1499
v 0.4103 -0.0145 -0.0465
v 0.3745 -0.0292 -0.1470
v 0.4103 -0.0220 -0.0442
v 0.3745 -0.0574 -0.1385
v 0.4103 -0.0289 -0.0405
v 0.3745 -0.0833 -0.1246
v 0.4103 -0.0349 -0.0355
v 0.3745 -0.1060 -0.1060
v 0.4103 -0.0399 -0.0295
v 0.3745 -0.1246 -0.0833
v 0.4103 -0.0436 -0.0226
v 0.3745 -0.1385 -0.0574
v 0.4103 -0.0459 -0.0151
v 0.3745 -0.1470 -0.0292
v 0.4103 -0.0466 -0.0073
v 0.3745 -0.1499 -0.0000
v 0.4103 -0.0459 0.0005
v 0.3745 -0.1470 0.0292
v 0.4103 -0.0436 0.0080
v 0.3745 -0.1385 0.0574
v 0.4103 -0.0399 0.0149
v 0.3745 -0.1246 0.0833
v 0.4103 -0.0349 0.0210
v 0.3745 -0.1060 0.1060
v 0.4103 -0.0289 0.0260
v 0.3745 -0.0833 0.1246
v 0.4103 -0.0220 0.0297
v 0.3745 -0.0574 0.1385
v 0.4103 -0.0145 0.0319
v 0.3745 -0.0292 0.1470
v 0.4103 -0.0067 0.0327
v 0.3745 0.0000 0.1499
v 0.4103 0.0011 0.0319
v 0.3745 0.0292 0.1470
v 0.4103 0.0086 0.0297
v 0.3745 0.0574 0.1385
v 0.4103 0.0156 0.0260
v 0.3745 0.0833 0.1246
v 0.4103 0.0216 0.0210
v 0.3745 0.1060 0.1060
v 0.4103 0.0266 0.0149
v 0.3745 0.1246 0.0833
v 0.4103 0.0303 0.0080
v 0.3745 0.1385 0.0574
v 0.4103 0.0326 0.0005
v 0.3745 0.1470 0.0292
v 0.2437 -0.2897 0.2897
v 0.2437 -0.1060 0.1060
v 0.3548 -0.1060 0.1060
v 0.3548 -0.2897 0.2897
v 0.2437 -0.1246 0.0833
v 0.2437 -0.3406 0.2276
v 0.3548 -0.3406 0.2276
v 0.3548 -0.1246 0.0833
v 0.2437 -0.2276 -0.3406
v 0.2437 -0.1568 -0.3785
v 0.3548 -0.1568 -0.3785
v 0.3548 -0.2276 -0.3406
v 0.2437 0.0000 0.1499
v 0.2437 0.0292 0.1470
v 0.3548 0.0292 0.1470
v 0.3548 0.0000 0.1499
v 0.2437 -0.3784 0.1568
v 0.2437 -0.1385 0.0574
v 0.3548 -0.1385 0.0574
v 0.3548 -0.3784 0.1568
v 0.2437 -0.1470 0.0292
v 0.2437 -0.4018 0.0799
v 0.3548 -0.4018 0.0799
v 0.3548 -0.1470 0.0292
v 0.2437 -0.0799 -0.4018
v 0.2437 -0.0000 -0.4096
v 0.3548 -0.0000 -0.4096
v 0.3548 -0.0799 -0.4018
v 0.2437 -0.0574 0.1385
v 0.2437 -0.0292 0.1470
v 0.3548 -0.0292 0.1470
v 0.3548 -0.0574 0.1385
v 0.2437 -0.4096 0.0000
v 0.2437 -0.1499 -0.0000
v 0.3548 -0.1499 -0.0000
v 0.3548 -0.4096 0.0000
v 0.2437 -0.1470 -0.0292
v 0.2437 -0.4018 -0.0799
v 0.3548 -0.4018 -0.0799
v 0.3548 -0.1470 -0.0292
v 0.2437 0.0799 -0.4018
v 0.2437 0.1568 -0.3785
v 0.3548 0.1568 -0.3785
v 0.3548 0.0799 -0.4018
v 0.2437 -0.1060 0.1060
v 0.2437 -0.0833 0.1246
v 0.3548 -0.0833 0.1246
v 0.3548 -0.1060 0.1060
v 0.2437 -0.3784 -0.1568
v 0.2437 -0.1385 -0.0574
v 0.3548 -0.1385 -0.0574
v 0.3548 -0.3784 -0.1568
v 0.2437 -0.1246 -0.0833
v 0.2437 -0.3406 -0.2276
v 0.3548 -0.3406 -0.2276
v 0.3548 -0.1246 -0.0833
v 0.3548 0.1385 0.0574
v 0.3548 0.1470 0.0292
v 0.3548 0.4018 0.0799
v 0.3548 0.3785 0.1568
v 0.3548 0.1060 0.1060
v 0.3548 0.1246 0.0833
v 0.3548 0.3406 0.2276
v 0.3548 0.2897 0.2897
v 0.3548 0.0574 0.1385
v 0.3548 0.0833 0.1246
v 0.3548 0.2276 0.3406
v 0.3548 0.1568 0.3784
v 0.3548 0.0000 0.1499
v 0.3548 0.0292 0.1470
v 0.3548 0.0799 0.4018
v 0.3548 0.0000 0.4096
v 0.3548 -0.0574 0.1385
v 0.3548 -0.0292 0.1470
v 0.3548 -0.0799 0.4018
v 0.3548 -0.1568 0.3785
v 0.3548 -0.1060 0.1060
v 0.3548 -0.0833 0.1246
v 0.3548 -0.2276 0.3406
v 0.3548 -0.2897 0.2897
v 0.3548 -0.1385 0.0574
v 0.3548 -0.1246 0.0833
v 0.3548 -0.3406 0.2276
v 0.3548 -0.3784 0.1568
v 0.3548 -0.1499 -0.0000
v 0.3548 -0.1470 0.0292
v 0.3548 -0.4018 0.0799
v 0.3548 -0.4096 0.0000
v 0.3548 -0.1385 -0.0574
v 0.3548 -0.1470 -0.0292
v 0.3548 -0.4018 -0.0799
v 0.3548 -0.3784 -0.1568
v 0.3548 -0.1060 -0.1060
v 0.3548 -0.1246 -0.0833
v 0.3548 -0.3406 -0.2276
v 0.3548 -0.2897 -0.2897
v 0.3548 -0.0574 -0.1385
v 0.3548 -0.0833 -0.1246
v 0.3548 -0.2276 -0.3406
v 0.3548 -0.1568 -0.3785
v 0.3548 -0.0000 -0.1499
v 0.3548 -0.0292 -0.1470
v 0.3548 -0.0799 -0.4018
v 0.3548 -0.0000 -0.4096
v 0.3548 0.0574 -0.1385
v 0.3548 0.0292 -0.1470
v 0.3548 0.0799 -0.4018
v 0.3548 0.1568 -0.3785
v 0.3548 0.1060 -0.1060
v 0.3548 0.0833 -0.1246
v 0.3548 0.2276 -0.3406
v 0.3548 0.2897 -0.2897
v 0.3548 0.1385 -0.0574
v 0.3548 0.1246 -0.0833
v 0.3548 0.3406 -0.2276
v 0.3548 0.3784 -0.1568
v 0.3548 0.1499 0.0000
v 0.3548 0.1470 -0.0292
v 0.3548 0.4018 -0.0799
v 0.3548 0.4096 0.0000
v 0.2437 0.0574 0.1385
v 0.2437 0.0833 0.1246
v 0.3548 0.0833 0.1246
v 0.3548 0.0574 0.1385
v 0.2437 0.1499 0.0000
v 0.2437 0.1470 -0.0292
v 0.3548 0.1470 -0.0292
v 0.3548 0.1499 0.0000
v 0.2437 -0.3406 -0.2276
v 0.2437 -0.2897 -0.2897
v 0.3548 -0.2897 -0.2897
v 0.3548 -0.3406 -0.2276
v 0.2437 -0.0833 0.1246
v 0.2437 -0.2276 0.3406
v 0.3548 -0.2276 0.3406
v 0.3548 -0.0833 0.1246
v 0.2437 -0.1568 0.3785
v 0.2437 -0.0574 0.1385
v 0.3548 -0.0574 0.1385
v 0.3548 -0.1568 0.3785
v 0.2437 0.1060 0.1060
v 0.2437 0.1246 0.0833
v 0.3548 0.1246 0.0833
v 0.3548 0.1060 0.1060
v 0.2437 0.1385 -0.0574
v 0.2437 0.1246 -0.0833
v 0.3548 0.1246 -0.0833
v 0.3548 0.1385 -0.0574
v 0.2437 -0.4018 -0.0799
v 0.2437 -0.3784 -0.1568
v 0.3548 -0.3784 -0.1568
v 0.3548 -0.4018 -0.0799
v 0.2437 -0.0292 0.1470
v 0.2437 -0.0799 0.4018
v 0.3548 -0.0799 0.4018
v 0.3548 -0.0292 0.1470
v 0.2437 0.0000 0.4096
v 0.2437 0.0000 0.1499
v 0.3548 0.0000 0.1499
v 0.3548 0.0000 0.4096
v 0.2437 0.1385 0.0574
v 0.2437 0.1470 0.0292
v 0.3548 0.1470 0.0292
v 0.3548 0.1385 0.0574
v 0.2437 0.1060 -0.1060
v 0.2437 0.0833 -0.1246
v 0.3548 0.0833 -0.1246
v 0.3548 0.1060 -0.1060
v 0.2437 -0.4018 0.0799
v 0.2437 -0.4096 0.0000
v 0.3548 -0.4096 0.0000
v 0.3548 -0.4018 0.0799
v 0.2437 0.0292 0.1470
v 0.2437 0.0799 0.4018
v 0.3548 0.0799 0.4018
v 0.3548 0.0292 0.1470
v 0.2437 0.1568 0.3784
v 0.2437 0.0574 0.1385
v 0.3548 0.0574 0.1385
v 0.3548 0.1568 0.3784
v 0.2437 0.4096 0.0000
v 0.2437 0.1499 0.0000
v 0.3548 0.1499 0.0000
v 0.3548 0.4096 0.0000
v 0.2437 0.0574 -0.1385
v 0.2437 0.0292 -0.1470
v 0.3548 0.0292 -0.1470
v 0.3548 0.0574 -0.1385
v 0.2437 -0.3406 0.2276
v 0.2437 -0.3784 0.1568
v 0.3548 -0.3784 0.1568
v 0.3548 -0.3406 0.2276
v 0.2437 0.0833 0.1246
v 0.2437 0.2276 0.3406
v 0.3548 0.2276 0.3406
v 0.3548 0.0833 0.1246
v 0.2437 0.1470 -0.0292
v 0.2437 0.4018 -0.0799
v 0.3548 0.4018 -0.0799
v 0.3548 0.1470 -0.0292
v 0.2437 0.2897 0.2897
v 0.2437 0.1060 0.1060
v 0.3548 0.1060 0.1060
v 0.3548 0.2897 0.2897
v 0.2437 0.3784 -0.1568
v 0.2437 0.1385 -0.0574
v 0.3548 0.1385 -0.0574
v 0.3548 0.3784 -0.1568
v 0.2437 -0.0000 -0.1499
v 0.2437 -0.0292 -0.1470
v 0.3548 -0.0292 -0.1470
v 0.3548 -0.0000 -0.1499
v 0.2437 -0.2276 0.3406
v 0.2437 -0.2897 0.2897
v 0.3548 -0.2897 0.2897
v 0.3548 -0.2276 0.3406
v 0.2437 0.1246 0.0833
v 0.2437 0.3406 0.2276
v 0.3548 0.3406 0.2276
v 0.3548 0.1246 0.0833
v 0.2437 0.1246 -0.0833
v 0.2437 0.3406 -0.2276
v 0.3548 0.3406 -0.2276
v 0.3548 0.1246 -0.0833
v 0.2437 0.3785 0.1568
v 0.2437 0.1385 0.0574
v 0.3548 0.1385 0.0574
v 0.3548 0.3785 0.1568
v 0.2437 0.2897 -0.2897
v 0.2437 0.1060 -0.1060
v 0.3548 0.1060 -0.1060
v 0.3548 0.2897 -0.2897
v 0.2437 -0.0574 -0.1385
v 0.2437 -0.0833 -0.1246
v 0.3548 -0.0833 -0.1246
v 0.3548 -0.0574 -0.1385
v 0.2437 -0.0799 0.4018
v 0.2437 -0.1568 0.3785
v 0.3548 -0.1568 0.3785
v 0.3548 -0.0799 0.4018
v 0.2437 0.1470 0.0292
v 0.2437 0.4018 0.0799
v 0.3548 0.4018 0.0799
v 0.3548 0.1470 0.0292
v 0.2437 0.0833 -0.1246
v 0.2437 0.2276 -0.3406
v 0.3548 0.2276 -0.3406
v 0.3548 0.0833 -0.1246
v 0.2437 0.1568 -0.3785
v 0.2437 0.0574 -0.1385
v 0.3548 0.0574 -0.1385
v 0.3548 0.1568 -0.3785
v 0.2437 -0.1060 -0.1060
v 0.2437 -0.1246 -0.0833
v 0.3548 -0.1246 -0.0833
v 0.3548 -0.1060 -0.1060
v 0.2328 0.1381 0.6942
v 0.2328 -0.1381 0.6942
v 0.2328 0.0000 0.7078
v 0.2328 -0.2709 0.6539
v 0.2328 0.2709 0.6539
v 0.2328 -0.3932 0.5885
v 0.2328 0.3932 0.5885
v 0.2328 -0.5005 0.5005
v 0.2328 0.5005 0.5005
v 0.2328 -0.5885 0.3932
v 0.2328 0.5885 0.3932
v 0.2328 -0.6539 0.2709
v 0.2328 0.6539 0.2709
v 0.2328 -0.6942 0.1381
v 0.2328 0.6942 0.1381
v 0.2328 -0.7078 0.0000
v 0.2328 0.7078 0.0000
v 0.2328 -0.6942 -0.1381
v 0.2328 0.6942 -0.1381
v 0.2328 -0.6539 -0.2709
v 0.2328 0.6539 -0.2709
v 0.2328 -0.5885 -0.3932
v 0.2328 0.5885 -0.3932
v 0.2328 -0.5005 -0.5005
v 0.2328 0.5005 -0.5005
v 0.2328 0.3932 -0.5885
v 0.2328 -0.3932 -0.5885
v 0.2328 0.2709 -0.6539
v 0.2328 -0.2709 -0.6539
v 0.2328 0.1381 -0.6942
v 0.2328 -0.1381 -0.6942
v 0.2328 0.0000 -0.7078
v -0.2383 -0.1381 0.6942
v -0.2383 0.1381 0.6942
v -0.2383 0.0000 0.7078
v -0.2383 -0.2709 0.6539
v -0.2383 0.2709 0.6539
v -0.2383 -0.3932 0.5885
v -0.2383 0.3932 0.5885
v -0.2383 -0.5005 0.5005
v -0.2383 0.5005 0.5005
v -0.2383 -0.5885 0.3932
v -0.2383 0.5885 0.3932
v -0.2383 -0.6539 0.2709
v -0.2383 0.6539 0.2709
v -0.2383 -0.6942 0.1381
v -0.2383 0.6942 0.1381
v -0.2383 -0.7078 0.0000
v -0.2383 0.7078 0.0000
v -0.2383 -0.6942 -0.1381
v -0.2383 0.6942 -0.1381
v -0.2383 -0.6539 -0.2709
v -0.2383 0.6539 -0.2709
v -0.2383 -0.5885 -0.3932
v -0.2383 0.5885 -0.3932
v -0.2383 -0.5005 -0.5005
v -0.2383 0.5005 -0.5005
v -0.2383 -0.3932 -0.5885
v -0.2383 0.3932 -0.5885
v -0.2383 -0.2709 -0.6539
v -0.2383 0.2709 -0.6539
v -0.2383 0.1381 -0.6942
v -0.2383 -0.1381 -0.6942
v -0.2383 0.0000 -0.7078
v -0.3800 0.0292 0.1470
v -0.3800 -0.0292 0.1470
v -0.3800 0.0000 0.1499
v -0.3800 -0.0574 0.1385
v -0.3800 0.0574 0.1385
v -0.3800 -0.0833 0.1246
v -0.3800 0.0833 0.1246
v -0.3800 -0.1060 0.1060
v -0.3800 0.1060 0.1060
v -0.3800 -0.1246 0.0833
v -0.3800 0.1246 0.0833
v -0.3800 -0.1385 0.0574
v -0.3800 0.1385 0.0574
v -0.3800 -0.1470 0.0292
v -0.3800 0.1470 0.0292
v -0.3800 -0.1499 -0.0000
v -0.3800 0.1499 0.0000
v -0.3800 0.1470 -0.0292
v -0.3800 -0.1470 -0.0292
v -0.3800 0.1385 -0.0574
v -0.3800 -0.1385 -0.0574
v -0.3800 0.1246 -0.0833
v -0.3800 -0.1246 -0.0833
v -0.3800 0.1060 -0.1060
v -0.3800 -0.1060 -0.1060
v -0.3800 0.0833 -0.1246
v -0.3800 -0.0833 -0.1246
v -0.3800 -0.0574 -0.1385
v -0.3800 0.0574 -0.1385
v -0.3800 0.0292 -0.1470
v -0.3800 -0.0292 -0.1470
v -0.3800 -0.0000 -0.1499
f 1 2 3
f 4 5 6
f 7 8 9
f 10 1 11
f 12 4 13
f 14 7 15
f 16 10 17
f 18 12 19
f 20 14 21
f 22 16 23
f 24 18 25
f 26 20 27
f 28 22 29
f 2 24 30
f 31 26 32
f 33 28 34
f 35 31 36
f 37 33 38
f 39 35 40
f 41 37 42
f 43 39 44
f 45 41 46
f 47 43 48
f 49 45 50
f 51 47 52
f 53 49 54
f 55 51 56
f 57 53 58
f 59 55 60
f 61 57 62
f 5 59 63
f 8 61 64
f 65 66 67
f 65 67 68
f 66 69 70
f 66 70 67
f 69 71 72
f 69 72 70
f 71 73 74
f 71 74 72
f 73 75 76
f 73 76 74
f 75 77 78
f 75 78 76
f 77 79 80
f 77 80 78
f 79 81 82
f 79 82 80
f 81 83 84
f 81 84 82
f 83 85 86
f 83 86 84
f 85 87 88
f 85 88 86
f 87 89 90
f 87 90 88
f 89 91 92
f 89 92 90
f 91 93 94
f 91 94 92
f 93 95 96
f 93 96 94
f 95 97 98
f 95 98 96
f 97 99 100
f 97 100 98
f 99 101 102
f 99 102 100
f 101 103 104
f 101 104 102
f 103 105 106
f 103 106 104
f 105 107 108
f 105 108 106
f 107 109 110
f 107 110 108
f 109 111 112
f 109 112 110
f 111 113 114
f 111 114 112
f 113 115 116
f 113 116 114
f 115 117 118
f 115 118 116
f 117 119 120
f 117 120 118
f 119 121 122
f 119 122 120
f 121 123 124
f 121 124 122
f 123 125 126
f 123 126 124
f 125 127 128
f 125 128 126
f 127 129 130
f 127 130 128
f 131 132 133
f 131 133 134
f 134 133 135
f 134 135 136
f 136 135 137
f 136 137 138
f 138 137 139
f 138 139 140
f 140 139 141
f 140 141 142
f 142 141 143
f 142 143 144
f 144 143 145
f 144 145 146
f 146 145 147
f 146 147 148
f 148 147 149
f 148 149 150
f 150 149 151
f 150 151 152
f 152 151 153
f 152 153 154
f 154 153 155
f 154 155 156
f 156 155 157
f 156 157 158
f 158 157 159
f 158 159 160
f 160 159 161
f 160 161 162
f 162 161 163
f 162 163 164
f 164 163 165
f 164 165 166
f 166 165 167
f 166 167 168
f 168 167 169
f 168 169 170
f 170 169 171
f 170 171 172
f 172 171 173
f 172 173 174
f 174 173 175
f 174 175 176
f 176 175 177
f 176 177 178
f 178 177 179
f 178 179 180
f 180 179 181
f 180 181 182
f 182 181 183
f 182 183 184
f 184 183 185
f 184 185 186
f 186 185 187
f 186 187 188
f 188 187 189
f 188 189 190
f 190 189 191
f 190 191 192
f 169 167 193
f 169 193 194
f 192 191 195
f 192 195 196
f 196 195 197
f 196 197 198
f 199 200 201
f 199 201 202
f 187 185 203
f 187 203 204
f 143 141 205
f 143 205 206
f 161 159 207
f 161 207 208
f 179 177 209
f 179 209 210
f 135 133 211
f 135 211 212
f 153 151 213
f 153 213 214
f 171 169 194
f 171 194 215
f 189 187 204
f 189 204 216
f 145 143 206
f 145 206 217
f 163 161 208
f 163 208 218
f 181 179 210
f 181 210 219
f 137 135 212
f 137 212 220
f 155 153 214
f 155 214 221
f 173 171 215
f 173 215 222
f 191 189 216
f 191 216 223
f 147 145 217
f 147 217 224
f 165 163 218
f 165 218 225
f 183 181 219
f 183 219 226
f 139 137 220
f 139 220 227
f 157 155 221
f 157 221 228
f 175 173 222
f 175 222 229
f 195 191 223
f 195 223 230
f 149 147 224
f 149 224 231
f 167 165 225
f 167 225 193
f 185 183 226
f 185 226 203
f 141 139 227
f 141 227 205
f 159 157 228
f 159 228 207
f 177 175 229
f 177 229 209
f 133 132 232
f 133 232 211
f 197 195 230
f 197 230 233
f 151 149 231
f 151 231 213
f 234 235 236
f 234 236 237
f 235 238 239
f 235 239 236
f 238 240 241
f 238 241 239
f 240 242 243
f 240 243 241
f 242 244 245
f 242 245 243
f 244 246 247
f 244 247 245
f 246 248 249
f 246 249 247
f 248 250 251
f 248 251 249
f 250 252 253
f 250 253 251
f 252 254 255
f 252 255 253
f 254 256 257
f 254 257 255
f 256 258 259
f 256 259 257
f 258 260 261
f 258 261 259
f 260 262 263
f 260 263 261
f 262 264 265
f 262 265 263
f 264 266 267
f 264 267 265
f 266 268 269
f 266 269 267
f 268 270 271
f 268 271 269
f 270 272 273
f 270 273 271
f 272 274 275
f 272 275 273
f 274 276 277
f 274 277 275
f 276 278 279
f 276 279 277
f 278 280 281
f 278 281 279
f 280 282 283
f 280 283 281
f 282 284 285
f 282 285 283
f 284 286 287
f 284 287 285
f 286 288 289
f 286 289 287
f 288 290 291
f 288 291 289
f 290 292 293
f 290 293 291
f 292 294 295
f 292 295 293
f 294 296 297
f 294 297 295
f 296 234 237
f 296 237 297
f 298 299 300
f 298 300 301
f 302 303 304
f 302 304 305
f 306 307 308
f 306 308 309
f 310 199 202
f 310 202 311
f 312 302 305
f 312 305 313
f 314 306 309
f 314 309 315
f 316 312 313
f 316 313 317
f 318 314 315
f 318 315 319
f 320 316 317
f 320 317 321
f 322 318 319
f 322 319 323
f 324 320 321
f 324 321 325
f 326 322 323
f 326 323 327
f 328 324 325
f 328 325 329
f 330 326 327
f 330 327 331
f 332 328 329
f 332 329 333
f 334 330 331
f 334 331 335
f 336 332 333
f 336 333 337
f 338 334 335
f 338 335 339
f 340 336 337
f 340 337 341
f 342 338 339
f 342 339 343
f 344 340 341
f 344 341 345
f 346 342 343
f 346 343 347
f 348 310 311
f 348 311 349
f 350 344 345
f 350 345 351
f 352 346 347
f 352 347 353
f 354 348 349
f 354 349 355
f 356 350 351
f 356 351 357
f 358 352 353
f 358 353 359
f 360 354 355
f 360 355 361
f 200 356 357
f 200 357 201
f 303 358 359
f 303 359 304
f 307 360 361
f 307 361 308
f 362 363 364
f 362 364 365
f 366 367 368
f 366 368 369
f 370 371 372
f 370 372 373
f 374 375 376
f 374 376 377
f 378 379 380
f 378 380 381
f 382 383 384
f 382 384 385
f 386 387 388
f 386 388 389
f 390 391 392
f 390 392 393
f 394 395 396
f 394 396 397
f 398 399 400
f 398 400 401
f 402 403 404
f 402 404 405
f 406 407 408
f 406 408 409
f 410 411 412
f 410 412 413
f 414 415 416
f 414 416 417
f 418 419 420
f 418 420 421
f 422 423 424
f 422 424 425
f 426 427 428
f 426 428 429
f 430 431 432
f 430 432 433
f 434 435 436
f 434 436 437
f 438 439 440
f 438 440 441
f 442 443 444
f 442 444 445
f 446 447 448
f 446 448 449
f 450 451 452
f 450 452 453
f 454 455 456
f 454 456 457
f 458 459 460
f 458 460 461
f 462 463 464
f 462 464 465
f 466 467 468
f 466 468 469
f 470 471 472
f 470 472 473
f 474 475 476
f 474 476 477
f 478 479 480
f 478 480 481
f 482 483 484
f 482 484 485
f 486 487 488
f 486 488 489
f 490 491 492
f 490 492 493
f 494 298 301
f 494 301 495
f 496 490 493
f 496 493 497
f 498 494 495
f 498 495 499
f 500 496 497
f 500 497 501
f 502 498 499
f 502 499 503
f 504 500 501
f 504 501 505
f 506 507 508
f 506 508 509
f 510 502 503
f 510 503 511
f 512 504 505
f 512 505 513
f 514 506 509
f 514 509 515
f 516 510 511
f 516 511 517
f 518 512 513
f 518 513 519
f 520 514 515
f 520 515 521
f 522 516 517
f 522 517 523
f 524 518 519
f 524 519 525
f 526 520 521
f 526 521 527
f 528 522 523
f 528 523 529
f 530 524 525
f 530 525 531
f 532 526 527
f 532 527 533
f 507 528 529
f 507 529 508
f 534 530 531
f 534 531 535
f 536 532 533
f 536 533 537
f 538 534 535
f 538 535 539
f 540 536 537
f 540 537 541
f 542 538 539
f 542 539 543
f 544 540 541
f 544 541 545
f 546 542 543
f 546 543 547
f 548 544 545
f 548 545 549
f 299 546 547
f 299 547 300
f 491 548 549
f 491 549 492
f 550 551 552
f 550 552 553
f 553 552 554
f 553 554 555
f 556 557 234
f 556 234 296
f 558 550 553
f 558 553 559
f 559 553 555
f 559 555 560
f 561 556 296
f 561 296 294
f 562 558 559
f 562 559 563
f 563 559 560
f 563 560 564
f 565 561 294
f 565 294 292
f 566 562 563
f 566 563 567
f 567 563 564
f 567 564 568
f 569 565 292
f 569 292 290
f 570 566 567
f 570 567 571
f 571 567 568
f 571 568 572
f 573 569 290
f 573 290 288
f 574 570 571
f 574 571 575
f 575 571 572
f 575 572 576
f 577 573 288
f 577 288 286
f 578 574 575
f 578 575 579
f 579 575 576
f 579 576 580
f 581 577 286
f 581 286 284
f 582 578 579
f 582 579 583
f 583 579 580
f 583 580 584
f 585 581 284
f 585 284 282
f 586 582 583
f 586 583 587
f 587 583 584
f 587 584 588
f 589 585 282
f 589 282 280
f 590 586 587
f 590 587 591
f 591 587 588
f 591 588 592
f 593 589 280
f 593 280 278
f 594 590 591
f 594 591 595
f 595 591 592
f 595 592 596
f 597 593 278
f 597 278 276
f 598 594 595
f 598 595 599
f 599 595 596
f 599 596 600
f 601 597 276
f 601 276 274
f 602 598 599
f 602 599 603
f 603 599 600
f 603 600 604
f 605 601 274
f 605 274 272
f 606 602 603
f 606 603 607
f 607 603 604
f 607 604 608
f 609 605 272
f 609 272 270
f 610 606 607
f 610 607 611
f 611 607 608
f 611 608 612
f 613 609 270
f 613 270 268
f 614 610 611
f 614 611 615
f 615 611 612
f 615 612 616
f 617 613 268
f 617 268 266
f 618 614 615
f 618 615 619
f 619 615 616
f 619 616 620
f 621 617 266
f 621 266 264
f 622 618 619
f 622 619 623
f 623 619 620
f 623 620 624
f 625 621 264
f 625 264 262
f 626 622 623
f 626 623 627
f 627 623 624
f 627 624 628
f 629 625 262
f 629 262 260
f 630 626 627
f 630 627 631
f 631 627 628
f 631 628 632
f 633 629 260
f 633 260 258
f 634 630 631
f 634 631 635
f 635 631 632
f 635 632 636
f 637 633 258
f 637 258 256
f 638 634 635
f 638 635 639
f 639 635 636
f 639 636 640
f 641 637 256
f 641 256 254
f 642 638 639
f 642 639 643
f 643 639 640
f 643 640 644
f 645 641 254
f 645 254 252
f 646 642 643
f 646 643 647
f 647 643 644
f 647 644 648
f 649 645 252
f 649 252 250
f 650 646 647
f 650 647 651
f 651 647 648
f 651 648 652
f 653 649 250
f 653 250 248
f 654 650 651
f 654 651 655
f 655 651 652
f 655 652 656
f 657 653 248
f 657 248 246
f 658 654 655
f 658 655 659
f 659 655 656
f 659 656 660
f 661 657 246
f 661 246 244
f 662 658 659
f 662 659 663
f 663 659 660
f 663 660 664
f 665 661 244
f 665 244 242
f 666 662 663
f 666 663 667
f 667 663 664
f 667 664 668
f 669 665 242
f 669 242 240
f 670 666 667
f 670 667 671
f 671 667 668
f 671 668 672
f 673 669 240
f 673 240 238
f 674 670 671
f 674 671 675
f 675 671 672
f 675 672 676
f 677 673 238
f 677 238 235
f 551 674 675
f 551 675 552
f 552 675 676
f 552 676 554
f 557 677 235
f 557 235 234
f 65 678 679
f 65 679 66
f 66 679 680
f 66 680 69
f 69 680 681
f 69 681 71
f 71 681 682
f 71 682 73
f 73 682 683
f 73 683 75
f 75 683 684
f 75 684 77
f 77 684 685
f 77 685 79
f 79 685 686
f 79 686 81
f 81 686 687
f 81 687 83
f 83 687 688
f 83 688 85
f 85 688 689
f 85 689 87
f 87 689 690
f 87 690 89
f 89 690 691
f 89 691 91
f 91 691 692
f 91 692 93
f 93 692 693
f 93 693 95
f 95 693 694
f 95 694 97
f 97 694 695
f 97 695 99
f 99 695 696
f 99 696 101
f 101 696 697
f 101 697 103
f 103 697 698
f 103 698 105
f 105 698 699
f 105 699 107
f 107 699 700
f 107 700 109
f 109 700 701
f 109 701 111
f 111 701 702
f 111 702 113
f 113 702 703
f 113 703 115
f 115 703 704
f 115 704 117
f 117 704 705
f 117 705 119
f 119 705 706
f 119 706 121
f 121 706 707
f 121 707 123
f 123 707 708
f 123 708 125
f 125 708 709
f 125 709 127
f 127 709 710
f 127 710 129
f 131 134 711
f 131 711 712
f 134 136 713
f 134 713 711
f 136 138 714
f 136 714 713
f 138 140 715
f 138 715 714
f 140 142 716
f 140 716 715
f 142 144 717
f 142 717 716
f 144 146 718
f 144 718 717
f 146 148 719
f 146 719 718
f 148 150 720
f 148 720 719
f 150 152 721
f 150 721 720
f 152 154 722
f 152 722 721
f 154 156 723
f 154 723 722
f 156 158 724
f 156 724 723
f 158 160 725
f 158 725 724
f 160 162 726
f 160 726 725
f 162 164 727
f 162 727 726
f 164 166 728
f 164 728 727
f 166 168 729
f 166 729 728
f 168 170 730
f 168 730 729
f 170 172 731
f 170 731 730
f 172 174 732
f 172 732 731
f 174 176 733
f 174 733 732
f 176 178 734
f 176 734 733
f 178 180 735
f 178 735 734
f 180 182 736
f 180 736 735
f 182 184 737
f 182 737 736
f 184 186 738
f 184 738 737
f 186 188 739
f 186 739 738
f 188 190 740
f 188 740 739
f 190 192 741
f 190 741 740
f 730 742 743
f 730 743 729
f 192 196 744
f 192 744 741
f 196 198 745
f 196 745 744
f 746 747 748
f 746 748 749
f 739 750 751
f 739 751 738
f 717 752 753
f 717 753 716
f 726 754 755
f 726 755 725
f 735 756 757
f 735 757 734
f 713 758 759
f 713 759 711
f 722 760 761
f 722 761 721
f 731 762 742
f 731 742 730
f 740 763 750
f 740 750 739
f 718 764 752
f 718 752 717
f 727 765 754
f 727 754 726
f 736 766 756
f 736 756 735
f 714 767 758
f 714 758 713
f 723 768 760
f 723 760 722
f 732 769 762
f 732 762 731
f 741 770 763
f 741 763 740
f 719 771 764
f 719 764 718
f 728 772 765
f 728 765 727
f 737 773 766
f 737 766 736
f 715 774 767
f 715 767 714
f 724 775 768
f 724 768 723
f 733 776 769
f 733 769 732
f 744 777 770
f 744 770 741
f 720 778 771
f 720 771 719
f 729 743 772
f 729 772 728
f 738 751 773
f 738 773 737
f 716 753 774
f 716 774 715
f 725 755 775
f 725 775 724
f 734 757 776
f 734 776 733
f 711 759 779
f 711 779 712
f 745 780 777
f 745 777 744
f 721 761 778
f 721 778 720
f 781 782 783
f 781 783 784
f 784 783 785
f 784 785 786
f 786 785 787
f 786 787 788
f 788 787 789
f 788 789 790
f 790 789 791
f 790 791 792
f 792 791 793
f 792 793 794
f 794 793 795
f 794 795 796
f 796 795 797
f 796 797 798
f 798 797 799
f 798 799 800
f 800 799 801
f 800 801 802
f 802 801 803
f 802 803 804
f 804 803 805
f 804 805 806
f 806 805 807
f 806 807 808
f 808 807 809
f 808 809 810
f 810 809 811
f 810 811 812
f 812 811 813
f 812 813 814
f 814 813 815
f 814 815 816
f 816 815 817
f 816 817 818
f 818 817 819
f 818 819 820
f 820 819 821
f 820 821 822
f 822 821 823
f 822 823 824
f 824 823 825
f 824 825 826
f 826 825 827
f 826 827 828
f 828 827 829
f 828 829 830
f 830 829 831
f 830 831 832
f 832 831 833
f 832 833 834
f 834 833 835
f 834 835 836
f 836 835 837
f 836 837 838
f 838 837 839
f 838 839 840
f 840 839 841
f 840 841 842
f 842 841 843
f 842 843 844
f 844 843 782
f 844 782 781
f 845 846 847
f 845 847 848
f 849 850 851
f 849 851 852
f 853 854 855
f 853 855 856
f 857 858 747
f 857 747 746
f 859 860 850
f 859 850 849
f 861 862 854
f 861 854 853
f 863 864 860
f 863 860 859
f 865 866 862
f 865 862 861
f 867 868 864
f 867 864 863
f 869 870 866
f 869 866 865
f 871 872 868
f 871 868 867
f 873 874 870
f 873 870 869
f 875 876 872
f 875 872 871
f 877 878 874
f 877 874 873
f 879 880 876
f 879 876 875
f 881 882 878
f 881 878 877
f 883 884 880
f 883 880 879
f 885 886 882
f 885 882 881
f 887 888 884
f 887 884 883
f 889 890 886
f 889 886 885
f 891 892 888
f 891 888 887
f 893 894 890
f 893 890 889
f 895 896 858
f 895 858 857
f 897 898 892
f 897 892 891
f 899 900 894
f 899 894 893
f 901 902 896
f 901 896 895
f 903 904 898
f 903 898 897
f 905 906 900
f 905 900 899
f 907 908 902
f 907 902 901
f 749 748 904
f 749 904 903
f 852 851 906
f 852 906 905
f 856 855 908
f 856 908 907
f 909 910 911
f 909 911 912
f 912 911 913
f 912 913 914
f 914 913 915
f 914 915 916
f 916 915 917
f 916 917 918
f 918 917 919
f 918 919 920
f 920 919 921
f 920 921 922
f 922 921 923
f 922 923 924
f 924 923 925
f 924 925 926
f 926 925 927
f 926 927 928
f 928 927 929
f 928 929 930
f 930 929 931
f 930 931 932
f 932 931 933
f 932 933 934
f 934 933 935
f 934 935 936
f 936 935 937
f 936 937 938
f 938 937 939
f 938 939 940
f 940 939 941
f 940 941 942
f 942 941 943
f 942 943 944
f 944 943 945
f 944 945 946
f 946 945 947
f 946 947 948
f 948 947 949
f 948 949 950
f 950 949 951
f 950 951 952
f 952 951 953
f 952 953 954
f 954 953 955
f 954 955 956
f 956 955 957
f 956 957 958
f 958 957 959
f 958 959 960
f 960 959 961
f 960 961 962
f 962 961 963
f 962 963 964
f 964 963 965
f 964 965 966
f 966 965 967
f 966 967 968
f 968 967 969
f 968 969 970
f 970 969 971
f 970 971 972
f 972 971 910
f 972 910 909
f 973 974 975
f 973 975 976
f 977 978 846
f 977 846 845
f 979 980 974
f 979 974 973
f 981 982 978
f 981 978 977
f 983 984 980
f 983 980 979
f 985 986 982
f 985 982 981
f 987 988 984
f 987 984 983
f 989 990 991
f 989 991 992
f 993 994 986
f 993 986 985
f 995 996 988
f 995 988 987
f 997 998 990
f 997 990 989
f 999 1000 994
f 999 994 993
f 1001 1002 996
f 1001 996 995
f 1003 1004 998
f 1003 998 997
f 1005 1006 1000
f 1005 1000 999
f 1007 1008 1002
f 1007 1002 1001
f 1009 1010 1004
f 1009 1004 1003
f 1011 1012 1006
f 1011 1006 1005
f 1013 1014 1008
f 1013 1008 1007
f 1015 1016 1010
f 1015 1010 1009
f 992 991 1012
f 992 1012 1011
f 1017 1018 1014
f 1017 1014 1013
f 1019 1020 1016
f 1019 1016 1015
f 1021 1022 1018
f 1021 1018 1017
f 1023 1024 1020
f 1023 1020 1019
f 1025 1026 1022
f 1025 1022 1021
f 1027 1028 1024
f 1027 1024 1023
f 1029 1030 1026
f 1029 1026 1025
f 1031 1032 1028
f 1031 1028 1027
f 848 847 1030
f 848 1030 1029
f 976 975 1032
f 976 1032 1031
f 1033 1034 1035
f 1033 1035 1036
f 1034 1037 1038
f 1034 1038 1035
f 1039 844 781
f 1039 781 1040
f 1041 1042 1034
f 1041 1034 1033
f 1042 1043 1037
f 1042 1037 1034
f 1044 842 844
f 1044 844 1039
f 1045 1046 1042
f 1045 1042 1041
f 1046 1047 1043
f 1046 1043 1042
f 1048 840 842
f 1048 842 1044
f 1049 1050 1046
f 1049 1046 1045
f 1050 1051 1047
f 1050 1047 1046
f 1052 838 840
f 1052 840 1048
f 1053 1054 1050
f 1053 1050 1049
f 1054 1055 1051
f 1054 1051 1050
f 1056 836 838
f 1056 838 1052
f 1057 1058 1054
f 1057 1054 1053
f 1058 1059 1055
f 1058 1055 1054
f 1060 834 836
f 1060 836 1056
f 1061 1062 1058
f 1061 1058 1057
f 1062 1063 1059
f 1062 1059 1058
f 1064 832 834
f 1064 834 1060
f 1065 1066 1062
f 1065 1062 1061
f 1066 1067 1063
f 1066 1063 1062
f 1068 830 832
f 1068 832 1064
f 1069 1070 1066
f 1069 1066 1065
f 1070 1071 1067
f 1070 1067 1066
f 1072 828 830
f 1072 830 1068
f 1073 1074 1070
f 1073 1070 1069
f 1074 1075 1071
f 1074 1071 1070
f 1076 826 828
f 1076 828 1072
f 1077 1078 1074
f 1077 1074 1073
f 1078 1079 1075
f 1078 1075 1074
f 1080 824 826
f 1080 826 1076
f 1081 1082 1078
f 1081 1078 1077
f 1082 1083 1079
f 1082 1079 1078
f 1084 822 824
f 1084 824 1080
f 1085 1086 1082
f 1085 1082 1081
f 1086 1087 1083
f 1086 1083 1082
f 1088 820 822
f 1088 822 1084
f 1089 1090 1086
f 1089 1086 1085
f 1090 1091 1087
f 1090 1087 1086
f 1092 818 820
f 1092 820 1088
f 1093 1094 1090
f 1093 1090 1089
f 1094 1095 1091
f 1094 1091 1090
f 1096 816 818
f 1096 818 1092
f 1097 1098 1094
f 1097 1094 1093
f 1098 1099 1095
f 1098 1095 1094
f 1100 814 816
f 1100 816 1096
f 1101 1102 1098
f 1101 1098 1097
f 1102 1103 1099
f 1102 1099 1098
f 1104 812 814
f 1104 814 1100
f 1105 1106 1102
f 1105 1102 1101
f 1106 1107 1103
f 1106 1103 1102
f 1108 810 812
f 1108 812 1104
f 1109 1110 1106
f 1109 1106 1105
f 1110 1111 1107
f 1110 1107 1106
f 1112 808 810
f 1112 810 1108
f 1113 1114 1110
f 1113 1110 1109
f 1114 1115 1111
f 1114 1111 1110
f 1116 806 808
f 1116 808 1112
f 1117 1118 1114
f 1117 1114 1113
f 1118 1119 1115
f 1118 1115 1114
f 1120 804 806
f 1120 806 1116
f 1121 1122 1118
f 1121 1118 1117
f 1122 1123 1119
f 1122 1119 1118
f 1124 802 804
f 1124 804 1120
f 1125 1126 1122
f 1125 1122 1121
f 1126 1127 1123
f 1126 1123 1122
f 1128 800 802
f 1128 802 1124
f 1129 1130 1126
f 1129 1126 1125
f 1130 1131 1127
f 1130 1127 1126
f 1132 798 800
f 1132 800 1128
f 1133 1134 1130
f 1133 1130 1129
f 1134 1135 1131
f 1134 1131 1130
f 1136 796 798
f 1136 798 1132
f 1137 1138 1134
f 1137 1134 1133
f 1138 1139 1135
f 1138 1135 1134
f 1140 794 796
f 1140 796 1136
f 1141 1142 1138
f 1141 1138 1137
f 1142 1143 1139
f 1142 1139 1138
f 1144 792 794
f 1144 794 1140
f 1145 1146 1142
f 1145 1142 1141
f 1146 1147 1143
f 1146 1143 1142
f 1148 790 792
f 1148 792 1144
f 1149 1150 1146
f 1149 1146 1145
f 1150 1151 1147
f 1150 1147 1146
f 1152 788 790
f 1152 790 1148
f 1153 1154 1150
f 1153 1150 1149
f 1154 1155 1151
f 1154 1151 1150
f 1156 786 788
f 1156 788 1152
f 1157 1158 1154
f 1157 1154 1153
f 1158 1159 1155
f 1158 1155 1154
f 1160 784 786
f 1160 786 1156
f 1036 1035 1158
f 1036 1158 1157
f 1035 1038 1159
f 1035 1159 1158
f 1040 781 784
f 1040 784 1160
f 1161 1162 1163
f 1161 1163 1164
f 1162 1165 1166
f 1162 1166 1163
f 1165 1167 1168
f 1165 1168 1166
f 1167 1169 1170
f 1167 1170 1168
f 1169 1171 1172
f 1169 1172 1170
f 1171 1173 1174
f 1171 1174 1172
f 1173 1175 1176
f 1173 1176 1174
f 1175 1177 1178
f 1175 1178 1176
f 1177 1179 1180
f 1177 1180 1178
f 1179 1181 1182
f 1179 1182 1180
f 1181 1183 1184
f 1181 1184 1182
f 1183 1185 1186
f 1183 1186 1184
f 1185 1187 1188
f 1185 1188 1186
f 1187 1189 1190
f 1187 1190 1188
f 1189 1191 1192
f 1189 1192 1190
f 1191 1193 1194
f 1191 1194 1192
f 1193 1195 1196
f 1193 1196 1194
f 1195 1197 1198
f 1195 1198 1196
f 1197 1199 1200
f 1197 1200 1198
f 1199 1201 1202
f 1199 1202 1200
f 1201 1203 1204
f 1201 1204 1202
f 1203 1205 1206
f 1203 1206 1204
f 1205 1207 1208
f 1205 1208 1206
f 1207 1209 1210
f 1207 1210 1208
f 1209 1211 1212
f 1209 1212 1210
f 1211 1213 1214
f 1211 1214 1212
f 1213 1215 1216
f 1213 1216 1214
f 1215 1217 1218
f 1215 1218 1216
f 1217 1219 1220
f 1217 1220 1218
f 1219 1221 1222
f 1219 1222 1220
f 1221 1223 1224
f 1221 1224 1222
f 1223 1161 1164
f 1223 1164 1224
f 1225 1226 1227
f 1225 1227 1228
f 1229 1230 1231
f 1229 1231 1232
f 1233 1234 1235
f 1233 1235 1236
f 1237 1238 1239
f 1237 1239 1240
f 1241 1242 1243
f 1241 1243 1244
f 1245 1246 1247
f 1245 1247 1248
f 1249 1250 1251
f 1249 1251 1252
f 1253 1254 1255
f 1253 1255 1256
f 1257 1258 1259
f 1257 1259 1260
f 1261 1262 1263
f 1261 1263 1264
f 1265 1266 1267
f 1265 1267 1268
f 1269 1270 1271
f 1269 1271 1272
f 1273 1274 1275
f 1273 1275 1276
f 1277 1278 1279
f 1277 1279 1280
f 1281 1282 1283
f 1281 1283 1284
f 1285 1286 1287
f 1285 1287 1288
f 1289 1290 1291
f 1289 1291 1292
f 1293 1294 1295
f 1293 1295 1296
f 1297 1298 1299
f 1297 1299 1300
f 1301 1302 1303
f 1301 1303 1304
f 1305 1306 1307
f 1305 1307 1308
f 1309 1310 1311
f 1309 1311 1312
f 1313 1314 1315
f 1313 1315 1316
f 1317 1318 1319
f 1317 1319 1320
f 1321 1322 1323
f 1321 1323 1324
f 1325 1326 1327
f 1325 1327 1328
f 1329 1330 1331
f 1329 1331 1332
f 1333 1334 1335
f 1333 1335 1336
f 1337 1338 1339
f 1337 1339 1340
f 1341 1342 1343
f 1341 1343 1344
f 1345 1346 1347
f 1345 1347 1348
f 1349 1350 1351
f 1349 1351 1352
f 1353 1354 1355
f 1353 1355 1356
f 1357 1358 1359
f 1357 1359 1360
f 1361 1362 1363
f 1361 1363 1364
f 1365 1366 1367
f 1365 1367 1368
f 1369 1370 1371
f 1369 1371 1372
f 1373 1374 1375
f 1373 1375 1376
f 1377 1378 1379
f 1377 1379 1380
f 1381 1382 1383
f 1381 1383 1384
f 1385 1386 1387
f 1385 1387 1388
f 1389 1390 1391
f 1389 1391 1392
f 1393 1394 1395
f 1393 1395 1396
f 1397 1398 1399
f 1397 1399 1400
f 1401 1402 1403
f 1401 1403 1404
f 1405 1406 1407
f 1405 1407 1408
f 1409 1410 1411
f 1409 1411 1412
f 1413 1414 1415
f 1413 1415 1416
f 1417 1418 1419
f 1417 1419 1420
f 1421 1422 1423
f 1421 1423 1424
f 1425 1426 1427
f 1425 1427 1428
f 1429 1430 1431
f 1429 1431 1432
f 1433 1434 1435
f 1433 1435 1436
f 1437 1438 1439
f 1437 1439 1440
f 1441 1442 1443
f 1441 1443 1444
f 1445 1446 1447
f 1445 1447 1448
f 1449 1450 1451
f 1449 1451 1452
f 1453 1454 1455
f 1453 1455 1456
f 1457 1458 1459
f 1457 1459 1460
f 1461 1462 1463
f 1461 1463 1464
f 1465 1466 1467
f 1465 1467 1468
f 1469 1470 1471
f 1469 1471 1472
f 1473 1474 1475
f 1473 1475 1476
f 1477 1478 1479
f 1477 1479 1480
f 1481 1482 1483
f 1482 1481 1484
f 1484 1481 1485
f 1484 1485 1486
f 1486 1485 1487
f 1486 1487 1488
f 1488 1487 1489
f 1488 1489 1490
f 1490 1489 1491
f 1490 1491 1492
f 1492 1491 1493
f 1492 1493 1494
f 1494 1493 1495
f 1494 1495 1496
f 1496 1495 1497
f 1496 1497 1498
f 1498 1497 1499
f 1498 1499 1500
f 1500 1499 1501
f 1500 1501 1502
f 1502 1501 1503
f 1502 1503 1504
f 1504 1503 1505
f 1504 1505 1506
f 1504 1506 1507
f 1507 1506 1508
f 1507 1508 1509
f 1509 1508 1510
f 1509 1510 1511
f 1511 1510 1512
f 1513 1514 1515
f 1514 1513 1516
f 1514 1516 1517
f 1517 1516 1518
f 1517 1518 1519
f 1519 1518 1520
f 1519 1520 1521
f 1521 1520 1522
f 1521 1522 1523
f 1523 1522 1524
f 1523 1524 1525
f 1525 1524 1526
f 1525 1526 1527
f 1527 1526 1528
f 1527 1528 1529
f 1529 1528 1530
f 1529 1530 1531
f 1531 1530 1532
f 1531 1532 1533
f 1533 1532 1534
f 1533 1534 1535
f 1535 1534 1536
f 1535 1536 1537
f 1537 1536 1538
f 1537 1538 1539
f 1539 1538 1540
f 1539 1540 1541
f 1541 1540 1542
f 1542 1540 1543
f 1542 1543 1544
f 1545 1546 1547
f 1546 1545 1548
f 1548 1545 1549
f 1548 1549 1550
f 1550 1549 1551
f 1550 1551 1552
f 1552 1551 1553
f 1552 1553 1554
f 1554 1553 1555
f 1554 1555 1556
f 1556 1555 1557
f 1556 1557 1558
f 1558 1557 1559
f 1558 1559 1560
f 1560 1559 1561
f 1560 1561 1562
f 1560 1562 1563
f 1563 1562 1564
f 1563 1564 1565
f 1565 1564 1566
f 1565 1566 1567
f 1567 1566 1568
f 1567 1568 1569
f 1569 1568 1570
f 1569 1570 1571
f 1571 1570 1572
f 1572 1570 1573
f 1572 1573 1574
f 1572 1574 1575
f 1575 1574 1576
